<svg width="218" height="118" viewBox="0 0 218 118" fill="none" xmlns="http://www.w3.org/2000/svg">
<g filter="url(#filter0_d_500_11536)">
<rect x="3" y="2" width="212" height="112" rx="12" fill="#FCFCFC" shape-rendering="crispEdges"/>
<mask id="path-2-inside-1_500_11536" fill="white">
<path d="M3 2H215V34H3V2Z"/>
</mask>
<path d="M215 34V33.5H3V34V34.5H215V34Z" fill="#D4D4D4" mask="url(#path-2-inside-1_500_11536)"/>
<path d="M26.3632 15.3633C26.7147 15.0118 27.2852 15.0118 27.6367 15.3633C27.9881 15.7147 27.9881 16.2852 27.6367 16.6367L23.6367 20.6367C23.2852 20.9882 22.7147 20.9882 22.3632 20.6367L18.3632 16.6367C18.0117 16.2852 18.0117 15.7147 18.3632 15.3633C18.7147 15.0118 19.2852 15.0118 19.6367 15.3633L22.9999 18.7266L26.3632 15.3633Z" fill="#747474"/>
<path d="M43 18C43 16.6193 43.8954 15.5 45 15.5H146C147.105 15.5 148 16.6193 148 18V18C148 19.3807 147.105 20.5 146 20.5H45C43.8954 20.5 43 19.3807 43 18V18Z" fill="#D4D4D4"/>
<mask id="path-6-inside-2_500_11536" fill="white">
<path d="M3 34H215V82H3V34Z"/>
</mask>
<path d="M215 82V81.5H3V82V82.5H215V82Z" fill="#D4D4D4" mask="url(#path-6-inside-2_500_11536)"/>
<path d="M22.4316 55.3017C22.7851 55.0133 23.3071 55.0337 23.6367 55.3633L27.6367 59.3633C27.9881 59.7147 27.9881 60.2852 27.6367 60.6367C27.2852 60.9882 26.7147 60.9882 26.3632 60.6367L22.9999 57.2734L19.6367 60.6367C19.2852 60.9882 18.7147 60.9882 18.3632 60.6367C18.0117 60.2852 18.0117 59.7147 18.3632 59.3633L22.3632 55.3633L22.4316 55.3017Z" fill="#747474"/>
<path d="M43 51.5C43 50.1193 43.8954 49 45 49H187C188.105 49 189 50.1193 189 51.5V51.5C189 52.8807 188.105 54 187 54H45C43.8954 54 43 52.8807 43 51.5V51.5Z" fill="#D4D4D4"/>
<path d="M43 64.5C43 63.1193 43.8954 62 45 62H133C134.105 62 135 63.1193 135 64.5V64.5C135 65.8807 134.105 67 133 67H45C43.8954 67 43 65.8807 43 64.5V64.5Z" fill="#E4E4E4"/>
<path d="M26.3632 95.3633C26.7147 95.0118 27.2852 95.0118 27.6367 95.3633C27.9881 95.7147 27.9881 96.2852 27.6367 96.6367L23.6367 100.637C23.2852 100.988 22.7147 100.988 22.3632 100.637L18.3632 96.6367C18.0117 96.2852 18.0117 95.7147 18.3632 95.3633C18.7147 95.0118 19.2852 95.0118 19.6367 95.3633L22.9999 98.7266L26.3632 95.3633Z" fill="#747474"/>
<path d="M43 98C43 96.6193 43.8954 95.5 45 95.5H146C147.105 95.5 148 96.6193 148 98V98C148 99.3807 147.105 100.5 146 100.5H45C43.8954 100.5 43 99.3807 43 98V98Z" fill="#D4D4D4"/>
</g>
<defs>
<filter id="filter0_d_500_11536" x="0" y="0" width="218" height="118" filterUnits="userSpaceOnUse" color-interpolation-filters="sRGB">
<feFlood flood-opacity="0" result="BackgroundImageFix"/>
<feColorMatrix in="SourceAlpha" type="matrix" values="0 0 0 0 0 0 0 0 0 0 0 0 0 0 0 0 0 0 127 0" result="hardAlpha"/>
<feOffset dy="1"/>
<feGaussianBlur stdDeviation="1.5"/>
<feComposite in2="hardAlpha" operator="out"/>
<feColorMatrix type="matrix" values="0 0 0 0 0 0 0 0 0 0 0 0 0 0 0 0 0 0 0.05 0"/>
<feBlend mode="normal" in2="BackgroundImageFix" result="effect1_dropShadow_500_11536"/>
<feBlend mode="normal" in="SourceGraphic" in2="effect1_dropShadow_500_11536" result="shape"/>
</filter>
</defs>
</svg>
