<svg width="156" height="176" viewBox="0 0 156 176" fill="none" xmlns="http://www.w3.org/2000/svg">
<g filter="url(#filter0_d_389_9808)">
<rect x="3" y="2" width="150" height="170" rx="12" fill="#FCFCFC" shape-rendering="crispEdges"/>
<path d="M28.3632 21.3633C28.7147 21.0118 29.2852 21.0118 29.6367 21.3633C29.9881 21.7148 29.9881 22.2852 29.6367 22.6367L26.2734 26L29.6367 29.3633C29.9881 29.7148 29.9881 30.2852 29.6367 30.6367C29.2852 30.9882 28.7147 30.9882 28.3632 30.6367L24.3632 26.6367C24.0117 26.2852 24.0117 25.7148 24.3632 25.3633L28.3632 21.3633Z" fill="#747474"/>
<path d="M55 26C55 24.6193 56.1193 23.5 57.5 23.5H98.5C99.8807 23.5 101 24.6193 101 26C101 27.3807 99.8807 28.5 98.5 28.5H57.5C56.1193 28.5 55 27.3807 55 26Z" fill="#D4D4D4"/>
<path d="M126.363 21.3633C126.715 21.0118 127.285 21.0118 127.637 21.3633L131.637 25.3633C131.988 25.7148 131.988 26.2852 131.637 26.6367L127.637 30.6367C127.285 30.9882 126.715 30.9882 126.363 30.6367C126.012 30.2852 126.012 29.7148 126.363 29.3633L129.726 26L126.363 22.6367C126.012 22.2852 126.012 21.7148 126.363 21.3633Z" fill="#747474"/>
<path d="M19 54C19 51.7909 20.7909 50 23 50H31C33.2091 50 35 51.7909 35 54V62C35 64.2091 33.2091 66 31 66H23C20.7909 66 19 64.2091 19 62V54Z" fill="#F5F5F5"/>
<path d="M53 54C53 51.7909 54.7909 50 57 50H65C67.2091 50 69 51.7909 69 54V62C69 64.2091 67.2091 66 65 66H57C54.7909 66 53 64.2091 53 62V54Z" fill="#F5F5F5"/>
<path d="M87 54C87 51.7909 88.7909 50 91 50H99C101.209 50 103 51.7909 103 54V62C103 64.2091 101.209 66 99 66H91C88.7909 66 87 64.2091 87 62V54Z" fill="#F5F5F5"/>
<path d="M121 54C121 51.7909 122.791 50 125 50H133C135.209 50 137 51.7909 137 54V62C137 64.2091 135.209 66 133 66H125C122.791 66 121 64.2091 121 62V54Z" fill="#E4E4E4"/>
<path d="M19 84C19 81.7909 20.7909 80 23 80H31C33.2091 80 35 81.7909 35 84V92C35 94.2091 33.2091 96 31 96H23C20.7909 96 19 94.2091 19 92V84Z" fill="#E4E4E4"/>
<path d="M53 84C53 81.7909 54.7909 80 57 80H65C67.2091 80 69 81.7909 69 84V92C69 94.2091 67.2091 96 65 96H57C54.7909 96 53 94.2091 53 92V84Z" fill="#E4E4E4"/>
<path d="M87 84C87 81.7909 88.7909 80 91 80H99C101.209 80 103 81.7909 103 84V92C103 94.2091 101.209 96 99 96H91C88.7909 96 87 94.2091 87 92V84Z" fill="#E4E4E4"/>
<path d="M121 84C121 81.7909 122.791 80 125 80H133C135.209 80 137 81.7909 137 84V92C137 94.2091 135.209 96 133 96H125C122.791 96 121 94.2091 121 92V84Z" fill="#E4E4E4"/>
<path d="M19 114C19 111.791 20.7909 110 23 110H31C33.2091 110 35 111.791 35 114V122C35 124.209 33.2091 126 31 126H23C20.7909 126 19 124.209 19 122V114Z" fill="#E4E4E4"/>
<path d="M53 114C53 111.791 54.7909 110 57 110H65C67.2091 110 69 111.791 69 114V122C69 124.209 67.2091 126 65 126H57C54.7909 126 53 124.209 53 122V114Z" fill="#E4E4E4"/>
<path d="M87 114C87 111.791 88.7909 110 91 110H99C101.209 110 103 111.791 103 114V122C103 124.209 101.209 126 99 126H91C88.7909 126 87 124.209 87 122V114Z" fill="#747474"/>
<path d="M121 114C121 111.791 122.791 110 125 110H133C135.209 110 137 111.791 137 114V122C137 124.209 135.209 126 133 126H125C122.791 126 121 124.209 121 122V114Z" fill="#E4E4E4"/>
<path d="M19 144C19 141.791 20.7909 140 23 140H31C33.2091 140 35 141.791 35 144V152C35 154.209 33.2091 156 31 156H23C20.7909 156 19 154.209 19 152V144Z" fill="#E4E4E4"/>
<path d="M53 144C53 141.791 54.7909 140 57 140H65C67.2091 140 69 141.791 69 144V152C69 154.209 67.2091 156 65 156H57C54.7909 156 53 154.209 53 152V144Z" fill="#E4E4E4"/>
<path d="M87 144C87 141.791 88.7909 140 91 140H99C101.209 140 103 141.791 103 144V152C103 154.209 101.209 156 99 156H91C88.7909 156 87 154.209 87 152V144Z" fill="#E4E4E4"/>
<path d="M121 144C121 141.791 122.791 140 125 140H133C135.209 140 137 141.791 137 144V152C137 154.209 135.209 156 133 156H125C122.791 156 121 154.209 121 152V144Z" fill="#F5F5F5"/>
</g>
<defs>
<filter id="filter0_d_389_9808" x="0" y="0" width="156" height="176" filterUnits="userSpaceOnUse" color-interpolation-filters="sRGB">
<feFlood flood-opacity="0" result="BackgroundImageFix"/>
<feColorMatrix in="SourceAlpha" type="matrix" values="0 0 0 0 0 0 0 0 0 0 0 0 0 0 0 0 0 0 127 0" result="hardAlpha"/>
<feOffset dy="1"/>
<feGaussianBlur stdDeviation="1.5"/>
<feComposite in2="hardAlpha" operator="out"/>
<feColorMatrix type="matrix" values="0 0 0 0 0 0 0 0 0 0 0 0 0 0 0 0 0 0 0.05 0"/>
<feBlend mode="normal" in2="BackgroundImageFix" result="effect1_dropShadow_389_9808"/>
<feBlend mode="normal" in="SourceGraphic" in2="effect1_dropShadow_389_9808" result="shape"/>
</filter>
</defs>
</svg>
