<svg width="206" height="126" viewBox="0 0 206 126" fill="none" xmlns="http://www.w3.org/2000/svg">
<g filter="url(#filter0_d_434_10056)">
<rect x="3" y="2" width="200" height="120" rx="12" fill="#FCFCFC" shape-rendering="crispEdges"/>
<path d="M190 110.5V111H15V110.5H190Z" fill="#F5F5F5"/>
<path d="M190 91.5V92H15V91.5H190Z" fill="#F5F5F5"/>
<path d="M190 71.5V72H15V71.5H190Z" fill="#F5F5F5"/>
<path d="M190 51.5V52H15V51.5H190Z" fill="#F5F5F5"/>
<path d="M190 31.5V32H15V31.5H190Z" fill="#F5F5F5"/>
<path d="M190 13.5V14H15V13.5H190Z" fill="#F5F5F5"/>
<path d="M15 63H30V110H15V63Z" fill="#D4D4D4"/>
<path d="M38 84H53V110H38V84Z" fill="#E4E4E4"/>
<path d="M61 46H76V110H61V46Z" fill="#D4D4D4"/>
<path d="M84 30H99V110H84V30Z" fill="#E4E4E4"/>
<path d="M107 57H122V110H107V57Z" fill="#D4D4D4"/>
<path d="M130 68H145V110H130V68Z" fill="#E4E4E4"/>
<path d="M153 41H168V110H153V41Z" fill="#D4D4D4"/>
<path d="M176 57H191V110H176V57Z" fill="#E4E4E4"/>
</g>
<defs>
<filter id="filter0_d_434_10056" x="0" y="0" width="206" height="126" filterUnits="userSpaceOnUse" color-interpolation-filters="sRGB">
<feFlood flood-opacity="0" result="BackgroundImageFix"/>
<feColorMatrix in="SourceAlpha" type="matrix" values="0 0 0 0 0 0 0 0 0 0 0 0 0 0 0 0 0 0 127 0" result="hardAlpha"/>
<feOffset dy="1"/>
<feGaussianBlur stdDeviation="1.5"/>
<feComposite in2="hardAlpha" operator="out"/>
<feColorMatrix type="matrix" values="0 0 0 0 0 0 0 0 0 0 0 0 0 0 0 0 0 0 0.05 0"/>
<feBlend mode="normal" in2="BackgroundImageFix" result="effect1_dropShadow_434_10056"/>
<feBlend mode="normal" in="SourceGraphic" in2="effect1_dropShadow_434_10056" result="shape"/>
</filter>
</defs>
</svg>
