<svg width="174" height="92" viewBox="0 0 174 92" fill="none" xmlns="http://www.w3.org/2000/svg">
<rect width="20" height="20" rx="6" fill="#525252"/>
<path d="M14 7L8.5 12.5L6 10" stroke="#FCFCFC" stroke-width="1.5" stroke-linecap="round" stroke-linejoin="round"/>
<path d="M28 3.5C28 2.11929 28.8954 1 30 1H172C173.105 1 174 2.11929 174 3.5C174 4.88071 173.105 6 172 6H30C28.8954 6 28 4.88071 28 3.5Z" fill="#D4D4D4"/>
<path d="M28 16.5C28 15.1193 28.8954 14 30 14H118C119.105 14 120 15.1193 120 16.5C120 17.8807 119.105 19 118 19H30C28.8954 19 28 17.8807 28 16.5Z" fill="#E4E4E4"/>
<rect y="36" width="20" height="20" rx="6" fill="#525252"/>
<path d="M14 43L8.5 48.5L6 46" stroke="#FCFCFC" stroke-width="1.5" stroke-linecap="round" stroke-linejoin="round"/>
<path d="M28 39.5C28 38.1193 28.8954 37 30 37H172C173.105 37 174 38.1193 174 39.5C174 40.8807 173.105 42 172 42H30C28.8954 42 28 40.8807 28 39.5Z" fill="#D4D4D4"/>
<path d="M28 52.5C28 51.1193 28.8954 50 30 50H118C119.105 50 120 51.1193 120 52.5C120 53.8807 119.105 55 118 55H30C28.8954 55 28 53.8807 28 52.5Z" fill="#E4E4E4"/>
<rect y="72" width="20" height="20" rx="6" fill="#525252"/>
<path d="M14 79L8.5 84.5L6 82" stroke="#FCFCFC" stroke-width="1.5" stroke-linecap="round" stroke-linejoin="round"/>
<path d="M28 75.5C28 74.1193 28.8954 73 30 73H172C173.105 73 174 74.1193 174 75.5C174 76.8807 173.105 78 172 78H30C28.8954 78 28 76.8807 28 75.5Z" fill="#D4D4D4"/>
<path d="M28 88.5C28 87.1193 28.8954 86 30 86H118C119.105 86 120 87.1193 120 88.5C120 89.8807 119.105 91 118 91H30C28.8954 91 28 89.8807 28 88.5Z" fill="#E4E4E4"/>
</svg>
