<svg width="226" height="81" viewBox="0 0 226 81" fill="none" xmlns="http://www.w3.org/2000/svg">
<g filter="url(#filter0_d_389_10128)">
<rect x="3" y="2" width="220" height="75" rx="8" fill="#FCFCFC" shape-rendering="crispEdges"/>
<path d="M15 18C15 16.6193 15.8954 15.5 17 15.5H105C106.105 15.5 107 16.6193 107 18C107 19.3807 106.105 20.5 105 20.5H17C15.8954 20.5 15 19.3807 15 18Z" fill="#D4D4D4"/>
<path d="M206.363 15.3633C206.715 15.0118 207.285 15.0118 207.637 15.3633C207.988 15.7147 207.988 16.2852 207.637 16.6367L203.637 20.6367C203.285 20.9882 202.715 20.9882 202.363 20.6367L198.363 16.6367C198.012 16.2852 198.012 15.7147 198.363 15.3633C198.715 15.0118 199.285 15.0118 199.637 15.3633L203 18.7266L206.363 15.3633Z" fill="#747474"/>
<path d="M211 36V37H15V36H211Z" fill="#E4E4E4"/>
<path d="M15 49.5C15 48.1193 16.1193 47 17.5 47H208.5C209.881 47 211 48.1193 211 49.5C211 50.8807 209.881 52 208.5 52H17.5C16.1193 52 15 50.8807 15 49.5Z" fill="#E4E4E4"/>
<path d="M15 62.5C15 61.1193 16.1193 60 17.5 60H106.5C107.881 60 109 61.1193 109 62.5C109 63.8807 107.881 65 106.5 65H17.5C16.1193 65 15 63.8807 15 62.5Z" fill="#E4E4E4"/>
</g>
<defs>
<filter id="filter0_d_389_10128" x="0" y="0" width="226" height="81" filterUnits="userSpaceOnUse" color-interpolation-filters="sRGB">
<feFlood flood-opacity="0" result="BackgroundImageFix"/>
<feColorMatrix in="SourceAlpha" type="matrix" values="0 0 0 0 0 0 0 0 0 0 0 0 0 0 0 0 0 0 127 0" result="hardAlpha"/>
<feOffset dy="1"/>
<feGaussianBlur stdDeviation="1.5"/>
<feComposite in2="hardAlpha" operator="out"/>
<feColorMatrix type="matrix" values="0 0 0 0 0 0 0 0 0 0 0 0 0 0 0 0 0 0 0.05 0"/>
<feBlend mode="normal" in2="BackgroundImageFix" result="effect1_dropShadow_389_10128"/>
<feBlend mode="normal" in="SourceGraphic" in2="effect1_dropShadow_389_10128" result="shape"/>
</filter>
</defs>
</svg>
