<svg width="218" height="106" viewBox="0 0 218 106" fill="none" xmlns="http://www.w3.org/2000/svg">
<g filter="url(#filter0_d_419_10053)">
<rect x="3" y="2" width="212" height="100" rx="12" fill="#FCFCFC" shape-rendering="crispEdges"/>
<mask id="path-2-inside-1_419_10053" fill="white">
<path d="M3 2H215V35.3333H3V2Z"/>
</mask>
<path d="M215 35.3333V34.8333H3V35.3333V35.8333H215V35.3333Z" fill="#D4D4D4" mask="url(#path-2-inside-1_419_10053)"/>
<path d="M23 16.6667C23 15.5621 22.1046 14.6667 21 14.6667C19.8954 14.6667 19 15.5621 19 16.6667C19 17.7712 19.8954 18.6667 21 18.6667C22.1046 18.6667 23 17.7712 23 16.6667ZM24 16.6667C24 18.3235 22.6569 19.6667 21 19.6667C19.3431 19.6667 18 18.3235 18 16.6667C18 15.0098 19.3431 13.6667 21 13.6667C22.6569 13.6667 24 15.0098 24 16.6667Z" fill="#747474"/>
<path d="M24.5 23.1667C24.5 22.2384 24.131 21.3484 23.4746 20.692C22.8593 20.0768 22.0388 19.7135 21.1738 19.6706L21 19.6667C20.0717 19.6667 19.1818 20.0357 18.5254 20.692C17.869 21.3484 17.5 22.2384 17.5 23.1667C17.5 23.4428 17.2761 23.6667 17 23.6667C16.7239 23.6667 16.5 23.4428 16.5 23.1667C16.5 21.9732 16.9744 20.8289 17.8184 19.985C18.6623 19.1411 19.8065 18.6667 21 18.6667C22.1935 18.6667 23.3377 19.1411 24.1816 19.985C25.0256 20.8289 25.5 21.9732 25.5 23.1667C25.5 23.4428 25.2761 23.6667 25 23.6667C24.7239 23.6667 24.5 23.4428 24.5 23.1667Z" fill="#747474"/>
<path d="M35 18.6667C35 17.2859 35.4672 16.1667 36.0435 16.1667H81.9565C82.5328 16.1667 83 17.2859 83 18.6667C83 20.0474 82.5328 21.1667 81.9565 21.1667H36.0435C35.4672 21.1667 35 20.0474 35 18.6667Z" fill="#E4E4E4"/>
<path d="M189.879 22.4664C189.59 22.4664 189.325 22.3954 189.083 22.2533C188.842 22.1089 188.65 21.9171 188.508 21.678C188.366 21.4365 188.295 21.1714 188.295 20.8826C188.295 20.5914 188.366 20.3262 188.508 20.0871C188.65 19.8456 188.842 19.6527 189.083 19.5083C189.325 19.3639 189.59 19.2917 189.879 19.2917H190.66V18.0346H189.879C189.59 18.0346 189.325 17.9635 189.083 17.8215C188.842 17.6794 188.65 17.4889 188.508 17.2498C188.366 17.0083 188.295 16.7419 188.295 16.4508C188.295 16.1596 188.366 15.8944 188.508 15.6553C188.65 15.4162 188.842 15.2256 189.083 15.0836C189.325 14.9391 189.59 14.8669 189.879 14.8669C190.17 14.8669 190.435 14.9391 190.674 15.0836C190.916 15.2256 191.107 15.4162 191.249 15.6553C191.394 15.8944 191.466 16.1596 191.466 16.4508V17.2249H192.727V16.4508C192.727 16.1596 192.798 15.8944 192.94 15.6553C193.082 15.4162 193.272 15.2256 193.512 15.0836C193.753 14.9391 194.019 14.8669 194.311 14.8669C194.602 14.8669 194.867 14.9391 195.106 15.0836C195.345 15.2256 195.536 15.4162 195.678 15.6553C195.82 15.8944 195.891 16.1596 195.891 16.4508C195.891 16.7419 195.82 17.0083 195.678 17.2498C195.536 17.4889 195.345 17.6794 195.106 17.8215C194.867 17.9635 194.602 18.0346 194.311 18.0346H193.533V19.2917H194.311C194.602 19.2917 194.867 19.3639 195.106 19.5083C195.345 19.6527 195.536 19.8456 195.678 20.0871C195.82 20.3262 195.891 20.5914 195.891 20.8826C195.891 21.1714 195.82 21.4365 195.678 21.678C195.536 21.9171 195.345 22.1089 195.106 22.2533C194.867 22.3954 194.602 22.4664 194.311 22.4664C194.019 22.4664 193.753 22.3954 193.512 22.2533C193.272 22.1089 193.082 21.9171 192.94 21.678C192.798 21.4365 192.727 21.1714 192.727 20.8826V20.1013H191.466V20.8826C191.466 21.1714 191.394 21.4365 191.249 21.678C191.107 21.9171 190.916 22.1089 190.674 22.2533C190.435 22.3954 190.17 22.4664 189.879 22.4664ZM189.879 21.6567C190.023 21.6567 190.153 21.6224 190.269 21.5537C190.388 21.4851 190.482 21.3916 190.553 21.2732C190.624 21.1548 190.66 21.0246 190.66 20.8826V20.1013H189.879C189.737 20.1013 189.606 20.1368 189.488 20.2079C189.37 20.2765 189.275 20.37 189.204 20.4884C189.135 20.6068 189.101 20.7382 189.101 20.8826C189.101 21.0246 189.135 21.1548 189.204 21.2732C189.275 21.3916 189.37 21.4851 189.488 21.5537C189.606 21.6224 189.737 21.6567 189.879 21.6567ZM189.879 17.2249H190.66V16.4508C190.66 16.3063 190.624 16.1761 190.553 16.0601C190.482 15.9418 190.388 15.8482 190.269 15.7796C190.153 15.7109 190.023 15.6766 189.879 15.6766C189.737 15.6766 189.606 15.7109 189.488 15.7796C189.37 15.8482 189.275 15.9418 189.204 16.0601C189.135 16.1761 189.101 16.3063 189.101 16.4508C189.101 16.5952 189.135 16.7266 189.204 16.8449C189.275 16.9609 189.37 17.0533 189.488 17.1219C189.606 17.1906 189.737 17.2249 189.879 17.2249ZM193.533 17.2249H194.311C194.455 17.2249 194.585 17.1906 194.701 17.1219C194.817 17.0533 194.91 16.9609 194.978 16.8449C195.049 16.7266 195.085 16.5952 195.085 16.4508C195.085 16.3063 195.049 16.1761 194.978 16.0601C194.91 15.9418 194.817 15.8482 194.701 15.7796C194.585 15.7109 194.455 15.6766 194.311 15.6766C194.166 15.6766 194.035 15.7109 193.916 15.7796C193.798 15.8482 193.704 15.9418 193.636 16.0601C193.567 16.1761 193.533 16.3063 193.533 16.4508V17.2249ZM194.311 21.6567C194.455 21.6567 194.585 21.6224 194.701 21.5537C194.817 21.4851 194.91 21.3916 194.978 21.2732C195.049 21.1548 195.085 21.0246 195.085 20.8826C195.085 20.7382 195.049 20.6068 194.978 20.4884C194.91 20.37 194.817 20.2765 194.701 20.2079C194.585 20.1368 194.455 20.1013 194.311 20.1013H193.533V20.8826C193.533 21.0246 193.567 21.1548 193.636 21.2732C193.704 21.3916 193.798 21.4851 193.916 21.5537C194.035 21.6224 194.166 21.6567 194.311 21.6567ZM191.466 19.2917H192.727V18.0346H191.466V19.2917Z" fill="#A4A4A4"/>
<path d="M197.891 22.303V15.0303H200.483C201.049 15.0303 201.518 15.1333 201.889 15.3393C202.261 15.5452 202.539 15.8269 202.724 16.1844C202.908 16.5395 203.001 16.9396 203.001 17.3847C203.001 17.8322 202.907 18.2346 202.72 18.5921C202.536 18.9472 202.256 19.2289 201.882 19.4373C201.51 19.6432 201.043 19.7462 200.479 19.7462H198.697V18.8158H200.38C200.737 18.8158 201.027 18.7543 201.25 18.6312C201.473 18.5057 201.636 18.3352 201.74 18.1198C201.844 17.9044 201.896 17.6593 201.896 17.3847C201.896 17.1101 201.844 16.8662 201.74 16.6532C201.636 16.4401 201.471 16.2732 201.246 16.1525C201.024 16.0317 200.73 15.9714 200.366 15.9714H198.988V22.303H197.891Z" fill="#A4A4A4"/>
<mask id="path-9-inside-2_419_10053" fill="white">
<path d="M3 35.3333H215V68.6667H3V35.3333Z"/>
</mask>
<path d="M215 68.6667V68.1667H3V68.6667V69.1667H215V68.6667Z" fill="#D4D4D4" mask="url(#path-9-inside-2_419_10053)"/>
<path d="M25.5 49.5C25.5 49.2239 25.2761 49 25 49H17C16.7239 49 16.5 49.2239 16.5 49.5V54.5C16.5 54.7761 16.7239 55 17 55H25C25.2761 55 25.5 54.7761 25.5 54.5V49.5ZM26.5 54.5C26.5 55.3284 25.8284 56 25 56H17C16.1716 56 15.5 55.3284 15.5 54.5V49.5C15.5 48.6716 16.1716 48 17 48H25C25.8284 48 26.5 48.6716 26.5 49.5V54.5Z" fill="#747474"/>
<path d="M26 50.5C26.2761 50.5 26.5 50.7239 26.5 51C26.5 51.2761 26.2761 51.5 26 51.5H16C15.7239 51.5 15.5 51.2761 15.5 51C15.5 50.7239 15.7239 50.5 16 50.5H26Z" fill="#747474"/>
<path d="M35 52C35 50.6193 35.4672 49.5 36.0435 49.5H81.9565C82.5328 49.5 83 50.6193 83 52C83 53.3807 82.5328 54.5 81.9565 54.5H36.0435C35.4672 54.5 35 53.3807 35 52Z" fill="#E4E4E4"/>
<path d="M189.746 55.7997C189.457 55.7997 189.192 55.7287 188.95 55.5867C188.709 55.4422 188.517 55.2505 188.375 55.0114C188.233 54.7699 188.162 54.5047 188.162 54.2159C188.162 53.9247 188.233 53.6596 188.375 53.4205C188.517 53.179 188.709 52.986 188.95 52.8416C189.192 52.6972 189.457 52.625 189.746 52.625H190.527V51.3679H189.746C189.457 51.3679 189.192 51.2969 188.95 51.1548C188.709 51.0128 188.517 50.8222 188.375 50.5831C188.233 50.3416 188.162 50.0753 188.162 49.7841C188.162 49.4929 188.233 49.2277 188.375 48.9886C188.517 48.7495 188.709 48.559 188.95 48.4169C189.192 48.2725 189.457 48.2003 189.746 48.2003C190.037 48.2003 190.302 48.2725 190.541 48.4169C190.783 48.559 190.975 48.7495 191.117 48.9886C191.261 49.2277 191.333 49.4929 191.333 49.7841V50.5582H192.594V49.7841C192.594 49.4929 192.665 49.2277 192.807 48.9886C192.949 48.7495 193.14 48.559 193.379 48.4169C193.62 48.2725 193.887 48.2003 194.178 48.2003C194.469 48.2003 194.734 48.2725 194.973 48.4169C195.212 48.559 195.403 48.7495 195.545 48.9886C195.687 49.2277 195.758 49.4929 195.758 49.7841C195.758 50.0753 195.687 50.3416 195.545 50.5831C195.403 50.8222 195.212 51.0128 194.973 51.1548C194.734 51.2969 194.469 51.3679 194.178 51.3679H193.4V52.625H194.178C194.469 52.625 194.734 52.6972 194.973 52.8416C195.212 52.986 195.403 53.179 195.545 53.4205C195.687 53.6596 195.758 53.9247 195.758 54.2159C195.758 54.5047 195.687 54.7699 195.545 55.0114C195.403 55.2505 195.212 55.4422 194.973 55.5867C194.734 55.7287 194.469 55.7997 194.178 55.7997C193.887 55.7997 193.62 55.7287 193.379 55.5867C193.14 55.4422 192.949 55.2505 192.807 55.0114C192.665 54.7699 192.594 54.5047 192.594 54.2159V53.4347H191.333V54.2159C191.333 54.5047 191.261 54.7699 191.117 55.0114C190.975 55.2505 190.783 55.4422 190.541 55.5867C190.302 55.7287 190.037 55.7997 189.746 55.7997ZM189.746 54.9901C189.89 54.9901 190.021 54.9557 190.137 54.8871C190.255 54.8184 190.35 54.7249 190.421 54.6065C190.492 54.4882 190.527 54.358 190.527 54.2159V53.4347H189.746C189.604 53.4347 189.474 53.4702 189.355 53.5412C189.237 53.6099 189.142 53.7034 189.071 53.8217C189.003 53.9401 188.968 54.0715 188.968 54.2159C188.968 54.358 189.003 54.4882 189.071 54.6065C189.142 54.7249 189.237 54.8184 189.355 54.8871C189.474 54.9557 189.604 54.9901 189.746 54.9901ZM189.746 50.5582H190.527V49.7841C190.527 49.6397 190.492 49.5095 190.421 49.3935C190.35 49.2751 190.255 49.1816 190.137 49.1129C190.021 49.0443 189.89 49.0099 189.746 49.0099C189.604 49.0099 189.474 49.0443 189.355 49.1129C189.237 49.1816 189.142 49.2751 189.071 49.3935C189.003 49.5095 188.968 49.6397 188.968 49.7841C188.968 49.9285 189.003 50.0599 189.071 50.1783C189.142 50.2943 189.237 50.3866 189.355 50.4553C189.474 50.5239 189.604 50.5582 189.746 50.5582ZM193.4 50.5582H194.178C194.322 50.5582 194.452 50.5239 194.568 50.4553C194.684 50.3866 194.777 50.2943 194.845 50.1783C194.916 50.0599 194.952 49.9285 194.952 49.7841C194.952 49.6397 194.916 49.5095 194.845 49.3935C194.777 49.2751 194.684 49.1816 194.568 49.1129C194.452 49.0443 194.322 49.0099 194.178 49.0099C194.033 49.0099 193.902 49.0443 193.784 49.1129C193.665 49.1816 193.572 49.2751 193.503 49.3935C193.434 49.5095 193.4 49.6397 193.4 49.7841V50.5582ZM194.178 54.9901C194.322 54.9901 194.452 54.9557 194.568 54.8871C194.684 54.8184 194.777 54.7249 194.845 54.6065C194.916 54.4882 194.952 54.358 194.952 54.2159C194.952 54.0715 194.916 53.9401 194.845 53.8217C194.777 53.7034 194.684 53.6099 194.568 53.5412C194.452 53.4702 194.322 53.4347 194.178 53.4347H193.4V54.2159C193.4 54.358 193.434 54.4882 193.503 54.6065C193.572 54.7249 193.665 54.8184 193.784 54.8871C193.902 54.9557 194.033 54.9901 194.178 54.9901ZM191.333 52.625H192.594V51.3679H191.333V52.625Z" fill="#A4A4A4"/>
<path d="M197.758 55.6364V48.3636H200.421C200.937 48.3636 201.365 48.4489 201.703 48.6193C202.042 48.7874 202.295 49.0159 202.463 49.3047C202.631 49.5912 202.715 49.9143 202.715 50.2742C202.715 50.5772 202.66 50.8329 202.548 51.0412C202.437 51.2472 202.288 51.4129 202.101 51.5384C201.916 51.6615 201.713 51.7514 201.49 51.8082V51.8793C201.732 51.8911 201.967 51.9692 202.197 52.1136C202.429 52.2557 202.621 52.4581 202.772 52.7209C202.924 52.9837 202.999 53.3033 202.999 53.6797C202.999 54.0514 202.912 54.3852 202.737 54.6811C202.564 54.9747 202.296 55.2079 201.934 55.3807C201.572 55.5511 201.109 55.6364 200.545 55.6364H197.758ZM198.855 54.6953H200.439C200.964 54.6953 201.341 54.5935 201.568 54.3899C201.795 54.1863 201.909 53.9318 201.909 53.6264C201.909 53.3968 201.851 53.1861 201.735 52.9943C201.619 52.8026 201.453 52.6499 201.238 52.5362C201.025 52.4226 200.772 52.3658 200.478 52.3658H198.855V54.6953ZM198.855 51.51H200.325C200.571 51.51 200.793 51.4626 200.989 51.3679C201.188 51.2732 201.346 51.1406 201.462 50.9702C201.58 50.7974 201.639 50.5938 201.639 50.3594C201.639 50.0587 201.534 49.8066 201.323 49.603C201.112 49.3994 200.789 49.2976 200.354 49.2976H198.855V51.51Z" fill="#A4A4A4"/>
<g clip-path="url(#clip0_419_10053)">
<path d="M21.6113 81.3333C21.6113 81.2008 21.5585 81.0736 21.4648 80.9798C21.3711 80.8861 21.2438 80.8334 21.1113 80.8333H20.8906C20.7581 80.8334 20.6308 80.8861 20.5371 80.9798C20.4434 81.0736 20.3906 81.2008 20.3906 81.3333V81.4242C20.3903 81.6871 20.321 81.9455 20.1894 82.1732C20.058 82.4005 19.8688 82.5886 19.6416 82.7201L19.4277 82.846H19.4258C19.1977 82.9777 18.9391 83.0472 18.6758 83.0472C18.4178 83.0472 18.165 82.9794 17.9404 82.8529V82.8548L17.8652 82.8148C17.8604 82.8122 17.8562 82.8087 17.8515 82.806C17.7368 82.7398 17.5996 82.722 17.4717 82.7562C17.344 82.7904 17.2353 82.8743 17.1689 82.9886L17.0595 83.1781C16.9934 83.2927 16.9747 83.4291 17.0088 83.557C17.0344 83.653 17.0886 83.7384 17.1621 83.8031L17.2412 83.8607L17.2685 83.8773L17.3437 83.9271L17.3427 83.9281C17.5571 84.058 17.7361 84.2385 17.8623 84.4554C17.9939 84.6817 18.0648 84.9388 18.0664 85.2005V85.4564L18.0537 85.6537C18.0286 85.8488 17.9649 86.0376 17.8662 86.2093C17.7358 86.4362 17.548 86.6242 17.3222 86.7562L17.248 86.8021L17.2412 86.806C17.1267 86.8724 17.043 86.9819 17.0088 87.1097C16.9747 87.2376 16.9934 87.374 17.0595 87.4886L17.1689 87.6781C17.2353 87.7924 17.344 87.8763 17.4717 87.9105C17.5996 87.9447 17.7368 87.9269 17.8515 87.8607L17.8652 87.8519L17.9404 87.8119V87.8128C18.1649 87.6864 18.4179 87.6195 18.6758 87.6195C18.9391 87.6195 19.1977 87.689 19.4258 87.8206H19.4277L19.6426 87.9456H19.6416C19.869 88.0771 20.0579 88.2661 20.1894 88.4935C20.321 88.7211 20.3903 88.9796 20.3906 89.2425V89.3333C20.3906 89.4659 20.4434 89.5931 20.5371 89.6869C20.6308 89.7805 20.7581 89.8333 20.8906 89.8333H21.1113C21.2438 89.8333 21.3711 89.7805 21.4648 89.6869C21.5585 89.5931 21.6113 89.4659 21.6113 89.3333V89.2425C21.6116 88.9796 21.6809 88.7211 21.8125 88.4935C21.9439 88.2663 22.1322 88.0771 22.3594 87.9456L22.5742 87.8206H22.5761C22.8042 87.689 23.0628 87.6195 23.3261 87.6195C23.5837 87.6195 23.8362 87.6867 24.0605 87.8128L24.0615 87.8119L24.1367 87.8519L24.1504 87.8607C24.2651 87.9269 24.4023 87.9447 24.5302 87.9105C24.6579 87.8763 24.7666 87.7924 24.833 87.6781L24.9404 87.4876L24.9424 87.4837H24.9433C25.0094 87.3691 25.0272 87.2327 24.9931 87.1048C24.9594 86.9788 24.8775 86.8707 24.7656 86.804L24.7002 86.7699C24.6953 86.7673 24.6903 86.7638 24.6855 86.7611C24.4568 86.6289 24.2673 86.4383 24.1357 86.2093C24.0041 85.9802 23.9345 85.7206 23.9355 85.4564V85.2083C23.9348 84.9448 24.0044 84.6859 24.1357 84.4574C24.266 84.2306 24.453 84.0415 24.6787 83.9095L24.7539 83.8646L24.7607 83.8607C24.8752 83.7943 24.959 83.6848 24.9931 83.557C25.0272 83.4294 25.0091 83.2935 24.9433 83.179L24.833 82.9886C24.7666 82.8743 24.6579 82.7904 24.5302 82.7562C24.4023 82.722 24.2651 82.7398 24.1504 82.806C24.1457 82.8087 24.1415 82.8122 24.1367 82.8148L24.0615 82.8548L24.0605 82.8529C23.8361 82.9791 23.5838 83.0472 23.3261 83.0472C23.0628 83.0472 22.8042 82.9777 22.5761 82.846H22.5742L22.3594 82.721V82.7201C22.1324 82.5886 21.9438 82.4002 21.8125 82.1732C21.6809 81.9455 21.6116 81.6871 21.6113 81.4242V81.3333ZM22.6113 81.4232L22.6152 81.4886C22.6238 81.5531 22.645 81.6155 22.6777 81.6722C22.7216 81.7481 22.7854 81.812 22.8613 81.8558H22.8623L23.0771 81.9808H23.0761C23.1521 82.0246 23.2385 82.0472 23.3261 82.0472C23.4138 82.0472 23.5002 82.0246 23.5761 81.9808L23.5908 81.972L23.666 81.932C24.0071 81.7403 24.4097 81.6892 24.7881 81.7904C25.1718 81.893 25.499 82.1439 25.6982 82.4876L25.8086 82.6781H25.8095C26.0081 83.0223 26.0616 83.4319 25.959 83.8158C25.8569 84.1971 25.6079 84.5216 25.2676 84.721L25.2685 84.722L25.1933 84.7669L25.1855 84.7718C25.1095 84.8158 25.0467 84.8792 25.0029 84.9554C24.959 85.0318 24.9352 85.1183 24.9355 85.2064V85.4603C24.9352 85.5484 24.959 85.6349 25.0029 85.7113C25.0465 85.7871 25.109 85.8499 25.1845 85.8939L25.2461 85.9271C25.2512 85.9298 25.2566 85.933 25.2617 85.9359C25.6054 86.135 25.8563 86.4623 25.959 86.846C26.0616 87.2297 26.0078 87.6387 25.8095 87.9828L25.7011 88.1742L25.6982 88.179C25.499 88.5228 25.1718 88.7737 24.7881 88.8763C24.4095 88.9775 24.0071 88.9256 23.666 88.7337V88.7347L23.5908 88.6947C23.5858 88.692 23.581 88.6887 23.5761 88.6859C23.5002 88.6421 23.4138 88.6195 23.3261 88.6195C23.2387 88.6195 23.152 88.6413 23.0761 88.6849L23.0771 88.6859L22.8623 88.8109H22.8613C22.7854 88.8547 22.7216 88.9186 22.6777 88.9945C22.634 89.0702 22.6115 89.1561 22.6113 89.2435V89.3333C22.6113 89.7311 22.453 90.1126 22.1719 90.3939C21.8906 90.6751 21.509 90.8333 21.1113 90.8333H20.8906C20.4929 90.8333 20.1113 90.6751 19.8301 90.3939C19.5489 90.1126 19.3906 89.7311 19.3906 89.3333V89.2435C19.3904 89.1561 19.3679 89.0702 19.3242 88.9945C19.2803 88.9186 19.2165 88.8547 19.1406 88.8109H19.1396L18.9248 88.6859V88.6849C18.8491 88.6416 18.7629 88.6195 18.6758 88.6195C18.5881 88.6195 18.5017 88.6421 18.4258 88.6859C18.4209 88.6887 18.4161 88.692 18.4111 88.6947L18.3359 88.7347L18.3349 88.7337C17.9939 88.9252 17.5921 88.9774 17.2138 88.8763C16.8301 88.7737 16.5029 88.5228 16.3037 88.179L16.1933 87.9886H16.1924L16.1933 87.9876C15.9949 87.6435 15.9403 87.2347 16.0429 86.8509C16.1449 86.4697 16.3932 86.1442 16.7334 85.9447L16.8086 85.8997L16.8164 85.8949C16.8924 85.8508 16.9552 85.7875 16.999 85.7113C17.0429 85.6349 17.0667 85.5484 17.0664 85.4603V85.2064L17.0615 85.141C17.0526 85.0767 17.0308 85.0148 16.998 84.9583C16.9543 84.8831 16.8917 84.8203 16.8164 84.7767C16.8071 84.7714 16.7979 84.765 16.789 84.7591L16.7138 84.7093V84.7083C16.3841 84.5079 16.1429 84.1893 16.0429 83.8158C15.9403 83.4319 15.9948 83.0223 16.1933 82.6781L16.3037 82.4876C16.5029 82.1439 16.8301 81.893 17.2138 81.7904C17.5919 81.6893 17.994 81.7407 18.3349 81.932H18.3359L18.4111 81.972C18.4161 81.9747 18.4209 81.978 18.4258 81.9808C18.5017 82.0246 18.5881 82.0472 18.6758 82.0472C18.7631 82.0472 18.849 82.0243 18.9248 81.9808L19.1396 81.8558H19.1406C19.2165 81.812 19.2803 81.7481 19.3242 81.6722C19.3569 81.6155 19.3781 81.5531 19.3867 81.4886L19.3906 81.4232V81.3333C19.3906 80.9356 19.5489 80.5541 19.8301 80.2728C20.1113 79.9916 20.4929 79.8334 20.8906 79.8333H21.1113C21.509 79.8334 21.8906 79.9916 22.1719 80.2728C22.453 80.5541 22.6113 80.9356 22.6113 81.3333V81.4232Z" fill="#747474"/>
<path d="M22 85.3333C22 84.7811 21.5523 84.3333 21 84.3333C20.4477 84.3333 20 84.7811 20 85.3333C20 85.8856 20.4477 86.3333 21 86.3333C21.5523 86.3333 22 85.8856 22 85.3333ZM23 85.3333C23 86.4379 22.1046 87.3333 21 87.3333C19.8954 87.3333 19 86.4379 19 85.3333C19 84.2288 19.8954 83.3333 21 83.3333C22.1046 83.3333 23 84.2288 23 85.3333Z" fill="#747474"/>
</g>
<path d="M35 85.3333C35 83.9526 35.4672 82.8333 36.0435 82.8333H81.9565C82.5328 82.8333 83 83.9526 83 85.3333C83 86.7141 82.5328 87.8333 81.9565 87.8333H36.0435C35.4672 87.8333 35 86.7141 35 85.3333Z" fill="#E4E4E4"/>
<path d="M189.576 89.1331C189.287 89.1331 189.022 89.062 188.781 88.92C188.539 88.7756 188.347 88.5838 188.205 88.3447C188.063 88.1032 187.992 87.8381 187.992 87.5493C187.992 87.2581 188.063 86.9929 188.205 86.7538C188.347 86.5123 188.539 86.3194 188.781 86.175C189.022 86.0306 189.287 85.9583 189.576 85.9583H190.357V84.7012H189.576C189.287 84.7012 189.022 84.6302 188.781 84.4882C188.539 84.3461 188.347 84.1556 188.205 83.9164C188.063 83.675 187.992 83.4086 187.992 83.1174C187.992 82.8262 188.063 82.5611 188.205 82.322C188.347 82.0829 188.539 81.8923 188.781 81.7502C189.022 81.6058 189.287 81.5336 189.576 81.5336C189.867 81.5336 190.132 81.6058 190.371 81.7502C190.613 81.8923 190.805 82.0829 190.947 82.322C191.091 82.5611 191.163 82.8262 191.163 83.1174V83.8916H192.424V83.1174C192.424 82.8262 192.495 82.5611 192.637 82.322C192.779 82.0829 192.97 81.8923 193.209 81.7502C193.45 81.6058 193.717 81.5336 194.008 81.5336C194.299 81.5336 194.564 81.6058 194.803 81.7502C195.042 81.8923 195.233 82.0829 195.375 82.322C195.517 82.5611 195.588 82.8262 195.588 83.1174C195.588 83.4086 195.517 83.675 195.375 83.9164C195.233 84.1556 195.042 84.3461 194.803 84.4882C194.564 84.6302 194.299 84.7012 194.008 84.7012H193.23V85.9583H194.008C194.299 85.9583 194.564 86.0306 194.803 86.175C195.042 86.3194 195.233 86.5123 195.375 86.7538C195.517 86.9929 195.588 87.2581 195.588 87.5493C195.588 87.8381 195.517 88.1032 195.375 88.3447C195.233 88.5838 195.042 88.7756 194.803 88.92C194.564 89.062 194.299 89.1331 194.008 89.1331C193.717 89.1331 193.45 89.062 193.209 88.92C192.97 88.7756 192.779 88.5838 192.637 88.3447C192.495 88.1032 192.424 87.8381 192.424 87.5493V86.768H191.163V87.5493C191.163 87.8381 191.091 88.1032 190.947 88.3447C190.805 88.5838 190.613 88.7756 190.371 88.92C190.132 89.062 189.867 89.1331 189.576 89.1331ZM189.576 88.3234C189.72 88.3234 189.851 88.2891 189.967 88.2204C190.085 88.1518 190.18 88.0583 190.251 87.9399C190.322 87.8215 190.357 87.6913 190.357 87.5493V86.768H189.576C189.434 86.768 189.304 86.8035 189.185 86.8745C189.067 86.9432 188.972 87.0367 188.901 87.1551C188.833 87.2735 188.798 87.4048 188.798 87.5493C188.798 87.6913 188.833 87.8215 188.901 87.9399C188.972 88.0583 189.067 88.1518 189.185 88.2204C189.304 88.2891 189.434 88.3234 189.576 88.3234ZM189.576 83.8916H190.357V83.1174C190.357 82.973 190.322 82.8428 190.251 82.7268C190.18 82.6084 190.085 82.5149 189.967 82.4463C189.851 82.3776 189.72 82.3433 189.576 82.3433C189.434 82.3433 189.304 82.3776 189.185 82.4463C189.067 82.5149 188.972 82.6084 188.901 82.7268C188.833 82.8428 188.798 82.973 188.798 83.1174C188.798 83.2619 188.833 83.3932 188.901 83.5116C188.972 83.6276 189.067 83.7199 189.185 83.7886C189.304 83.8573 189.434 83.8916 189.576 83.8916ZM193.23 83.8916H194.008C194.152 83.8916 194.282 83.8573 194.398 83.7886C194.514 83.7199 194.607 83.6276 194.675 83.5116C194.746 83.3932 194.782 83.2619 194.782 83.1174C194.782 82.973 194.746 82.8428 194.675 82.7268C194.607 82.6084 194.514 82.5149 194.398 82.4463C194.282 82.3776 194.152 82.3433 194.008 82.3433C193.863 82.3433 193.732 82.3776 193.614 82.4463C193.495 82.5149 193.402 82.6084 193.333 82.7268C193.264 82.8428 193.23 82.973 193.23 83.1174V83.8916ZM194.008 88.3234C194.152 88.3234 194.282 88.2891 194.398 88.2204C194.514 88.1518 194.607 88.0583 194.675 87.9399C194.746 87.8215 194.782 87.6913 194.782 87.5493C194.782 87.4048 194.746 87.2735 194.675 87.1551C194.607 87.0367 194.514 86.9432 194.398 86.8745C194.282 86.8035 194.152 86.768 194.008 86.768H193.23V87.5493C193.23 87.6913 193.264 87.8215 193.333 87.9399C193.402 88.0583 193.495 88.1518 193.614 88.2204C193.732 88.2891 193.863 88.3234 194.008 88.3234ZM191.163 85.9583H192.424V84.7012H191.163V85.9583Z" fill="#A4A4A4"/>
<path d="M201.842 83.5968C201.804 83.2607 201.648 83.0002 201.373 82.8156C201.099 82.6286 200.753 82.535 200.336 82.535C200.038 82.535 199.78 82.5824 199.562 82.6771C199.345 82.7694 199.175 82.8973 199.055 83.0606C198.936 83.2216 198.877 83.4051 198.877 83.611C198.877 83.7839 198.917 83.933 198.998 84.0585C199.081 84.1839 199.188 84.2893 199.321 84.3745C199.456 84.4574 199.6 84.5272 199.754 84.584C199.908 84.6385 200.056 84.6835 200.198 84.719L200.908 84.9036C201.14 84.9605 201.378 85.0374 201.622 85.1345C201.866 85.2315 202.092 85.3594 202.3 85.518C202.509 85.6766 202.677 85.8731 202.805 86.1075C202.935 86.3419 203 86.6224 203 86.9491C203 87.361 202.893 87.7268 202.68 88.0464C202.47 88.366 202.163 88.6181 201.76 88.8028C201.36 88.9875 200.876 89.0798 200.308 89.0798C199.764 89.0798 199.292 88.9934 198.895 88.8205C198.497 88.6477 198.186 88.4027 197.961 88.0855C197.736 87.7659 197.612 87.3871 197.588 86.9491H198.689C198.71 87.2119 198.795 87.4309 198.944 87.6061C199.096 87.7789 199.289 87.9079 199.523 87.9931C199.76 88.076 200.019 88.1174 200.301 88.1174C200.611 88.1174 200.887 88.0689 201.128 87.9718C201.372 87.8724 201.564 87.7351 201.704 87.5599C201.843 87.3823 201.913 87.1752 201.913 86.9384C201.913 86.723 201.852 86.5466 201.729 86.4093C201.608 86.272 201.443 86.1584 201.235 86.0684C201.029 85.9785 200.796 85.8991 200.535 85.8305L199.676 85.5961C199.094 85.4375 198.632 85.2043 198.291 84.8965C197.952 84.5888 197.783 84.1816 197.783 83.675C197.783 83.2559 197.897 82.8902 198.124 82.5777C198.351 82.2652 198.659 82.0225 199.047 81.8497C199.436 81.6745 199.874 81.5869 200.361 81.5869C200.854 81.5869 201.288 81.6733 201.665 81.8461C202.043 82.0189 202.342 82.2569 202.559 82.5599C202.777 82.8606 202.891 83.2062 202.9 83.5968H201.842Z" fill="#A4A4A4"/>
</g>
<defs>
<filter id="filter0_d_419_10053" x="0" y="0" width="218" height="106" filterUnits="userSpaceOnUse" color-interpolation-filters="sRGB">
<feFlood flood-opacity="0" result="BackgroundImageFix"/>
<feColorMatrix in="SourceAlpha" type="matrix" values="0 0 0 0 0 0 0 0 0 0 0 0 0 0 0 0 0 0 127 0" result="hardAlpha"/>
<feOffset dy="1"/>
<feGaussianBlur stdDeviation="1.5"/>
<feComposite in2="hardAlpha" operator="out"/>
<feColorMatrix type="matrix" values="0 0 0 0 0 0 0 0 0 0 0 0 0 0 0 0 0 0 0.05 0"/>
<feBlend mode="normal" in2="BackgroundImageFix" result="effect1_dropShadow_419_10053"/>
<feBlend mode="normal" in="SourceGraphic" in2="effect1_dropShadow_419_10053" result="shape"/>
</filter>
<clipPath id="clip0_419_10053">
<rect width="12" height="12" fill="white" transform="translate(15 79.3333)"/>
</clipPath>
</defs>
</svg>
