<svg width="208" height="145" viewBox="0 0 208 145" fill="none" xmlns="http://www.w3.org/2000/svg">
<rect x="0.5" y="0.5" width="179" height="99" rx="11.5" stroke="#E4E4E4" stroke-dasharray="2 2"/>
<g filter="url(#filter0_d_443_9442)">
<path d="M21.9231 26.0296C22.0985 26.4505 21.9299 28.0447 21 28.4142C20.0701 28.7837 18.882 28.4142 18.882 28.4142L16.726 24.1024L13 27.8284V11L24.4142 22.4142H20.1615C20.3702 22.8144 21.7003 25.4948 21.9231 26.0296Z" fill="white"/>
<path fill-rule="evenodd" clip-rule="evenodd" d="M14 13.4142V25.4142L17 22.4142L19.5 27.4142C19.5 27.4142 20.1763 27.63 20.5 27.4142C20.8237 27.1984 21.1457 26.7638 21 26.4142C20.3123 24.7638 18.5 21.4142 18.5 21.4142H22L14 13.4142Z" fill="black"/>
</g>
<g filter="url(#filter1_d_443_9442)">
<rect x="25" y="21" width="180" height="120" rx="12" fill="#FCFCFC" shape-rendering="crispEdges"/>
<mask id="path-5-inside-1_443_9442" fill="white">
<path d="M25 21H205V45H25V21Z"/>
</mask>
<path d="M205 45V44.5H25V45V45.5H205V45Z" fill="#D4D4D4" mask="url(#path-5-inside-1_443_9442)"/>
<path d="M37 30C37 28.3431 38.3431 27 40 27H46C47.6569 27 49 28.3431 49 30V36C49 37.6569 47.6569 39 46 39H40C38.3431 39 37 37.6569 37 36V30Z" fill="#D4D4D4"/>
<path d="M57 33C57 31.6193 57.6229 30.5 58.3913 30.5H119.609C120.377 30.5 121 31.6193 121 33C121 34.3807 120.377 35.5 119.609 35.5H58.3913C57.6229 35.5 57 34.3807 57 33Z" fill="#D4D4D4"/>
<mask id="path-9-inside-2_443_9442" fill="white">
<path d="M25 45H205V69H25V45Z"/>
</mask>
<path d="M205 69V68.5H25V69V69.5H205V69Z" fill="#D4D4D4" mask="url(#path-9-inside-2_443_9442)"/>
<path d="M37 54C37 52.3431 38.3431 51 40 51H46C47.6569 51 49 52.3431 49 54V60C49 61.6569 47.6569 63 46 63H40C38.3431 63 37 61.6569 37 60V54Z" fill="#D4D4D4"/>
<path d="M57 57C57 55.6193 57.6229 54.5 58.3913 54.5H119.609C120.377 54.5 121 55.6193 121 57C121 58.3807 120.377 59.5 119.609 59.5H58.3913C57.6229 59.5 57 58.3807 57 57Z" fill="#D4D4D4"/>
<mask id="path-13-inside-3_443_9442" fill="white">
<path d="M25 69H205V93H25V69Z"/>
</mask>
<path d="M205 93V92.5H25V93V93.5H205V93Z" fill="#D4D4D4" mask="url(#path-13-inside-3_443_9442)"/>
<path d="M37 78C37 76.3431 38.3431 75 40 75H46C47.6569 75 49 76.3431 49 78V84C49 85.6569 47.6569 87 46 87H40C38.3431 87 37 85.6569 37 84V78Z" fill="#D4D4D4"/>
<path d="M57 81C57 79.6193 57.4672 78.5 58.0435 78.5H103.957C104.533 78.5 105 79.6193 105 81C105 82.3807 104.533 83.5 103.957 83.5H58.0435C57.4672 83.5 57 82.3807 57 81Z" fill="#D4D4D4"/>
<mask id="path-17-inside-4_443_9442" fill="white">
<path d="M25 93H205V117H25V93Z"/>
</mask>
<path d="M205 117V116.5H25V117V117.5H205V117Z" fill="#D4D4D4" mask="url(#path-17-inside-4_443_9442)"/>
<path d="M37 102C37 100.343 38.3431 99 40 99H46C47.6569 99 49 100.343 49 102V108C49 109.657 47.6569 111 46 111H40C38.3431 111 37 109.657 37 108V102Z" fill="#D4D4D4"/>
<path d="M57 105C57 103.619 57.7008 102.5 58.5652 102.5H127.435C128.299 102.5 129 103.619 129 105C129 106.381 128.299 107.5 127.435 107.5H58.5652C57.7008 107.5 57 106.381 57 105Z" fill="#D4D4D4"/>
<path d="M37 126C37 124.343 38.3431 123 40 123H46C47.6569 123 49 124.343 49 126V132C49 133.657 47.6569 135 46 135H40C38.3431 135 37 133.657 37 132V126Z" fill="#D4D4D4"/>
<path d="M57 129C57 127.619 57.4672 126.5 58.0435 126.5H103.957C104.533 126.5 105 127.619 105 129C105 130.381 104.533 131.5 103.957 131.5H58.0435C57.4672 131.5 57 130.381 57 129Z" fill="#D4D4D4"/>
</g>
<defs>
<filter id="filter0_d_443_9442" x="11.2" y="10.2" width="15.0141" height="21.1784" filterUnits="userSpaceOnUse" color-interpolation-filters="sRGB">
<feFlood flood-opacity="0" result="BackgroundImageFix"/>
<feColorMatrix in="SourceAlpha" type="matrix" values="0 0 0 0 0 0 0 0 0 0 0 0 0 0 0 0 0 0 127 0" result="hardAlpha"/>
<feOffset dy="1"/>
<feGaussianBlur stdDeviation="0.9"/>
<feColorMatrix type="matrix" values="0 0 0 0 0 0 0 0 0 0 0 0 0 0 0 0 0 0 0.65 0"/>
<feBlend mode="normal" in2="BackgroundImageFix" result="effect1_dropShadow_443_9442"/>
<feBlend mode="normal" in="SourceGraphic" in2="effect1_dropShadow_443_9442" result="shape"/>
</filter>
<filter id="filter1_d_443_9442" x="22" y="19" width="186" height="126" filterUnits="userSpaceOnUse" color-interpolation-filters="sRGB">
<feFlood flood-opacity="0" result="BackgroundImageFix"/>
<feColorMatrix in="SourceAlpha" type="matrix" values="0 0 0 0 0 0 0 0 0 0 0 0 0 0 0 0 0 0 127 0" result="hardAlpha"/>
<feOffset dy="1"/>
<feGaussianBlur stdDeviation="1.5"/>
<feComposite in2="hardAlpha" operator="out"/>
<feColorMatrix type="matrix" values="0 0 0 0 0 0 0 0 0 0 0 0 0 0 0 0 0 0 0.05 0"/>
<feBlend mode="normal" in2="BackgroundImageFix" result="effect1_dropShadow_443_9442"/>
<feBlend mode="normal" in="SourceGraphic" in2="effect1_dropShadow_443_9442" result="shape"/>
</filter>
</defs>
</svg>
