<svg width="218" height="126" viewBox="0 0 218 126" fill="none" xmlns="http://www.w3.org/2000/svg">
<g filter="url(#filter0_d_443_9443)">
<rect x="3" y="2" width="212" height="120" rx="12" fill="#FCFCFC" shape-rendering="crispEdges"/>
<mask id="path-2-inside-1_443_9443" fill="white">
<path d="M3 2H215V26H3V2Z"/>
</mask>
<path d="M215 26V25.5H3V26V26.5H215V26Z" fill="#D4D4D4" mask="url(#path-2-inside-1_443_9443)"/>
<path d="M15 14C15 12.6193 15.3699 11.5 15.8261 11.5H52.1739C52.6301 11.5 53 12.6193 53 14C53 15.3807 52.6301 16.5 52.1739 16.5H15.8261C15.3699 16.5 15 15.3807 15 14Z" fill="#A4A4A4"/>
<path d="M65 14C65 12.6193 65.3699 11.5 65.8261 11.5H102.174C102.63 11.5 103 12.6193 103 14C103 15.3807 102.63 16.5 102.174 16.5H65.8261C65.3699 16.5 65 15.3807 65 14Z" fill="#A4A4A4"/>
<path d="M115 14C115 12.6193 115.37 11.5 115.826 11.5H152.174C152.63 11.5 153 12.6193 153 14C153 15.3807 152.63 16.5 152.174 16.5H115.826C115.37 16.5 115 15.3807 115 14Z" fill="#A4A4A4"/>
<path d="M165 14C165 12.6193 165.37 11.5 165.826 11.5H202.174C202.63 11.5 203 12.6193 203 14C203 15.3807 202.63 16.5 202.174 16.5H165.826C165.37 16.5 165 15.3807 165 14Z" fill="#A4A4A4"/>
<mask id="path-8-inside-2_443_9443" fill="white">
<path d="M3 26H215V50H3V26Z"/>
</mask>
<path d="M215 50V49.5H3V50V50.5H215V50Z" fill="#D4D4D4" mask="url(#path-8-inside-2_443_9443)"/>
<path d="M15 38C15 36.6193 15.3699 35.5 15.8261 35.5H52.1739C52.6301 35.5 53 36.6193 53 38C53 39.3807 52.6301 40.5 52.1739 40.5H15.8261C15.3699 40.5 15 39.3807 15 38Z" fill="#E4E4E4"/>
<path d="M65 38C65 36.6193 65.3699 35.5 65.8261 35.5H102.174C102.63 35.5 103 36.6193 103 38C103 39.3807 102.63 40.5 102.174 40.5H65.8261C65.3699 40.5 65 39.3807 65 38Z" fill="#E4E4E4"/>
<path d="M115 38C115 36.6193 115.37 35.5 115.826 35.5H152.174C152.63 35.5 153 36.6193 153 38C153 39.3807 152.63 40.5 152.174 40.5H115.826C115.37 40.5 115 39.3807 115 38Z" fill="#E4E4E4"/>
<path d="M165 38C165 36.6193 165.37 35.5 165.826 35.5H202.174C202.63 35.5 203 36.6193 203 38C203 39.3807 202.63 40.5 202.174 40.5H165.826C165.37 40.5 165 39.3807 165 38Z" fill="#E4E4E4"/>
<mask id="path-14-inside-3_443_9443" fill="white">
<path d="M3 50H215V74H3V50Z"/>
</mask>
<path d="M215 74V73.5H3V74V74.5H215V74Z" fill="#D4D4D4" mask="url(#path-14-inside-3_443_9443)"/>
<path d="M15 62C15 60.6193 15.3699 59.5 15.8261 59.5H52.1739C52.6301 59.5 53 60.6193 53 62C53 63.3807 52.6301 64.5 52.1739 64.5H15.8261C15.3699 64.5 15 63.3807 15 62Z" fill="#E4E4E4"/>
<path d="M65 62C65 60.6193 65.3699 59.5 65.8261 59.5H102.174C102.63 59.5 103 60.6193 103 62C103 63.3807 102.63 64.5 102.174 64.5H65.8261C65.3699 64.5 65 63.3807 65 62Z" fill="#E4E4E4"/>
<path d="M115 62C115 60.6193 115.37 59.5 115.826 59.5H152.174C152.63 59.5 153 60.6193 153 62C153 63.3807 152.63 64.5 152.174 64.5H115.826C115.37 64.5 115 63.3807 115 62Z" fill="#E4E4E4"/>
<path d="M165 62C165 60.6193 165.37 59.5 165.826 59.5H202.174C202.63 59.5 203 60.6193 203 62C203 63.3807 202.63 64.5 202.174 64.5H165.826C165.37 64.5 165 63.3807 165 62Z" fill="#E4E4E4"/>
<mask id="path-20-inside-4_443_9443" fill="white">
<path d="M3 74H215V98H3V74Z"/>
</mask>
<path d="M215 98V97.5H3V98V98.5H215V98Z" fill="#D4D4D4" mask="url(#path-20-inside-4_443_9443)"/>
<path d="M15 86C15 84.6193 15.3699 83.5 15.8261 83.5H52.1739C52.6301 83.5 53 84.6193 53 86C53 87.3807 52.6301 88.5 52.1739 88.5H15.8261C15.3699 88.5 15 87.3807 15 86Z" fill="#E4E4E4"/>
<path d="M65 86C65 84.6193 65.3699 83.5 65.8261 83.5H102.174C102.63 83.5 103 84.6193 103 86C103 87.3807 102.63 88.5 102.174 88.5H65.8261C65.3699 88.5 65 87.3807 65 86Z" fill="#E4E4E4"/>
<path d="M115 86C115 84.6193 115.37 83.5 115.826 83.5H152.174C152.63 83.5 153 84.6193 153 86C153 87.3807 152.63 88.5 152.174 88.5H115.826C115.37 88.5 115 87.3807 115 86Z" fill="#E4E4E4"/>
<path d="M165 86C165 84.6193 165.37 83.5 165.826 83.5H202.174C202.63 83.5 203 84.6193 203 86C203 87.3807 202.63 88.5 202.174 88.5H165.826C165.37 88.5 165 87.3807 165 86Z" fill="#E4E4E4"/>
<path d="M15 110C15 108.619 15.3699 107.5 15.8261 107.5H52.1739C52.6301 107.5 53 108.619 53 110C53 111.381 52.6301 112.5 52.1739 112.5H15.8261C15.3699 112.5 15 111.381 15 110Z" fill="#E4E4E4"/>
<path d="M65 110C65 108.619 65.3699 107.5 65.8261 107.5H102.174C102.63 107.5 103 108.619 103 110C103 111.381 102.63 112.5 102.174 112.5H65.8261C65.3699 112.5 65 111.381 65 110Z" fill="#E4E4E4"/>
<path d="M115 110C115 108.619 115.37 107.5 115.826 107.5H152.174C152.63 107.5 153 108.619 153 110C153 111.381 152.63 112.5 152.174 112.5H115.826C115.37 112.5 115 111.381 115 110Z" fill="#E4E4E4"/>
<path d="M165 110C165 108.619 165.37 107.5 165.826 107.5H202.174C202.63 107.5 203 108.619 203 110C203 111.381 202.63 112.5 202.174 112.5H165.826C165.37 112.5 165 111.381 165 110Z" fill="#E4E4E4"/>
</g>
<defs>
<filter id="filter0_d_443_9443" x="0" y="0" width="218" height="126" filterUnits="userSpaceOnUse" color-interpolation-filters="sRGB">
<feFlood flood-opacity="0" result="BackgroundImageFix"/>
<feColorMatrix in="SourceAlpha" type="matrix" values="0 0 0 0 0 0 0 0 0 0 0 0 0 0 0 0 0 0 127 0" result="hardAlpha"/>
<feOffset dy="1"/>
<feGaussianBlur stdDeviation="1.5"/>
<feComposite in2="hardAlpha" operator="out"/>
<feColorMatrix type="matrix" values="0 0 0 0 0 0 0 0 0 0 0 0 0 0 0 0 0 0 0.05 0"/>
<feBlend mode="normal" in2="BackgroundImageFix" result="effect1_dropShadow_443_9443"/>
<feBlend mode="normal" in="SourceGraphic" in2="effect1_dropShadow_443_9443" result="shape"/>
</filter>
</defs>
</svg>
