<svg width="206" height="156" viewBox="0 0 206 156" fill="none" xmlns="http://www.w3.org/2000/svg">
<g filter="url(#filter0_d_418_9282)">
<rect x="3" y="2" width="200" height="150" rx="12" fill="#FCFCFC" shape-rendering="crispEdges"/>
<path d="M15 20C15 18.6193 15.8954 17.5 17 17.5H105C106.105 17.5 107 18.6193 107 20C107 21.3807 106.105 22.5 105 22.5H17C15.8954 22.5 15 21.3807 15 20Z" fill="#A4A4A4"/>
<path d="M187.646 16.6465C187.842 16.4512 188.158 16.4512 188.353 16.6465C188.549 16.8418 188.549 17.1583 188.353 17.3535L182.353 23.3535C182.158 23.5488 181.842 23.5488 181.646 23.3535C181.451 23.1583 181.451 22.8418 181.646 22.6465L187.646 16.6465Z" fill="#747474"/>
<path d="M181.646 16.6465C181.842 16.4512 182.158 16.4512 182.353 16.6465L188.353 22.6465C188.549 22.8418 188.549 23.1583 188.353 23.3535C188.158 23.5488 187.842 23.5488 187.646 23.3535L181.646 17.3535C181.451 17.1583 181.451 16.8418 181.646 16.6465Z" fill="#747474"/>
<path d="M15 36.5C15 35.1193 16.1193 34 17.5 34H188.5C189.881 34 191 35.1193 191 36.5C191 37.8807 189.881 39 188.5 39H17.5C16.1193 39 15 37.8807 15 36.5Z" fill="#E4E4E4"/>
<path d="M15 49.5C15 48.1193 16.1193 47 17.5 47H124.5C125.881 47 127 48.1193 127 49.5C127 50.8807 125.881 52 124.5 52H17.5C16.1193 52 15 50.8807 15 49.5Z" fill="#E4E4E4"/>
<path d="M151 139.5V140H127V139.5H151ZM154.5 136V132C154.5 130.067 152.933 128.5 151 128.5H127C125.067 128.5 123.5 130.067 123.5 132V136C123.5 137.933 125.067 139.5 127 139.5V140C124.791 140 123 138.209 123 136V132C123 129.791 124.791 128 127 128H151C153.209 128 155 129.791 155 132V136C155 138.209 153.209 140 151 140V139.5C152.933 139.5 154.5 137.933 154.5 136Z" fill="#E4E4E4"/>
<path d="M159 132C159 129.791 160.791 128 163 128H187C189.209 128 191 129.791 191 132V136C191 138.209 189.209 140 187 140H163C160.791 140 159 138.209 159 136V132Z" fill="#747474"/>
</g>
<defs>
<filter id="filter0_d_418_9282" x="0" y="0" width="206" height="156" filterUnits="userSpaceOnUse" color-interpolation-filters="sRGB">
<feFlood flood-opacity="0" result="BackgroundImageFix"/>
<feColorMatrix in="SourceAlpha" type="matrix" values="0 0 0 0 0 0 0 0 0 0 0 0 0 0 0 0 0 0 127 0" result="hardAlpha"/>
<feOffset dy="1"/>
<feGaussianBlur stdDeviation="1.5"/>
<feComposite in2="hardAlpha" operator="out"/>
<feColorMatrix type="matrix" values="0 0 0 0 0 0 0 0 0 0 0 0 0 0 0 0 0 0 0.05 0"/>
<feBlend mode="normal" in2="BackgroundImageFix" result="effect1_dropShadow_418_9282"/>
<feBlend mode="normal" in="SourceGraphic" in2="effect1_dropShadow_418_9282" result="shape"/>
</filter>
</defs>
</svg>
