<svg width="312" height="82" viewBox="0 0 312 82" fill="none" xmlns="http://www.w3.org/2000/svg">
<g filter="url(#filter0_d_434_9635)">
<rect width="312" height="80" transform="translate(0 2)" fill="#FCFCFC"/>
<path d="M8 16.5C8 15.1193 9.11929 14 10.5 14H48.5C49.8807 14 51 15.1193 51 16.5C51 17.8807 49.8807 19 48.5 19H10.5C9.11929 19 8 17.8807 8 16.5Z" fill="#D4D4D4"/>
<path d="M8 29.5C8 28.1193 9.11929 27 10.5 27H169.5C170.881 27 172 28.1193 172 29.5C172 30.8807 170.881 32 169.5 32H10.5C9.11929 32 8 30.8807 8 29.5Z" fill="#E4E4E4"/>
</g>
<defs>
<filter id="filter0_d_434_9635" x="-3" y="0" width="318" height="86" filterUnits="userSpaceOnUse" color-interpolation-filters="sRGB">
<feFlood flood-opacity="0" result="BackgroundImageFix"/>
<feColorMatrix in="SourceAlpha" type="matrix" values="0 0 0 0 0 0 0 0 0 0 0 0 0 0 0 0 0 0 127 0" result="hardAlpha"/>
<feOffset dy="1"/>
<feGaussianBlur stdDeviation="1.5"/>
<feComposite in2="hardAlpha" operator="out"/>
<feColorMatrix type="matrix" values="0 0 0 0 0 0 0 0 0 0 0 0 0 0 0 0 0 0 0.05 0"/>
<feBlend mode="normal" in2="BackgroundImageFix" result="effect1_dropShadow_434_9635"/>
<feBlend mode="normal" in="SourceGraphic" in2="effect1_dropShadow_434_9635" result="shape"/>
</filter>
</defs>
</svg>
