<svg width="218" height="190" viewBox="0 0 218 190" fill="none" xmlns="http://www.w3.org/2000/svg">
<g filter="url(#filter0_d_443_9531)">
<rect x="3" y="2" width="212" height="184" rx="12" fill="#FCFCFC" shape-rendering="crispEdges"/>
<mask id="path-2-inside-1_443_9531" fill="white">
<path d="M3 2H215V35.3333H3V2Z"/>
</mask>
<path d="M215 35.3333V34.8333H3V35.3333V35.8333H215V35.3333Z" fill="#D4D4D4" mask="url(#path-2-inside-1_443_9531)"/>
<path d="M15 18.6666C15 17.2859 15.4672 16.1666 16.0435 16.1666H61.9565C62.5328 16.1666 63 17.2859 63 18.6666C63 20.0473 62.5328 21.1666 61.9565 21.1666H16.0435C15.4672 21.1666 15 20.0473 15 18.6666Z" fill="#A4A4A4"/>
<mask id="path-5-inside-2_443_9531" fill="white">
<path d="M3 35.3334H215V119.333H3V35.3334Z"/>
</mask>
<path d="M215 119.333V118.833H3V119.333V119.833H215V119.333Z" fill="#D4D4D4" mask="url(#path-5-inside-2_443_9531)"/>
<path d="M23 51.3334C23 50.2288 22.1046 49.3334 21 49.3334C19.8954 49.3334 19 50.2288 19 51.3334C19 52.4379 19.8954 53.3334 21 53.3334C22.1046 53.3334 23 52.4379 23 51.3334ZM24 51.3334C24 52.9902 22.6569 54.3334 21 54.3334C19.3431 54.3334 18 52.9902 18 51.3334C18 49.6765 19.3431 48.3334 21 48.3334C22.6569 48.3334 24 49.6765 24 51.3334Z" fill="#747474"/>
<path d="M24.5 57.8334C24.5 56.9051 24.131 56.0151 23.4746 55.3588C22.8593 54.7435 22.0388 54.3803 21.1738 54.3373L21 54.3334C20.0717 54.3334 19.1818 54.7024 18.5254 55.3588C17.869 56.0151 17.5 56.9051 17.5 57.8334C17.5 58.1095 17.2761 58.3334 17 58.3334C16.7239 58.3334 16.5 58.1095 16.5 57.8334C16.5 56.6399 16.9744 55.4956 17.8184 54.6517C18.6623 53.8078 19.8065 53.3334 21 53.3334C22.1935 53.3334 23.3377 53.8078 24.1816 54.6517C25.0256 55.4956 25.5 56.6399 25.5 57.8334C25.5 58.1095 25.2761 58.3334 25 58.3334C24.7239 58.3334 24.5 58.1095 24.5 57.8334Z" fill="#747474"/>
<path d="M35 53.3334C35 51.9527 35.4672 50.8334 36.0435 50.8334H81.9565C82.5328 50.8334 83 51.9527 83 53.3334C83 54.7141 82.5328 55.8334 81.9565 55.8334H36.0435C35.4672 55.8334 35 54.7141 35 53.3334Z" fill="#E4E4E4"/>
<path d="M189.879 57.1331C189.59 57.1331 189.325 57.0621 189.083 56.9201C188.842 56.7756 188.65 56.5839 188.508 56.3448C188.366 56.1033 188.295 55.8381 188.295 55.5493C188.295 55.2581 188.366 54.993 188.508 54.7539C188.65 54.5124 188.842 54.3194 189.083 54.175C189.325 54.0306 189.59 53.9584 189.879 53.9584H190.66V52.7013H189.879C189.59 52.7013 189.325 52.6303 189.083 52.4882C188.842 52.3462 188.65 52.1556 188.508 51.9165C188.366 51.675 188.295 51.4087 188.295 51.1175C188.295 50.8263 188.366 50.5612 188.508 50.322C188.65 50.0829 188.842 49.8924 189.083 49.7503C189.325 49.6059 189.59 49.5337 189.879 49.5337C190.17 49.5337 190.435 49.6059 190.674 49.7503C190.916 49.8924 191.107 50.0829 191.249 50.322C191.394 50.5612 191.466 50.8263 191.466 51.1175V51.8916H192.727V51.1175C192.727 50.8263 192.798 50.5612 192.94 50.322C193.082 50.0829 193.272 49.8924 193.512 49.7503C193.753 49.6059 194.019 49.5337 194.311 49.5337C194.602 49.5337 194.867 49.6059 195.106 49.7503C195.345 49.8924 195.536 50.0829 195.678 50.322C195.82 50.5612 195.891 50.8263 195.891 51.1175C195.891 51.4087 195.82 51.675 195.678 51.9165C195.536 52.1556 195.345 52.3462 195.106 52.4882C194.867 52.6303 194.602 52.7013 194.311 52.7013H193.533V53.9584H194.311C194.602 53.9584 194.867 54.0306 195.106 54.175C195.345 54.3194 195.536 54.5124 195.678 54.7539C195.82 54.993 195.891 55.2581 195.891 55.5493C195.891 55.8381 195.82 56.1033 195.678 56.3448C195.536 56.5839 195.345 56.7756 195.106 56.9201C194.867 57.0621 194.602 57.1331 194.311 57.1331C194.019 57.1331 193.753 57.0621 193.512 56.9201C193.272 56.7756 193.082 56.5839 192.94 56.3448C192.798 56.1033 192.727 55.8381 192.727 55.5493V54.7681H191.466V55.5493C191.466 55.8381 191.394 56.1033 191.249 56.3448C191.107 56.5839 190.916 56.7756 190.674 56.9201C190.435 57.0621 190.17 57.1331 189.879 57.1331ZM189.879 56.3235C190.023 56.3235 190.153 56.2891 190.269 56.2205C190.388 56.1518 190.482 56.0583 190.553 55.9399C190.624 55.8216 190.66 55.6914 190.66 55.5493V54.7681H189.879C189.737 54.7681 189.606 54.8036 189.488 54.8746C189.37 54.9433 189.275 55.0368 189.204 55.1551C189.135 55.2735 189.101 55.4049 189.101 55.5493C189.101 55.6914 189.135 55.8216 189.204 55.9399C189.275 56.0583 189.37 56.1518 189.488 56.2205C189.606 56.2891 189.737 56.3235 189.879 56.3235ZM189.879 51.8916H190.66V51.1175C190.66 50.9731 190.624 50.8429 190.553 50.7269C190.482 50.6085 190.388 50.515 190.269 50.4463C190.153 50.3777 190.023 50.3434 189.879 50.3434C189.737 50.3434 189.606 50.3777 189.488 50.4463C189.37 50.515 189.275 50.6085 189.204 50.7269C189.135 50.8429 189.101 50.9731 189.101 51.1175C189.101 51.2619 189.135 51.3933 189.204 51.5117C189.275 51.6277 189.37 51.72 189.488 51.7887C189.606 51.8573 189.737 51.8916 189.879 51.8916ZM193.533 51.8916H194.311C194.455 51.8916 194.585 51.8573 194.701 51.7887C194.817 51.72 194.91 51.6277 194.978 51.5117C195.049 51.3933 195.085 51.2619 195.085 51.1175C195.085 50.9731 195.049 50.8429 194.978 50.7269C194.91 50.6085 194.817 50.515 194.701 50.4463C194.585 50.3777 194.455 50.3434 194.311 50.3434C194.166 50.3434 194.035 50.3777 193.916 50.4463C193.798 50.515 193.704 50.6085 193.636 50.7269C193.567 50.8429 193.533 50.9731 193.533 51.1175V51.8916ZM194.311 56.3235C194.455 56.3235 194.585 56.2891 194.701 56.2205C194.817 56.1518 194.91 56.0583 194.978 55.9399C195.049 55.8216 195.085 55.6914 195.085 55.5493C195.085 55.4049 195.049 55.2735 194.978 55.1551C194.91 55.0368 194.817 54.9433 194.701 54.8746C194.585 54.8036 194.455 54.7681 194.311 54.7681H193.533V55.5493C193.533 55.6914 193.567 55.8216 193.636 55.9399C193.704 56.0583 193.798 56.1518 193.916 56.2205C194.035 56.2891 194.166 56.3235 194.311 56.3235ZM191.466 53.9584H192.727V52.7013H191.466V53.9584Z" fill="#A4A4A4"/>
<path d="M197.891 56.9697V49.697H200.483C201.049 49.697 201.518 49.8 201.889 50.006C202.261 50.2119 202.539 50.4937 202.724 50.8511C202.908 51.2063 203.001 51.6063 203.001 52.0514C203.001 52.4989 202.907 52.9013 202.72 53.2588C202.536 53.6139 202.256 53.8956 201.882 54.104C201.51 54.3099 201.043 54.4129 200.479 54.4129H198.697V53.4825H200.38C200.737 53.4825 201.027 53.421 201.25 53.2979C201.473 53.1724 201.636 53.0019 201.74 52.7865C201.844 52.5711 201.896 52.326 201.896 52.0514C201.896 51.7768 201.844 51.533 201.74 51.3199C201.636 51.1068 201.471 50.9399 201.246 50.8192C201.024 50.6984 200.73 50.6381 200.366 50.6381H198.988V56.9697H197.891Z" fill="#A4A4A4"/>
<path d="M25.5 74.8334C25.5 74.5572 25.2761 74.3334 25 74.3334H17C16.7239 74.3334 16.5 74.5572 16.5 74.8334V79.8334C16.5 80.1095 16.7239 80.3334 17 80.3334H25C25.2761 80.3334 25.5 80.1095 25.5 79.8334V74.8334ZM26.5 79.8334C26.5 80.6618 25.8284 81.3334 25 81.3334H17C16.1716 81.3334 15.5 80.6618 15.5 79.8334V74.8334C15.5 74.0049 16.1716 73.3334 17 73.3334H25C25.8284 73.3334 26.5 74.0049 26.5 74.8334V79.8334Z" fill="#747474"/>
<path d="M26 75.8334C26.2761 75.8334 26.5 76.0572 26.5 76.3334C26.5 76.6095 26.2761 76.8334 26 76.8334H16C15.7239 76.8334 15.5 76.6095 15.5 76.3334C15.5 76.0572 15.7239 75.8334 16 75.8334H26Z" fill="#747474"/>
<path d="M35 77.3334C35 75.9527 35.4672 74.8334 36.0435 74.8334H81.9565C82.5328 74.8334 83 75.9527 83 77.3334C83 78.7141 82.5328 79.8334 81.9565 79.8334H36.0435C35.4672 79.8334 35 78.7141 35 77.3334Z" fill="#E4E4E4"/>
<path d="M189.746 81.1331C189.457 81.1331 189.192 81.0621 188.95 80.9201C188.709 80.7756 188.517 80.5839 188.375 80.3448C188.233 80.1033 188.162 79.8381 188.162 79.5493C188.162 79.2581 188.233 78.993 188.375 78.7539C188.517 78.5124 188.709 78.3194 188.95 78.175C189.192 78.0306 189.457 77.9584 189.746 77.9584H190.527V76.7013H189.746C189.457 76.7013 189.192 76.6303 188.95 76.4882C188.709 76.3462 188.517 76.1556 188.375 75.9165C188.233 75.675 188.162 75.4087 188.162 75.1175C188.162 74.8263 188.233 74.5612 188.375 74.322C188.517 74.0829 188.709 73.8924 188.95 73.7503C189.192 73.6059 189.457 73.5337 189.746 73.5337C190.037 73.5337 190.302 73.6059 190.541 73.7503C190.783 73.8924 190.975 74.0829 191.117 74.322C191.261 74.5612 191.333 74.8263 191.333 75.1175V75.8916H192.594V75.1175C192.594 74.8263 192.665 74.5612 192.807 74.322C192.949 74.0829 193.14 73.8924 193.379 73.7503C193.62 73.6059 193.887 73.5337 194.178 73.5337C194.469 73.5337 194.734 73.6059 194.973 73.7503C195.212 73.8924 195.403 74.0829 195.545 74.322C195.687 74.5612 195.758 74.8263 195.758 75.1175C195.758 75.4087 195.687 75.675 195.545 75.9165C195.403 76.1556 195.212 76.3462 194.973 76.4882C194.734 76.6303 194.469 76.7013 194.178 76.7013H193.4V77.9584H194.178C194.469 77.9584 194.734 78.0306 194.973 78.175C195.212 78.3194 195.403 78.5124 195.545 78.7539C195.687 78.993 195.758 79.2581 195.758 79.5493C195.758 79.8381 195.687 80.1033 195.545 80.3448C195.403 80.5839 195.212 80.7756 194.973 80.9201C194.734 81.0621 194.469 81.1331 194.178 81.1331C193.887 81.1331 193.62 81.0621 193.379 80.9201C193.14 80.7756 192.949 80.5839 192.807 80.3448C192.665 80.1033 192.594 79.8381 192.594 79.5493V78.7681H191.333V79.5493C191.333 79.8381 191.261 80.1033 191.117 80.3448C190.975 80.5839 190.783 80.7756 190.541 80.9201C190.302 81.0621 190.037 81.1331 189.746 81.1331ZM189.746 80.3235C189.89 80.3235 190.021 80.2891 190.137 80.2205C190.255 80.1518 190.35 80.0583 190.421 79.9399C190.492 79.8216 190.527 79.6914 190.527 79.5493V78.7681H189.746C189.604 78.7681 189.474 78.8036 189.355 78.8746C189.237 78.9433 189.142 79.0368 189.071 79.1551C189.003 79.2735 188.968 79.4049 188.968 79.5493C188.968 79.6914 189.003 79.8216 189.071 79.9399C189.142 80.0583 189.237 80.1518 189.355 80.2205C189.474 80.2891 189.604 80.3235 189.746 80.3235ZM189.746 75.8916H190.527V75.1175C190.527 74.9731 190.492 74.8429 190.421 74.7269C190.35 74.6085 190.255 74.515 190.137 74.4463C190.021 74.3777 189.89 74.3434 189.746 74.3434C189.604 74.3434 189.474 74.3777 189.355 74.4463C189.237 74.515 189.142 74.6085 189.071 74.7269C189.003 74.8429 188.968 74.9731 188.968 75.1175C188.968 75.2619 189.003 75.3933 189.071 75.5117C189.142 75.6277 189.237 75.72 189.355 75.7887C189.474 75.8573 189.604 75.8916 189.746 75.8916ZM193.4 75.8916H194.178C194.322 75.8916 194.452 75.8573 194.568 75.7887C194.684 75.72 194.777 75.6277 194.845 75.5117C194.916 75.3933 194.952 75.2619 194.952 75.1175C194.952 74.9731 194.916 74.8429 194.845 74.7269C194.777 74.6085 194.684 74.515 194.568 74.4463C194.452 74.3777 194.322 74.3434 194.178 74.3434C194.033 74.3434 193.902 74.3777 193.784 74.4463C193.665 74.515 193.572 74.6085 193.503 74.7269C193.434 74.8429 193.4 74.9731 193.4 75.1175V75.8916ZM194.178 80.3235C194.322 80.3235 194.452 80.2891 194.568 80.2205C194.684 80.1518 194.777 80.0583 194.845 79.9399C194.916 79.8216 194.952 79.6914 194.952 79.5493C194.952 79.4049 194.916 79.2735 194.845 79.1551C194.777 79.0368 194.684 78.9433 194.568 78.8746C194.452 78.8036 194.322 78.7681 194.178 78.7681H193.4V79.5493C193.4 79.6914 193.434 79.8216 193.503 79.9399C193.572 80.0583 193.665 80.1518 193.784 80.2205C193.902 80.2891 194.033 80.3235 194.178 80.3235ZM191.333 77.9584H192.594V76.7013H191.333V77.9584Z" fill="#A4A4A4"/>
<path d="M197.758 80.9697V73.697H200.421C200.937 73.697 201.365 73.7822 201.703 73.9527C202.042 74.1208 202.295 74.3492 202.463 74.6381C202.631 74.9245 202.715 75.2477 202.715 75.6075C202.715 75.9106 202.66 76.1662 202.548 76.3746C202.437 76.5805 202.288 76.7463 202.101 76.8717C201.916 76.9948 201.713 77.0848 201.49 77.1416V77.2126C201.732 77.2245 201.967 77.3026 202.197 77.447C202.429 77.5891 202.621 77.7915 202.772 78.0543C202.924 78.317 202.999 78.6367 202.999 79.0131C202.999 79.3848 202.912 79.7186 202.737 80.0145C202.564 80.3081 202.296 80.5412 201.934 80.7141C201.572 80.8845 201.109 80.9697 200.545 80.9697H197.758ZM198.855 80.0287H200.439C200.964 80.0287 201.341 79.9269 201.568 79.7233C201.795 79.5197 201.909 79.2652 201.909 78.9598C201.909 78.7302 201.851 78.5195 201.735 78.3277C201.619 78.1359 201.453 77.9832 201.238 77.8696C201.025 77.756 200.772 77.6992 200.478 77.6992H198.855V80.0287ZM198.855 76.8433H200.325C200.571 76.8433 200.793 76.796 200.989 76.7013C201.188 76.6066 201.346 76.474 201.462 76.3036C201.58 76.1307 201.639 75.9271 201.639 75.6928C201.639 75.3921 201.534 75.14 201.323 74.9364C201.112 74.7328 200.789 74.631 200.354 74.631H198.855V76.8433Z" fill="#A4A4A4"/>
<path d="M20.0049 98.8334C20.281 98.8334 20.5049 99.0572 20.5049 99.3334C20.5049 99.6095 20.281 99.8334 20.0049 99.8334H20C19.7239 99.8334 19.5 99.6095 19.5 99.3334C19.5 99.0572 19.7239 98.8334 20 98.8334H20.0049Z" fill="#747474"/>
<path d="M21.0049 100.833C21.281 100.833 21.5049 101.057 21.5049 101.333C21.5049 101.61 21.281 101.833 21.0049 101.833H21C20.7239 101.833 20.5 101.61 20.5 101.333C20.5 101.057 20.7239 100.833 21 100.833H21.0049Z" fill="#747474"/>
<path d="M22.0049 98.8334C22.281 98.8334 22.5049 99.0572 22.5049 99.3334C22.5049 99.6095 22.281 99.8334 22.0049 99.8334H22C21.7239 99.8334 21.5 99.6095 21.5 99.3334C21.5 99.0572 21.7239 98.8334 22 98.8334H22.0049Z" fill="#747474"/>
<path d="M23.0049 100.833C23.281 100.833 23.5049 101.057 23.5049 101.333C23.5049 101.61 23.281 101.833 23.0049 101.833H23C22.7239 101.833 22.5 101.61 22.5 101.333C22.5 101.057 22.7239 100.833 23 100.833H23.0049Z" fill="#747474"/>
<path d="M24.0049 98.8334C24.281 98.8334 24.5049 99.0572 24.5049 99.3334C24.5049 99.6095 24.281 99.8334 24.0049 99.8334H24C23.7239 99.8334 23.5 99.6095 23.5 99.3334C23.5 99.0572 23.7239 98.8334 24 98.8334H24.0049Z" fill="#747474"/>
<path d="M18.0049 98.8334C18.281 98.8334 18.5049 99.0572 18.5049 99.3334C18.5049 99.6095 18.281 99.8334 18.0049 99.8334H18C17.7239 99.8334 17.5 99.6095 17.5 99.3334C17.5 99.0572 17.7239 98.8334 18 98.8334H18.0049Z" fill="#747474"/>
<path d="M23.5 102.833C23.7761 102.833 24 103.057 24 103.333C24 103.61 23.7761 103.833 23.5 103.833H18.5C18.2239 103.833 18 103.61 18 103.333C18 103.057 18.2239 102.833 18.5 102.833H23.5Z" fill="#747474"/>
<path d="M19.0049 100.833C19.281 100.833 19.5049 101.057 19.5049 101.333C19.5049 101.61 19.281 101.833 19.0049 101.833H19C18.7239 101.833 18.5 101.61 18.5 101.333C18.5 101.057 18.7239 100.833 19 100.833H19.0049Z" fill="#747474"/>
<path d="M25.5 98.3334C25.5 98.0572 25.2761 97.8334 25 97.8334H17C16.7239 97.8334 16.5 98.0572 16.5 98.3334V104.333C16.5 104.61 16.7239 104.833 17 104.833H25C25.2761 104.833 25.5 104.61 25.5 104.333V98.3334ZM26.5 104.333C26.5 105.162 25.8284 105.833 25 105.833H17C16.1716 105.833 15.5 105.162 15.5 104.333V98.3334C15.5 97.5049 16.1716 96.8334 17 96.8334H25C25.8284 96.8334 26.5 97.5049 26.5 98.3334V104.333Z" fill="#747474"/>
<path d="M35 101.333C35 99.9527 35.4672 98.8334 36.0435 98.8334H81.9565C82.5328 98.8334 83 99.9527 83 101.333C83 102.714 82.5328 103.833 81.9565 103.833H36.0435C35.4672 103.833 35 102.714 35 101.333Z" fill="#E4E4E4"/>
<path d="M189.359 105.133C189.07 105.133 188.805 105.062 188.564 104.92C188.322 104.776 188.131 104.584 187.988 104.345C187.846 104.103 187.775 103.838 187.775 103.549C187.775 103.258 187.846 102.993 187.988 102.754C188.131 102.512 188.322 102.319 188.564 102.175C188.805 102.031 189.07 101.958 189.359 101.958H190.14V100.701H189.359C189.07 100.701 188.805 100.63 188.564 100.488C188.322 100.346 188.131 100.156 187.988 99.9165C187.846 99.675 187.775 99.4087 187.775 99.1175C187.775 98.8263 187.846 98.5612 187.988 98.322C188.131 98.0829 188.322 97.8924 188.564 97.7503C188.805 97.6059 189.07 97.5337 189.359 97.5337C189.65 97.5337 189.916 97.6059 190.155 97.7503C190.396 97.8924 190.588 98.0829 190.73 98.322C190.874 98.5612 190.947 98.8263 190.947 99.1175V99.8916H192.207V99.1175C192.207 98.8263 192.278 98.5612 192.42 98.322C192.562 98.0829 192.753 97.8924 192.992 97.7503C193.233 97.6059 193.5 97.5337 193.791 97.5337C194.082 97.5337 194.347 97.6059 194.586 97.7503C194.826 97.8924 195.016 98.0829 195.158 98.322C195.3 98.5612 195.371 98.8263 195.371 99.1175C195.371 99.4087 195.3 99.675 195.158 99.9165C195.016 100.156 194.826 100.346 194.586 100.488C194.347 100.63 194.082 100.701 193.791 100.701H193.013V101.958H193.791C194.082 101.958 194.347 102.031 194.586 102.175C194.826 102.319 195.016 102.512 195.158 102.754C195.3 102.993 195.371 103.258 195.371 103.549C195.371 103.838 195.3 104.103 195.158 104.345C195.016 104.584 194.826 104.776 194.586 104.92C194.347 105.062 194.082 105.133 193.791 105.133C193.5 105.133 193.233 105.062 192.992 104.92C192.753 104.776 192.562 104.584 192.42 104.345C192.278 104.103 192.207 103.838 192.207 103.549V102.768H190.947V103.549C190.947 103.838 190.874 104.103 190.73 104.345C190.588 104.584 190.396 104.776 190.155 104.92C189.916 105.062 189.65 105.133 189.359 105.133ZM189.359 104.323C189.504 104.323 189.634 104.289 189.75 104.22C189.868 104.152 189.963 104.058 190.034 103.94C190.105 103.822 190.14 103.691 190.14 103.549V102.768H189.359C189.217 102.768 189.087 102.804 188.969 102.875C188.85 102.943 188.756 103.037 188.684 103.155C188.616 103.274 188.581 103.405 188.581 103.549C188.581 103.691 188.616 103.822 188.684 103.94C188.756 104.058 188.85 104.152 188.969 104.22C189.087 104.289 189.217 104.323 189.359 104.323ZM189.359 99.8916H190.14V99.1175C190.14 98.9731 190.105 98.8429 190.034 98.7269C189.963 98.6085 189.868 98.515 189.75 98.4463C189.634 98.3777 189.504 98.3434 189.359 98.3434C189.217 98.3434 189.087 98.3777 188.969 98.4463C188.85 98.515 188.756 98.6085 188.684 98.7269C188.616 98.8429 188.581 98.9731 188.581 99.1175C188.581 99.2619 188.616 99.3933 188.684 99.5117C188.756 99.6277 188.85 99.72 188.969 99.7887C189.087 99.8573 189.217 99.8916 189.359 99.8916ZM193.013 99.8916H193.791C193.935 99.8916 194.066 99.8573 194.182 99.7887C194.298 99.72 194.39 99.6277 194.459 99.5117C194.53 99.3933 194.565 99.2619 194.565 99.1175C194.565 98.9731 194.53 98.8429 194.459 98.7269C194.39 98.6085 194.298 98.515 194.182 98.4463C194.066 98.3777 193.935 98.3434 193.791 98.3434C193.647 98.3434 193.515 98.3777 193.397 98.4463C193.278 98.515 193.185 98.6085 193.116 98.7269C193.048 98.8429 193.013 98.9731 193.013 99.1175V99.8916ZM193.791 104.323C193.935 104.323 194.066 104.289 194.182 104.22C194.298 104.152 194.39 104.058 194.459 103.94C194.53 103.822 194.565 103.691 194.565 103.549C194.565 103.405 194.53 103.274 194.459 103.155C194.39 103.037 194.298 102.943 194.182 102.875C194.066 102.804 193.935 102.768 193.791 102.768H193.013V103.549C193.013 103.691 193.048 103.822 193.116 103.94C193.185 104.058 193.278 104.152 193.397 104.22C193.515 104.289 193.647 104.323 193.791 104.323ZM190.947 101.958H192.207V100.701H190.947V101.958Z" fill="#A4A4A4"/>
<path d="M197.371 104.97V97.697H198.468V101.17H198.557L201.608 97.697H202.989L200.056 100.971L203 104.97H201.679L199.328 101.72L198.468 102.708V104.97H197.371Z" fill="#A4A4A4"/>
<mask id="path-29-inside-3_443_9531" fill="white">
<path d="M3 119.333H215V152.667H3V119.333Z"/>
</mask>
<path d="M215 152.667V152.167H3V152.667V153.167H215V152.667Z" fill="#D4D4D4" mask="url(#path-29-inside-3_443_9531)"/>
<path d="M23 134C23 132.895 22.1046 132 21 132C19.8954 132 19 132.895 19 134C19 135.105 19.8954 136 21 136C22.1046 136 23 135.105 23 134ZM24 134C24 135.657 22.6569 137 21 137C19.3431 137 18 135.657 18 134C18 132.343 19.3431 131 21 131C22.6569 131 24 132.343 24 134Z" fill="#747474"/>
<path d="M24.5 140.5C24.5 139.572 24.131 138.682 23.4746 138.025C22.8593 137.41 22.0388 137.047 21.1738 137.004L21 137C20.0717 137 19.1818 137.369 18.5254 138.025C17.869 138.682 17.5 139.572 17.5 140.5C17.5 140.776 17.2761 141 17 141C16.7239 141 16.5 140.776 16.5 140.5C16.5 139.307 16.9744 138.162 17.8184 137.318C18.6623 136.474 19.8065 136 21 136C22.1935 136 23.3377 136.474 24.1816 137.318C25.0256 138.162 25.5 139.307 25.5 140.5C25.5 140.776 25.2761 141 25 141C24.7239 141 24.5 140.776 24.5 140.5Z" fill="#747474"/>
<path d="M35 136C35 134.619 35.4672 133.5 36.0435 133.5H81.9565C82.5328 133.5 83 134.619 83 136C83 137.381 82.5328 138.5 81.9565 138.5H36.0435C35.4672 138.5 35 137.381 35 136Z" fill="#E4E4E4"/>
<path d="M195.146 132.646C195.342 132.451 195.658 132.451 195.853 132.646L198.853 135.646C199.049 135.842 199.049 136.158 198.853 136.353L195.853 139.353C195.658 139.549 195.342 139.549 195.146 139.353C194.951 139.158 194.951 138.842 195.146 138.646L197.793 136L195.146 133.353C194.951 133.158 194.951 132.842 195.146 132.646Z" fill="#747474"/>
<path d="M22.6464 166.48C22.8417 166.284 23.1582 166.284 23.3535 166.48L25.8535 168.98C26.0487 169.175 26.0487 169.491 25.8535 169.687L23.3535 172.187C23.1582 172.382 22.8417 172.382 22.6464 172.187C22.4512 171.991 22.4512 171.675 22.6464 171.48L24.7929 169.333L22.6464 167.187C22.4512 166.991 22.4512 166.675 22.6464 166.48Z" fill="#747474"/>
<path d="M25.5 168.833C25.7761 168.833 26 169.057 26 169.333C26 169.609 25.7761 169.833 25.5 169.833H19.5C19.2239 169.833 19 169.609 19 169.333C19 169.057 19.2239 168.833 19.5 168.833H25.5Z" fill="#747474"/>
<path d="M16 172.833V165.833C16 165.435 16.1581 165.054 16.4395 164.773C16.7208 164.491 17.1022 164.333 17.5 164.333H19.5C19.7761 164.333 20 164.557 20 164.833C20 165.109 19.7761 165.333 19.5 165.333H17.5C17.3674 165.333 17.2403 165.386 17.1465 165.48C17.0527 165.574 17 165.701 17 165.833V172.833C17 172.966 17.0527 173.093 17.1465 173.187C17.2403 173.281 17.3674 173.333 17.5 173.333H19.5C19.7761 173.333 20 173.557 20 173.833C20 174.109 19.7761 174.333 19.5 174.333H17.5C17.1022 174.333 16.7208 174.175 16.4395 173.894C16.1581 173.612 16 173.231 16 172.833Z" fill="#747474"/>
<path d="M35 169.333C35 167.953 35.4672 166.833 36.0435 166.833H81.9565C82.5328 166.833 83 167.953 83 169.333C83 170.714 82.5328 171.833 81.9565 171.833H36.0435C35.4672 171.833 35 170.714 35 169.333Z" fill="#E4E4E4"/>
</g>
<defs>
<filter id="filter0_d_443_9531" x="0" y="0" width="218" height="190" filterUnits="userSpaceOnUse" color-interpolation-filters="sRGB">
<feFlood flood-opacity="0" result="BackgroundImageFix"/>
<feColorMatrix in="SourceAlpha" type="matrix" values="0 0 0 0 0 0 0 0 0 0 0 0 0 0 0 0 0 0 127 0" result="hardAlpha"/>
<feOffset dy="1"/>
<feGaussianBlur stdDeviation="1.5"/>
<feComposite in2="hardAlpha" operator="out"/>
<feColorMatrix type="matrix" values="0 0 0 0 0 0 0 0 0 0 0 0 0 0 0 0 0 0 0.05 0"/>
<feBlend mode="normal" in2="BackgroundImageFix" result="effect1_dropShadow_443_9531"/>
<feBlend mode="normal" in="SourceGraphic" in2="effect1_dropShadow_443_9531" result="shape"/>
</filter>
</defs>
</svg>
