<svg width="196" height="95" viewBox="0 0 196 95" fill="none" xmlns="http://www.w3.org/2000/svg">
<rect x="84.5" y="0.5" width="27" height="27" rx="3.5" fill="#E4E4E4"/>
<rect x="84.5" y="0.5" width="27" height="27" rx="3.5" stroke="#E4E4E4"/>
<path d="M90.584 17.9999V9.33289C90.5841 8.78049 90.8037 8.25084 91.1943 7.86023C91.585 7.46963 92.1146 7.24996 92.667 7.24988H95.2676V7.25085C95.6134 7.24873 95.9545 7.33145 96.2598 7.49402C96.5648 7.65648 96.8244 7.89271 97.0156 8.18054L97.5557 8.98035L97.5605 8.98718C97.6137 9.06782 97.6855 9.13473 97.7705 9.18054C97.8555 9.22636 97.9513 9.24986 98.0479 9.24988H103.334C103.886 9.24988 104.416 9.46965 104.807 9.86023C105.197 10.2508 105.417 10.7805 105.417 11.3329V14.0663C105.417 14.4805 105.081 14.8163 104.667 14.8163C104.253 14.8161 103.917 14.4804 103.917 14.0663V11.3329C103.917 11.1783 103.855 11.0301 103.746 10.9208C103.637 10.8115 103.489 10.7499 103.334 10.7499H98.0469C97.7022 10.7498 97.363 10.6643 97.0596 10.5009C96.756 10.3372 96.4973 10.1004 96.3076 9.81238V9.8114L95.7725 9.01941L95.7676 9.01257C95.7139 8.9311 95.6408 8.8641 95.5547 8.81824C95.4686 8.77238 95.372 8.74892 95.2744 8.74988H92.667C92.5124 8.74996 92.3642 8.81148 92.2549 8.92078C92.1456 9.03008 92.0841 9.17832 92.084 9.33289V17.9999C92.084 18.1545 92.1456 18.3026 92.2549 18.412C92.3642 18.5213 92.5124 18.5828 92.667 18.5829H97.1338C97.5479 18.5829 97.8836 18.9189 97.8838 19.3329C97.8838 19.7471 97.548 20.0829 97.1338 20.0829H92.667C92.1147 20.0828 91.5849 19.864 91.1943 19.4735C90.8036 19.0828 90.584 18.5524 90.584 17.9999Z" fill="#525252"/>
<path d="M102.202 18.2031C102.495 17.9102 102.97 17.9102 103.263 18.2031L104.529 19.4697C104.822 19.7626 104.822 20.2373 104.529 20.5302C104.236 20.8231 103.762 20.8231 103.469 20.5302L102.202 19.2636C101.909 18.9707 101.909 18.496 102.202 18.2031Z" fill="#525252"/>
<path d="M102.584 17.3334C102.584 16.643 102.024 16.0834 101.334 16.0834C100.644 16.0834 100.084 16.643 100.084 17.3334C100.084 18.0237 100.644 18.5834 101.334 18.5834C102.024 18.5834 102.584 18.0237 102.584 17.3334ZM104.084 17.3334C104.084 18.8522 102.853 20.0834 101.334 20.0834C99.8152 20.0834 98.584 18.8522 98.584 17.3334C98.584 15.8146 99.8152 14.5834 101.334 14.5834C102.853 14.5834 104.084 15.8146 104.084 17.3334Z" fill="#525252"/>
<path d="M61 42.5C61 41.1193 62.1193 40 63.5 40H132.5C133.881 40 135 41.1193 135 42.5C135 43.8807 133.881 45 132.5 45H63.5C62.1193 45 61 43.8807 61 42.5Z" fill="#A4A4A4"/>
<path d="M7 55.5C7 54.1193 8.11929 53 9.5 53H186.5C187.881 53 189 54.1193 189 55.5C189 56.8807 187.881 58 186.5 58H9.5C8.11929 58 7 56.8807 7 55.5Z" fill="#E4E4E4"/>
<path d="M42 68.5C42 67.1193 43.1193 66 44.5 66H151.5C152.881 66 154 67.1193 154 68.5C154 69.8807 152.881 71 151.5 71H44.5C43.1193 71 42 69.8807 42 68.5Z" fill="#E4E4E4"/>
<path d="M92 94.5V95H52V94.5H92ZM95.5 91V87C95.5 85.067 93.933 83.5 92 83.5H52C50.067 83.5 48.5 85.067 48.5 87V91C48.5 92.933 50.067 94.5 52 94.5V95L51.7939 94.9951C49.6806 94.8879 48 93.14 48 91V87C48 84.7909 49.7909 83 52 83H92C94.2091 83 96 84.7909 96 87V91C96 93.2091 94.2091 95 92 95V94.5C93.933 94.5 95.5 92.933 95.5 91Z" fill="#D4D4D4"/>
<path d="M100 87C100 84.7909 101.791 83 104 83H144C146.209 83 148 84.7909 148 87V91C148 93.2091 146.209 95 144 95H104C101.791 95 100 93.2091 100 91V87Z" fill="#747474"/>
</svg>
