<svg width="202" height="168" viewBox="0 0 202 168" fill="none" xmlns="http://www.w3.org/2000/svg">
<g filter="url(#filter0_d_443_9633)">
<rect x="3" y="2" width="196" height="161.5" rx="12" fill="#FCFCFC" shape-rendering="crispEdges"/>
<path d="M15 20.5C15 19.1193 16.1193 18 17.5 18H86.5C87.8807 18 89 19.1193 89 20.5C89 21.8807 87.8807 23 86.5 23H17.5C16.1193 23 15 21.8807 15 20.5Z" fill="#A4A4A4"/>
<path d="M15 33.5C15 32.1193 16.1193 31 17.5 31H124.5C125.881 31 127 32.1193 127 33.5C127 34.8807 125.881 36 124.5 36H17.5C16.1193 36 15 34.8807 15 33.5Z" fill="#E4E4E4"/>
<path d="M187 46V46.5H15V46H187Z" fill="#E4E4E4"/>
<path d="M15 59C15 57.6193 16.1193 56.5 17.5 56.5H72.5C73.8807 56.5 75 57.6193 75 59C75 60.3807 73.8807 61.5 72.5 61.5H17.5C16.1193 61.5 15 60.3807 15 59Z" fill="#E4E4E4"/>
<rect x="15.25" y="65.75" width="171.5" height="15.5" rx="3.75" fill="#FCFCFC"/>
<rect x="15.25" y="65.75" width="171.5" height="15.5" rx="3.75" stroke="#E4E4E4" stroke-width="0.5"/>
<path d="M15 94C15 92.6193 16.1193 91.5 17.5 91.5H72.5C73.8807 91.5 75 92.6193 75 94C75 95.3807 73.8807 96.5 72.5 96.5H17.5C16.1193 96.5 15 95.3807 15 94Z" fill="#E4E4E4"/>
<rect x="15.25" y="100.75" width="171.5" height="15.5" rx="3.75" fill="#FCFCFC"/>
<rect x="15.25" y="100.75" width="171.5" height="15.5" rx="3.75" stroke="#E4E4E4" stroke-width="0.5"/>
<path d="M15 129C15 127.619 16.1193 126.5 17.5 126.5H72.5C73.8807 126.5 75 127.619 75 129C75 130.381 73.8807 131.5 72.5 131.5H17.5C16.1193 131.5 15 130.381 15 129Z" fill="#E4E4E4"/>
<rect x="15.25" y="135.75" width="51.5" height="15.5" rx="3.75" fill="#FCFCFC"/>
<rect x="15.25" y="135.75" width="51.5" height="15.5" rx="3.75" stroke="#E4E4E4" stroke-width="0.5"/>
<rect x="75.25" y="135.75" width="51.5" height="15.5" rx="3.75" fill="#FCFCFC"/>
<rect x="75.25" y="135.75" width="51.5" height="15.5" rx="3.75" stroke="#E4E4E4" stroke-width="0.5"/>
<rect x="135.25" y="135.75" width="51.5" height="15.5" rx="3.75" fill="#FCFCFC"/>
<rect x="135.25" y="135.75" width="51.5" height="15.5" rx="3.75" stroke="#E4E4E4" stroke-width="0.5"/>
</g>
<defs>
<filter id="filter0_d_443_9633" x="0" y="0" width="202" height="167.5" filterUnits="userSpaceOnUse" color-interpolation-filters="sRGB">
<feFlood flood-opacity="0" result="BackgroundImageFix"/>
<feColorMatrix in="SourceAlpha" type="matrix" values="0 0 0 0 0 0 0 0 0 0 0 0 0 0 0 0 0 0 127 0" result="hardAlpha"/>
<feOffset dy="1"/>
<feGaussianBlur stdDeviation="1.5"/>
<feComposite in2="hardAlpha" operator="out"/>
<feColorMatrix type="matrix" values="0 0 0 0 0 0 0 0 0 0 0 0 0 0 0 0 0 0 0.05 0"/>
<feBlend mode="normal" in2="BackgroundImageFix" result="effect1_dropShadow_443_9633"/>
<feBlend mode="normal" in="SourceGraphic" in2="effect1_dropShadow_443_9633" result="shape"/>
</filter>
</defs>
</svg>
