<svg width="196" height="119" viewBox="0 0 196 119" fill="none" xmlns="http://www.w3.org/2000/svg">
<rect x="0.5" y="0.5" width="195" height="118" rx="7.5" stroke="#D4D4D4" stroke-dasharray="3 3"/>
<rect x="84.5" y="16.5" width="27" height="27" rx="13.5" stroke="#E4E4E4"/>
<path d="M97.25 32V24C97.25 23.5858 97.5858 23.25 98 23.25C98.4142 23.25 98.75 23.5858 98.75 24V32C98.75 32.4142 98.4142 32.75 98 32.75C97.5858 32.75 97.25 32.4142 97.25 32Z" fill="#747474"/>
<path d="M97.4686 23.4696C97.7615 23.1767 98.2363 23.1769 98.5292 23.4696L101.863 26.8026C102.156 27.0954 102.156 27.5702 101.863 27.8631C101.57 28.156 101.095 28.156 100.803 27.8631L97.9989 25.0594L95.1962 27.8631C94.9033 28.156 94.4285 28.156 94.1356 27.8631C93.8429 27.5702 93.8428 27.0954 94.1356 26.8026L97.4686 23.4696Z" fill="#747474"/>
<path d="M91.25 34.667V32C91.25 31.5858 91.5858 31.25 92 31.25C92.4142 31.25 92.75 31.5858 92.75 32V34.667L92.7617 34.7812C92.7842 34.8933 92.8389 34.9971 92.9209 35.0791C93.0302 35.1884 93.1784 35.2499 93.333 35.25H102.667C102.822 35.2499 102.97 35.1884 103.079 35.0791C103.188 34.9698 103.25 34.8216 103.25 34.667V32C103.25 31.5858 103.586 31.25 104 31.25C104.414 31.25 104.75 31.5858 104.75 32V34.667C104.75 35.2194 104.53 35.749 104.14 36.1396C103.749 36.5303 103.219 36.7499 102.667 36.75H93.333C92.7806 36.7499 92.251 36.5303 91.8604 36.1396C91.5186 35.7979 91.3072 35.3498 91.2598 34.873L91.25 34.667Z" fill="#747474"/>
<path d="M61 61C61 59.6193 62.1193 58.5 63.5 58.5H132.5C133.881 58.5 135 59.6193 135 61C135 62.3807 133.881 63.5 132.5 63.5H63.5C62.1193 63.5 61 62.3807 61 61Z" fill="#A4A4A4"/>
<path d="M34 74C34 72.6193 34.7872 71.5 35.7582 71.5H160.242C161.213 71.5 162 72.6193 162 74C162 75.3807 161.213 76.5 160.242 76.5H35.7582C34.7872 76.5 34 75.3807 34 74Z" fill="#E4E4E4"/>
<path d="M118 102.5V103H78V102.5H118ZM121.5 99V95C121.5 93.067 119.933 91.5 118 91.5H78C76.067 91.5 74.5 93.067 74.5 95V99C74.5 100.933 76.067 102.5 78 102.5V103L77.7939 102.995C75.6806 102.888 74 101.14 74 99V95C74 92.7909 75.7909 91 78 91H118C120.209 91 122 92.7909 122 95V99C122 101.209 120.209 103 118 103V102.5C119.933 102.5 121.5 100.933 121.5 99Z" fill="#D4D4D4"/>
</svg>