<svg width="156" height="83" viewBox="0 0 156 83" fill="none" xmlns="http://www.w3.org/2000/svg">
<path d="M58 6.25C58 4.86929 59.1193 3.75 60.5 3.75H95.5C96.8807 3.75 98 4.86929 98 6.25C98 7.63071 96.8807 8.75 95.5 8.75H60.5C59.1193 8.75 58 7.63071 58 6.25Z" fill="#A4A4A4"/>
<path d="M97 10.75V11.25H59V10.75H97Z" fill="#525252"/>
<g filter="url(#filter0_d_434_9738)">
<rect x="3" y="23.25" width="150" height="55" rx="8" fill="#FCFCFC" shape-rendering="crispEdges"/>
<path d="M29 44.25C29 49.2206 24.9706 53.25 20 53.25C15.0294 53.25 11 49.2206 11 44.25C11 39.2794 15.0294 35.25 20 35.25C24.9706 35.25 29 39.2794 29 44.25Z" fill="#525252"/>
<path d="M37 37.75C37 36.3693 38.1193 35.25 39.5 35.25H77.5C78.8807 35.25 80 36.3693 80 37.75C80 39.1307 78.8807 40.25 77.5 40.25H39.5C38.1193 40.25 37 39.1307 37 37.75Z" fill="#D4D4D4"/>
<path d="M37 50.75C37 49.3693 38.1193 48.25 39.5 48.25H142.5C143.881 48.25 145 49.3693 145 50.75C145 52.1307 143.881 53.25 142.5 53.25H39.5C38.1193 53.25 37 52.1307 37 50.75Z" fill="#E4E4E4"/>
<path d="M37 63.75C37 62.3693 38.1193 61.25 39.5 61.25H122.5C123.881 61.25 125 62.3693 125 63.75C125 65.1307 123.881 66.25 122.5 66.25H39.5C38.1193 66.25 37 65.1307 37 63.75Z" fill="#E4E4E4"/>
</g>
<g filter="url(#filter1_d_434_9738)">
<path d="M93.2708 16.28C92.9908 15.92 92.6408 15.19 92.0308 14.28C91.6808 13.78 90.8208 12.83 90.5608 12.34C90.3734 12.0423 90.319 11.6797 90.4108 11.34C90.5678 10.6943 91.1804 10.2659 91.8408 10.34C92.3516 10.4427 92.8211 10.693 93.1908 11.06C93.449 11.3032 93.6865 11.5675 93.9008 11.85C94.0608 12.05 94.1008 12.13 94.2808 12.36C94.4608 12.59 94.5808 12.82 94.4908 12.48C94.4208 11.98 94.3008 11.14 94.1308 10.39C94.0008 9.82005 93.9708 9.73005 93.8508 9.30005C93.7308 8.87005 93.6608 8.51005 93.5308 8.02005C93.412 7.53862 93.3186 7.05128 93.2508 6.56005C93.1248 5.93175 93.2165 5.27926 93.5108 4.71005C93.8602 4.38142 94.3728 4.29468 94.8108 4.49005C95.2514 4.81539 95.58 5.2697 95.7508 5.79005C96.0129 6.43044 96.1878 7.10311 96.2708 7.79005C96.4308 8.79005 96.7408 10.25 96.7508 10.55C96.7508 10.18 96.6808 9.40005 96.7508 9.05005C96.8202 8.68517 97.0738 8.38236 97.4208 8.25005C97.7187 8.15867 98.0337 8.13813 98.3408 8.19005C98.6509 8.25487 98.9255 8.43319 99.1108 8.69005C99.3425 9.27344 99.4711 9.89265 99.4908 10.52C99.5176 9.97064 99.6117 9.42658 99.7708 8.90005C99.938 8.6646 100.182 8.49484 100.461 8.42005C100.791 8.3596 101.13 8.3596 101.461 8.42005C101.732 8.51068 101.969 8.68157 102.141 8.91005C102.353 9.4404 102.481 10.0004 102.521 10.57C102.521 10.71 102.591 10.18 102.811 9.83005C102.925 9.49065 103.212 9.23802 103.563 9.16733C103.914 9.09663 104.276 9.21862 104.513 9.48733C104.75 9.75604 104.825 10.1306 104.711 10.47C104.711 11.12 104.711 11.09 104.711 11.53C104.711 11.97 104.711 12.36 104.711 12.73C104.674 13.3152 104.594 13.8969 104.471 14.47C104.297 14.9772 104.055 15.4582 103.751 15.9C103.265 16.44 102.864 17.0502 102.561 17.71C102.486 18.0379 102.452 18.3738 102.461 18.71C102.46 19.0207 102.5 19.3301 102.581 19.63C102.172 19.6733 101.76 19.6733 101.351 19.63C100.961 19.57 100.481 18.79 100.351 18.55C100.287 18.4212 100.155 18.3398 100.011 18.3398C99.8668 18.3398 99.7352 18.4212 99.6708 18.55C99.4508 18.93 98.9608 19.62 98.6208 19.66C97.9508 19.74 96.5708 19.66 95.4808 19.66C95.4808 19.66 95.6608 18.66 95.2508 18.3C94.8408 17.94 94.4208 17.52 94.1108 17.24L93.2708 16.28Z" fill="white"/>
<path d="M104.336 10.4698C104.336 10.4293 104.342 10.3891 104.355 10.3507C104.427 10.1383 104.379 9.90364 104.231 9.73545C104.083 9.56726 103.856 9.49101 103.637 9.53526C103.417 9.57957 103.237 9.73714 103.166 9.94932C103.156 9.97734 103.143 10.0044 103.128 10.0294C103.048 10.1569 102.987 10.3343 102.944 10.4864C102.934 10.5225 102.925 10.5557 102.917 10.5851C102.91 10.6117 102.902 10.6422 102.896 10.6642C102.893 10.6747 102.888 10.6924 102.882 10.7101C102.879 10.7183 102.873 10.7354 102.863 10.755C102.862 10.7564 102.829 10.8324 102.751 10.8917C102.702 10.9289 102.59 10.9918 102.442 10.9591C102.303 10.9283 102.231 10.8335 102.206 10.7931C102.16 10.72 102.152 10.6478 102.151 10.6446C102.148 10.6265 102.148 10.6094 102.147 10.5958L102.146 10.5968C102.11 10.0855 101.998 9.5825 101.813 9.10459C101.695 8.95964 101.541 8.84894 101.365 8.78526C101.093 8.7389 100.816 8.73857 100.545 8.78623C100.373 8.83517 100.223 8.93705 100.111 9.07529C99.9727 9.55174 99.8892 10.0425 99.865 10.5382C99.8552 10.7392 99.6884 10.8964 99.4871 10.8946C99.286 10.8927 99.1223 10.7324 99.116 10.5313C99.0981 9.96376 98.9835 9.40369 98.7791 8.87412C98.6511 8.71421 98.4722 8.60246 98.2713 8.55869C98.0284 8.5187 97.7796 8.53439 97.5438 8.60459C97.3237 8.69258 97.1633 8.88692 97.1189 9.12022L97.118 9.12315C97.0928 9.24886 97.0904 9.48852 97.0994 9.78135C97.1075 10.0454 97.1258 10.3593 97.1258 10.5499C97.1258 10.7546 96.9613 10.9215 96.7566 10.9249C96.5521 10.9282 96.3826 10.767 96.3758 10.5626C96.3743 10.5178 96.3581 10.3966 96.324 10.1954C96.2917 10.0044 96.2475 9.765 96.1981 9.50108C96.0999 8.97684 95.9812 8.35573 95.9002 7.84971C95.8994 7.84498 95.8988 7.83982 95.8982 7.83506C95.8192 7.18145 95.6525 6.54106 95.4031 5.93174C95.3999 5.92373 95.397 5.91554 95.3943 5.90733C95.2521 5.47435 94.9819 5.09559 94.6209 4.81846C94.3481 4.7123 94.0409 4.76092 93.8143 4.94444C93.6136 5.36075 93.5338 5.82402 93.5857 6.28135L93.618 6.48643L93.6219 6.50889C93.6875 6.985 93.7784 7.45727 93.8934 7.92393L94.0594 8.5958C94.1081 8.80065 94.1539 8.992 94.2117 9.19932C94.2718 9.41473 94.3099 9.54676 94.3494 9.69737L94.4959 10.3067C94.6675 11.064 94.7889 11.9066 94.8592 12.4083C94.8687 12.4453 94.8766 12.4798 94.8826 12.5108C94.8881 12.5394 94.8992 12.5978 94.8953 12.6603C94.8938 12.6847 94.8877 12.7712 94.8289 12.8585C94.7945 12.9095 94.7398 12.9639 94.6609 12.9972C94.5831 13.03 94.5089 13.0314 94.4529 13.0226C94.3561 13.0072 94.2914 12.9583 94.2732 12.9444C94.2465 12.924 94.2257 12.9034 94.2137 12.8907C94.1724 12.8468 94.1271 12.7829 94.0984 12.7433C94.0619 12.6928 94.0249 12.6416 93.9852 12.5909C93.89 12.4693 93.8311 12.3861 93.7781 12.3116C93.7267 12.2394 93.6814 12.1756 93.6082 12.0841L93.6014 12.0763V12.0753C93.3998 11.8097 93.1761 11.5617 92.9334 11.3331L92.9266 11.3263C92.6126 11.0146 92.2149 10.8011 91.782 10.711C91.3157 10.6669 90.8862 10.9719 90.7752 11.4288L90.7732 11.4376H90.7723C90.7159 11.6463 90.7383 11.8676 90.8328 12.0597L90.8777 12.1407L90.8924 12.1642C91.0021 12.371 91.2556 12.7018 91.5535 13.0714C91.8357 13.4213 92.153 13.8008 92.3377 14.0646L92.3426 14.0714C92.6546 14.5369 92.8994 14.9562 93.0984 15.298C93.301 15.6458 93.4426 15.8887 93.5623 16.044L94.3777 16.9767C94.5336 17.1181 94.7154 17.2916 94.9012 17.4679C95.0959 17.6526 95.2987 17.8438 95.4979 18.0187C95.6745 18.1738 95.7683 18.3793 95.8201 18.5626C95.8726 18.7483 95.8908 18.9418 95.8943 19.1075C95.8957 19.1718 95.8926 19.2338 95.8904 19.2921C96.3292 19.2981 96.7926 19.3081 97.2147 19.3155C97.7845 19.3256 98.2709 19.3236 98.576 19.2872H98.577C98.5593 19.2893 98.5872 19.2893 98.6658 19.2276C98.7364 19.1723 98.8188 19.0904 98.9061 18.9884C98.993 18.8867 99.0776 18.7742 99.1531 18.6651L99.3465 18.3624C99.4778 18.1183 99.7322 17.965 100.011 17.9649C100.292 17.9649 100.55 18.122 100.679 18.3712C100.737 18.4778 100.879 18.7132 101.047 18.9239C101.131 19.0293 101.214 19.1186 101.289 19.1817C101.353 19.2352 101.391 19.2531 101.403 19.2579C101.644 19.2828 101.886 19.2895 102.128 19.2823C102.1 19.0927 102.085 18.9012 102.086 18.7091C102.077 18.345 102.114 17.9811 102.195 17.6261C102.201 17.6012 102.209 17.577 102.22 17.5538C102.534 16.8701 102.948 16.2366 103.449 15.6749C103.726 15.2701 103.947 14.8305 104.108 14.3673C104.224 13.8227 104.301 13.2706 104.336 12.7149V10.4698ZM105.086 12.7296C105.086 12.7373 105.085 12.7454 105.085 12.753C105.047 13.3569 104.965 13.9574 104.838 14.5489C104.835 14.5634 104.83 14.5779 104.825 14.5919C104.64 15.1311 104.382 15.6426 104.059 16.1124C104.05 16.1258 104.04 16.1384 104.029 16.1505C103.579 16.6516 103.205 17.2169 102.92 17.8272C102.857 18.1138 102.828 18.4069 102.836 18.7003V18.711C102.835 18.9883 102.871 19.2646 102.943 19.5323C102.972 19.6383 102.952 19.7514 102.889 19.8419C102.827 19.9324 102.729 19.9915 102.62 20.003C102.185 20.049 101.746 20.049 101.311 20.003C101.306 20.0024 101.3 20.002 101.294 20.0011C101.096 19.9707 100.929 19.8589 100.807 19.7569C100.679 19.6495 100.561 19.5177 100.46 19.3907C100.258 19.1366 100.094 18.8621 100.021 18.7286L100.014 18.7179V18.7169C100.014 18.7156 100.012 18.7149 100.011 18.7149C100.009 18.715 100.007 18.7162 100.007 18.7179C100.003 18.7248 99.9988 18.7317 99.9949 18.7384C99.8763 18.9432 99.6859 19.2306 99.4754 19.4767C99.3703 19.5994 99.2524 19.7214 99.1287 19.8185C99.0419 19.8866 98.9294 19.96 98.7996 20.0021L98.6648 20.0323C98.3 20.0759 97.7617 20.0745 97.202 20.0646C96.6285 20.0544 96.0212 20.0353 95.4803 20.0353C95.3694 20.0351 95.2643 19.9856 95.1932 19.9005C95.122 19.8154 95.0916 19.7031 95.1111 19.5938C95.1113 19.5929 95.1117 19.5906 95.1121 19.588C95.113 19.5826 95.1153 19.5734 95.117 19.5616C95.1205 19.538 95.1251 19.5028 95.1297 19.4591C95.139 19.3703 95.147 19.2504 95.1443 19.1231C95.1416 18.994 95.1275 18.8697 95.0984 18.7667C95.0688 18.6618 95.032 18.6072 95.0037 18.5821C94.7929 18.397 94.5799 18.1971 94.3846 18.0118C94.187 17.8244 94.0096 17.6545 93.8592 17.5187C93.8485 17.509 93.8385 17.4983 93.8289 17.4874L92.9881 16.5274C92.9833 16.522 92.9789 16.5156 92.9744 16.5099C92.8151 16.305 92.6422 16.005 92.45 15.6749C92.2524 15.3357 92.0194 14.9362 91.7234 14.4942C91.5581 14.2581 91.2695 13.9141 90.9695 13.5421C90.693 13.1992 90.3984 12.8201 90.2439 12.5392C90.0008 12.1528 89.9296 11.6829 90.0486 11.2423H90.0496C90.2419 10.47 90.9416 9.94214 91.7244 9.95713L91.8826 9.9669L91.9148 9.97276C92.4942 10.0892 93.0264 10.3724 93.4471 10.7872H93.4481C93.6158 10.9453 93.7739 11.113 93.9246 11.2872C93.877 11.017 93.8247 10.7385 93.7645 10.4728V10.4718C93.6369 9.91261 93.6087 9.82926 93.4891 9.40049C93.427 9.17813 93.3786 8.97449 93.3299 8.76963C93.2809 8.5636 93.2313 8.35576 93.1678 8.11631L93.1668 8.10947C93.0449 7.61545 92.9482 7.11551 92.8787 6.61143V6.61045C92.7428 5.90591 92.8478 5.17599 93.1775 4.53819L93.2117 4.48447C93.2245 4.46757 93.2382 4.45118 93.2537 4.43662C93.6845 4.03154 94.3039 3.90606 94.8543 4.10362L94.9637 4.14756L95.033 4.18858C95.5289 4.55475 95.9 5.06406 96.0975 5.64756C96.3704 6.31453 96.5536 7.01532 96.6414 7.73057L96.7361 8.27744C96.886 8.11315 97.0724 7.98133 97.2869 7.89951C97.2946 7.89659 97.3025 7.89411 97.3104 7.8917C97.6199 7.79672 97.9455 7.76567 98.2664 7.80088L98.4031 7.82041L98.4178 7.82334C98.7689 7.89685 99.0849 8.08264 99.3191 8.35069L99.4148 8.4708L99.4588 8.55186C99.471 8.5825 99.4813 8.61381 99.493 8.64463C99.7094 8.35801 100.015 8.15106 100.363 8.05772C100.373 8.05509 100.383 8.05271 100.393 8.05088C100.675 7.99948 100.961 7.98711 101.245 8.01279L101.528 8.05088L101.58 8.06455C101.923 8.1793 102.223 8.39557 102.44 8.68467C102.46 8.71108 102.477 8.73993 102.489 8.77061C102.559 8.94687 102.62 9.12694 102.673 9.30869C102.872 9.05052 103.159 8.86629 103.489 8.7999C103.971 8.70289 104.468 8.87034 104.794 9.23936C105.102 9.58911 105.209 10.0687 105.086 10.5147V12.7296Z" fill="black"/>
<path d="M101.75 16.8259V13.3741C101.75 13.1675 101.582 13 101.375 13C101.168 13 101 13.1675 101 13.3741V16.8259C101 17.0325 101.168 17.2 101.375 17.2C101.582 17.2 101.75 17.0325 101.75 16.8259Z" fill="black"/>
<path d="M99.77 16.8246L99.75 13.3711C99.7488 13.1649 99.5799 12.9988 99.3728 13C99.1657 13.0012 98.9988 13.1693 99 13.3754L99.02 16.8289C99.0212 17.0351 99.1901 17.2012 99.3972 17.2C99.6043 17.1988 99.7712 17.0307 99.77 16.8246Z" fill="black"/>
<path d="M97 13.379L97.02 16.8254C97.0212 17.0335 97.1901 17.2012 97.3972 17.2C97.6043 17.1988 97.7712 17.0291 97.77 16.821L97.75 13.3746C97.7488 13.1665 97.5799 12.9988 97.3728 13C97.1657 13.0012 96.9988 13.1709 97 13.379Z" fill="black"/>
</g>
<defs>
<filter id="filter0_d_434_9738" x="0" y="21.25" width="156" height="61" filterUnits="userSpaceOnUse" color-interpolation-filters="sRGB">
<feFlood flood-opacity="0" result="BackgroundImageFix"/>
<feColorMatrix in="SourceAlpha" type="matrix" values="0 0 0 0 0 0 0 0 0 0 0 0 0 0 0 0 0 0 127 0" result="hardAlpha"/>
<feOffset dy="1"/>
<feGaussianBlur stdDeviation="1.5"/>
<feComposite in2="hardAlpha" operator="out"/>
<feColorMatrix type="matrix" values="0 0 0 0 0 0 0 0 0 0 0 0 0 0 0 0 0 0 0.05 0"/>
<feBlend mode="normal" in2="BackgroundImageFix" result="effect1_dropShadow_434_9738"/>
<feBlend mode="normal" in="SourceGraphic" in2="effect1_dropShadow_434_9738" result="shape"/>
</filter>
<filter id="filter1_d_434_9738" x="89.1922" y="4.01172" width="16.7426" height="17.8586" filterUnits="userSpaceOnUse" color-interpolation-filters="sRGB">
<feFlood flood-opacity="0" result="BackgroundImageFix"/>
<feColorMatrix in="SourceAlpha" type="matrix" values="0 0 0 0 0 0 0 0 0 0 0 0 0 0 0 0 0 0 127 0" result="hardAlpha"/>
<feOffset dy="1"/>
<feGaussianBlur stdDeviation="0.4"/>
<feColorMatrix type="matrix" values="0 0 0 0 0 0 0 0 0 0 0 0 0 0 0 0 0 0 0.5 0"/>
<feBlend mode="normal" in2="BackgroundImageFix" result="effect1_dropShadow_434_9738"/>
<feBlend mode="normal" in="SourceGraphic" in2="effect1_dropShadow_434_9738" result="shape"/>
</filter>
</defs>
</svg>
