<svg width="226" height="174" viewBox="0 0 226 174" fill="none" xmlns="http://www.w3.org/2000/svg">
<g filter="url(#filter0_d_418_9292)">
<rect x="3" y="2" width="220" height="36" rx="8" fill="#FCFCFC" shape-rendering="crispEdges"/>
<path d="M25.5771 22.5764C25.87 22.2835 26.3447 22.2835 26.6376 22.5764L29.5312 25.4699C29.8239 25.7628 29.824 26.2376 29.5312 26.5305C29.2384 26.8233 28.7636 26.8231 28.4706 26.5305L25.5771 23.6369C25.2842 23.344 25.2842 22.8693 25.5771 22.5764Z" fill="#747474"/>
<path d="M26.917 19.333C26.9168 16.8019 24.8642 14.75 22.333 14.75C19.802 14.7502 17.7502 16.802 17.75 19.333C17.75 21.8642 19.8019 23.9168 22.333 23.917C24.8643 23.917 26.917 21.8643 26.917 19.333ZM28.417 19.333C28.417 22.6927 25.6927 25.417 22.333 25.417C18.9734 25.4168 16.25 22.6926 16.25 19.333C16.2502 15.9735 18.9735 13.2502 22.333 13.25C25.6926 13.25 28.4168 15.9734 28.417 19.333Z" fill="#747474"/>
<path d="M39 20C39 18.6193 39.6229 17.5 40.3913 17.5H101.609C102.377 17.5 103 18.6193 103 20C103 21.3807 102.377 22.5 101.609 22.5H40.3913C39.6229 22.5 39 21.3807 39 20Z" fill="#E4E4E4"/>
</g>
<g filter="url(#filter1_d_418_9292)">
<rect x="3" y="46" width="220" height="36" rx="8" fill="#FCFCFC" shape-rendering="crispEdges"/>
<path d="M15 64C15 62.6193 15.6229 61.5 16.3913 61.5H77.6087C78.3771 61.5 79 62.6193 79 64C79 65.3807 78.3771 66.5 77.6087 66.5H16.3913C15.6229 66.5 15 65.3807 15 64Z" fill="#E4E4E4"/>
<g clip-path="url(#clip0_418_9292)">
<path d="M208.917 64.0004C208.917 60.7328 206.269 58.0835 203.001 58.0834C199.733 58.0834 197.084 60.7327 197.084 64.0004C197.084 67.2679 199.733 69.9164 203.001 69.9164C206.268 69.9162 208.917 67.2678 208.917 64.0004ZM210.417 64.0004C210.417 68.0962 207.097 71.4162 203.001 71.4164C198.905 71.4164 195.584 68.0963 195.584 64.0004C195.584 59.9043 198.905 56.5834 203.001 56.5834C207.097 56.5835 210.417 59.9044 210.417 64.0004Z" fill="#747474"/>
<path d="M202.25 64.0004V61.3334C202.25 60.9192 202.586 60.5834 203 60.5834C203.414 60.5834 203.75 60.9192 203.75 61.3334V64.0004C203.75 64.4144 203.414 64.7504 203 64.7504C202.586 64.7504 202.25 64.4144 202.25 64.0004Z" fill="#747474"/>
<path d="M203.007 65.9166C203.421 65.9167 203.757 66.2525 203.757 66.6666C203.757 67.0808 203.421 67.4165 203.007 67.4166H203C202.586 67.4166 202.25 67.0808 202.25 66.6666C202.25 66.2524 202.586 65.9166 203 65.9166H203.007Z" fill="#747474"/>
</g>
</g>
<g filter="url(#filter2_d_418_9292)">
<rect x="3" y="90" width="220" height="36" rx="8" fill="#FCFCFC" shape-rendering="crispEdges"/>
<path d="M15 108C15 106.619 15.6229 105.5 16.3913 105.5H77.6087C78.3771 105.5 79 106.619 79 108C79 109.381 78.3771 110.5 77.6087 110.5H16.3913C15.6229 110.5 15 109.381 15 108Z" fill="#E4E4E4"/>
<g clip-path="url(#clip1_418_9292)">
<path d="M208.917 108C208.917 104.733 206.269 102.084 203.001 102.083C199.733 102.083 197.084 104.733 197.084 108C197.084 111.268 199.733 113.916 203.001 113.916C206.268 113.916 208.917 111.268 208.917 108ZM210.417 108C210.417 112.096 207.097 115.416 203.001 115.416C198.905 115.416 195.584 112.096 195.584 108C195.584 103.904 198.905 100.583 203.001 100.583C207.097 100.584 210.417 103.904 210.417 108Z" fill="#747474"/>
<path d="M204.47 106.136C204.762 105.844 205.237 105.844 205.53 106.136C205.823 106.429 205.823 106.904 205.53 107.197L202.863 109.864C202.57 110.157 202.095 110.157 201.803 109.864L200.47 108.53C200.177 108.237 200.177 107.762 200.47 107.469C200.762 107.177 201.237 107.177 201.53 107.469L202.333 108.272L204.47 106.136Z" fill="#747474"/>
</g>
</g>
<g filter="url(#filter3_d_418_9292)">
<rect x="3" y="134" width="220" height="36" rx="8" fill="#FCFCFC" shape-rendering="crispEdges"/>
<path d="M15 152C15 150.619 15.6229 149.5 16.3913 149.5H77.6087C78.3771 149.5 79 150.619 79 152C79 153.381 78.3771 154.5 77.6087 154.5H16.3913C15.6229 154.5 15 153.381 15 152Z" fill="#E4E4E4"/>
</g>
<defs>
<filter id="filter0_d_418_9292" x="0" y="0" width="226" height="42" filterUnits="userSpaceOnUse" color-interpolation-filters="sRGB">
<feFlood flood-opacity="0" result="BackgroundImageFix"/>
<feColorMatrix in="SourceAlpha" type="matrix" values="0 0 0 0 0 0 0 0 0 0 0 0 0 0 0 0 0 0 127 0" result="hardAlpha"/>
<feOffset dy="1"/>
<feGaussianBlur stdDeviation="1.5"/>
<feComposite in2="hardAlpha" operator="out"/>
<feColorMatrix type="matrix" values="0 0 0 0 0 0 0 0 0 0 0 0 0 0 0 0 0 0 0.05 0"/>
<feBlend mode="normal" in2="BackgroundImageFix" result="effect1_dropShadow_418_9292"/>
<feBlend mode="normal" in="SourceGraphic" in2="effect1_dropShadow_418_9292" result="shape"/>
</filter>
<filter id="filter1_d_418_9292" x="0" y="44" width="226" height="42" filterUnits="userSpaceOnUse" color-interpolation-filters="sRGB">
<feFlood flood-opacity="0" result="BackgroundImageFix"/>
<feColorMatrix in="SourceAlpha" type="matrix" values="0 0 0 0 0 0 0 0 0 0 0 0 0 0 0 0 0 0 127 0" result="hardAlpha"/>
<feOffset dy="1"/>
<feGaussianBlur stdDeviation="1.5"/>
<feComposite in2="hardAlpha" operator="out"/>
<feColorMatrix type="matrix" values="0 0 0 0 0 0 0 0 0 0 0 0 0 0 0 0 0 0 0.05 0"/>
<feBlend mode="normal" in2="BackgroundImageFix" result="effect1_dropShadow_418_9292"/>
<feBlend mode="normal" in="SourceGraphic" in2="effect1_dropShadow_418_9292" result="shape"/>
</filter>
<filter id="filter2_d_418_9292" x="0" y="88" width="226" height="42" filterUnits="userSpaceOnUse" color-interpolation-filters="sRGB">
<feFlood flood-opacity="0" result="BackgroundImageFix"/>
<feColorMatrix in="SourceAlpha" type="matrix" values="0 0 0 0 0 0 0 0 0 0 0 0 0 0 0 0 0 0 127 0" result="hardAlpha"/>
<feOffset dy="1"/>
<feGaussianBlur stdDeviation="1.5"/>
<feComposite in2="hardAlpha" operator="out"/>
<feColorMatrix type="matrix" values="0 0 0 0 0 0 0 0 0 0 0 0 0 0 0 0 0 0 0.05 0"/>
<feBlend mode="normal" in2="BackgroundImageFix" result="effect1_dropShadow_418_9292"/>
<feBlend mode="normal" in="SourceGraphic" in2="effect1_dropShadow_418_9292" result="shape"/>
</filter>
<filter id="filter3_d_418_9292" x="0" y="132" width="226" height="42" filterUnits="userSpaceOnUse" color-interpolation-filters="sRGB">
<feFlood flood-opacity="0" result="BackgroundImageFix"/>
<feColorMatrix in="SourceAlpha" type="matrix" values="0 0 0 0 0 0 0 0 0 0 0 0 0 0 0 0 0 0 127 0" result="hardAlpha"/>
<feOffset dy="1"/>
<feGaussianBlur stdDeviation="1.5"/>
<feComposite in2="hardAlpha" operator="out"/>
<feColorMatrix type="matrix" values="0 0 0 0 0 0 0 0 0 0 0 0 0 0 0 0 0 0 0.05 0"/>
<feBlend mode="normal" in2="BackgroundImageFix" result="effect1_dropShadow_418_9292"/>
<feBlend mode="normal" in="SourceGraphic" in2="effect1_dropShadow_418_9292" result="shape"/>
</filter>
<clipPath id="clip0_418_9292">
<rect width="16" height="16" fill="white" transform="translate(195 56)"/>
</clipPath>
<clipPath id="clip1_418_9292">
<rect width="16" height="16" fill="white" transform="translate(195 100)"/>
</clipPath>
</defs>
</svg>
