<svg width="186" height="42" viewBox="0 0 186 42" fill="none" xmlns="http://www.w3.org/2000/svg">
<g filter="url(#filter0_d_443_9670)">
<rect x="3" y="2" width="180" height="36" rx="8" fill="#FCFCFC" shape-rendering="crispEdges"/>
<path d="M33 20C33 24.9706 28.9706 29 24 29C19.0294 29 15 24.9706 15 20C15 15.0294 19.0294 11 24 11C28.9706 11 33 15.0294 33 20Z" fill="#525252"/>
<path d="M41 13.5C41 12.1193 42.1193 11 43.5 11H112.5C113.881 11 115 12.1193 115 13.5C115 14.8807 113.881 16 112.5 16H43.5C42.1193 16 41 14.8807 41 13.5Z" fill="#D4D4D4"/>
<path d="M41 26.5C41 25.1193 42.1193 24 43.5 24H150.5C151.881 24 153 25.1193 153 26.5C153 27.8807 151.881 29 150.5 29H43.5C42.1193 29 41 27.8807 41 26.5Z" fill="#E4E4E4"/>
</g>
<defs>
<filter id="filter0_d_443_9670" x="0" y="0" width="186" height="42" filterUnits="userSpaceOnUse" color-interpolation-filters="sRGB">
<feFlood flood-opacity="0" result="BackgroundImageFix"/>
<feColorMatrix in="SourceAlpha" type="matrix" values="0 0 0 0 0 0 0 0 0 0 0 0 0 0 0 0 0 0 127 0" result="hardAlpha"/>
<feOffset dy="1"/>
<feGaussianBlur stdDeviation="1.5"/>
<feComposite in2="hardAlpha" operator="out"/>
<feColorMatrix type="matrix" values="0 0 0 0 0 0 0 0 0 0 0 0 0 0 0 0 0 0 0.05 0"/>
<feBlend mode="normal" in2="BackgroundImageFix" result="effect1_dropShadow_443_9670"/>
<feBlend mode="normal" in="SourceGraphic" in2="effect1_dropShadow_443_9670" result="shape"/>
</filter>
</defs>
</svg>
