<svg width="152" height="72" viewBox="0 0 152 72" fill="none" xmlns="http://www.w3.org/2000/svg">
<rect x="0.5" y="0.5" width="31" height="31" rx="5.5" stroke="#E4E4E4"/>
<path d="M12.8374 21.3196C12.4429 21.3196 12.0817 21.2235 11.7536 21.0313C11.4254 20.8357 11.1636 20.5739 10.968 20.2458C10.7758 19.9176 10.6797 19.5564 10.6797 19.162C10.6797 18.7642 10.7758 18.4013 10.968 18.0732C11.1636 17.7451 11.4254 17.4832 11.7536 17.2877C12.0817 17.0921 12.4429 16.9943 12.8374 16.9943H13.9908V14.9958H12.8374C12.4429 14.9958 12.0817 14.8996 11.7536 14.7074C11.4254 14.5119 11.1636 14.2517 10.968 13.9269C10.7758 13.5987 10.6797 13.2358 10.6797 12.8381C10.6797 12.4404 10.7758 12.0791 10.968 11.7543C11.1636 11.4262 11.4254 11.166 11.7536 10.9737C12.0817 10.7782 12.4429 10.6804 12.8374 10.6804C13.2351 10.6804 13.598 10.7782 13.9261 10.9737C14.2543 11.166 14.5161 11.4262 14.7116 11.7543C14.9072 12.0791 15.005 12.4404 15.005 12.8381V13.9816H17.0036V12.8381C17.0036 12.4404 17.0997 12.0791 17.2919 11.7543C17.4875 11.4262 17.7476 11.166 18.0724 10.9737C18.4006 10.7782 18.7635 10.6804 19.1612 10.6804C19.5589 10.6804 19.9202 10.7782 20.245 10.9737C20.5732 11.166 20.8333 11.4262 21.0256 11.7543C21.2211 12.0791 21.3189 12.4404 21.3189 12.8381C21.3189 13.2358 21.2211 13.5987 21.0256 13.9269C20.8333 14.2517 20.5732 14.5119 20.245 14.7074C19.9202 14.8996 19.5589 14.9958 19.1612 14.9958H18.0178V16.9943H19.1612C19.5589 16.9943 19.9202 17.0921 20.245 17.2877C20.5732 17.4832 20.8333 17.7451 21.0256 18.0732C21.2211 18.4013 21.3189 18.7642 21.3189 19.162C21.3189 19.5564 21.2211 19.9176 21.0256 20.2458C20.8333 20.5739 20.5732 20.8357 20.245 21.0313C19.9202 21.2235 19.5589 21.3196 19.1612 21.3196C18.7635 21.3196 18.4006 21.2235 18.0724 21.0313C17.7476 20.8357 17.4875 20.5739 17.2919 20.2458C17.0997 19.9176 17.0036 19.5564 17.0036 19.162V18.0085H15.005V19.162C15.005 19.5564 14.9072 19.9176 14.7116 20.2458C14.5161 20.5739 14.2543 20.8357 13.9261 21.0313C13.598 21.2235 13.2351 21.3196 12.8374 21.3196ZM12.8374 20.3054C13.0495 20.3054 13.2417 20.254 13.4141 20.1513C13.5897 20.0486 13.7289 19.911 13.8317 19.7387C13.9377 19.563 13.9908 19.3708 13.9908 19.162V18.0085H12.8374C12.6286 18.0085 12.4363 18.0616 12.2607 18.1676C12.0883 18.2704 11.9508 18.4096 11.848 18.5852C11.7453 18.7576 11.6939 18.9498 11.6939 19.162C11.6939 19.3708 11.7453 19.563 11.848 19.7387C11.9508 19.911 12.0883 20.0486 12.2607 20.1513C12.4363 20.254 12.6286 20.3054 12.8374 20.3054ZM12.8374 13.9816H13.9908V12.8381C13.9908 12.626 13.9377 12.4337 13.8317 12.2614C13.7289 12.089 13.5897 11.9515 13.4141 11.8487C13.2417 11.746 13.0495 11.6946 12.8374 11.6946C12.6286 11.6946 12.4363 11.746 12.2607 11.8487C12.0883 11.9515 11.9508 12.089 11.848 12.2614C11.7453 12.4337 11.6939 12.626 11.6939 12.8381C11.6939 13.0502 11.7453 13.2441 11.848 13.4198C11.9508 13.5921 12.0883 13.7297 12.2607 13.8324C12.4363 13.9318 12.6286 13.9816 12.8374 13.9816ZM18.0178 13.9816H19.1612C19.3733 13.9816 19.5656 13.9318 19.7379 13.8324C19.9103 13.7297 20.0478 13.5921 20.1506 13.4198C20.2533 13.2441 20.3047 13.0502 20.3047 12.8381C20.3047 12.626 20.2533 12.4337 20.1506 12.2614C20.0478 12.089 19.9103 11.9515 19.7379 11.8487C19.5656 11.746 19.3733 11.6946 19.1612 11.6946C18.9491 11.6946 18.7552 11.746 18.5795 11.8487C18.4072 11.9515 18.2696 12.089 18.1669 12.2614C18.0675 12.4337 18.0178 12.626 18.0178 12.8381V13.9816ZM19.1612 20.3054C19.3733 20.3054 19.5656 20.254 19.7379 20.1513C19.9103 20.0486 20.0478 19.911 20.1506 19.7387C20.2533 19.563 20.3047 19.3708 20.3047 19.162C20.3047 18.9498 20.2533 18.7576 20.1506 18.5852C20.0478 18.4096 19.9103 18.2704 19.7379 18.1676C19.5656 18.0616 19.3733 18.0085 19.1612 18.0085H18.0178V19.162C18.0178 19.3708 18.0675 19.563 18.1669 19.7387C18.2696 19.911 18.4072 20.0486 18.5795 20.1513C18.7552 20.254 18.9491 20.3054 19.1612 20.3054ZM15.005 16.9943H17.0036V14.9958H15.005V16.9943Z" fill="#525252"/>
<rect x="40.5" y="0.5" width="31" height="31" rx="5.5" stroke="#E4E4E4"/>
<path d="M50.1133 16.3978L55.9996 10.5115L61.886 16.3978H58.8633V21.4887H53.136V16.3978H50.1133ZM52.3455 15.503H54.1303V20.5939H57.869V15.503H59.6538L55.9996 11.8488L52.3455 15.503Z" fill="#525252"/>
<rect x="80.5" y="0.5" width="31" height="31" rx="5.5" stroke="#E4E4E4"/>
<path d="M97.1232 10.9092H101.886V12.0029H97.1232V10.9092ZM90.1133 12.0029V10.9092H94.0309L98.6246 19.9972H101.886V21.091H97.9684L93.3746 12.0029H90.1133Z" fill="#525252"/>
<rect x="120.5" y="0.5" width="31" height="31" rx="5.5" stroke="#E4E4E4"/>
<path d="M132.68 18.4161L131.924 17.6604L136.001 13.5837L140.077 17.6604L139.322 18.4161L136.001 15.105L132.68 18.4161Z" fill="#525252"/>
<rect x="32.2734" y="40.5" width="36.892" height="31" rx="5.5" stroke="#E4E4E4"/>
<path d="M61.6655 50.9089V61.0908H60.4922V50.9089H61.6655Z" fill="#525252"/>
<path d="M55.2832 61.0909V53.4545H56.4167V54.6079H56.4963C56.6355 54.2301 56.8874 53.9235 57.252 53.6882C57.6165 53.4529 58.0275 53.3352 58.4849 53.3352C58.5711 53.3352 58.6788 53.3369 58.8081 53.3402C58.9373 53.3435 59.0351 53.3485 59.1014 53.3551V54.5483C59.0616 54.5383 58.9705 54.5234 58.8279 54.5035C58.6887 54.4803 58.5413 54.4687 58.3855 54.4687C58.0143 54.4687 57.6828 54.5466 57.3912 54.7024C57.1028 54.8549 56.8741 55.067 56.7051 55.3388C56.5394 55.6072 56.4565 55.9138 56.4565 56.2585V61.0909H55.2832Z" fill="#525252"/>
<path d="M53.5179 53.4545V54.4489H49.5605V53.4545H53.5179ZM50.714 51.625H51.8873V58.9034C51.8873 59.2348 51.9353 59.4834 52.0314 59.6491C52.1309 59.8116 52.2568 59.9209 52.4093 59.9773C52.565 60.0303 52.7291 60.0568 52.9015 60.0568C53.0307 60.0568 53.1368 60.0502 53.2196 60.0369C53.3025 60.0204 53.3688 60.0071 53.4185 59.9972L53.6571 61.0511C53.5776 61.081 53.4666 61.1108 53.324 61.1406C53.1815 61.1738 53.0009 61.1903 52.7821 61.1903C52.4507 61.1903 52.1259 61.1191 51.8077 60.9766C51.4928 60.834 51.231 60.617 51.0222 60.3253C50.8167 60.0336 50.714 59.6657 50.714 59.2216V51.625Z" fill="#525252"/>
<path d="M48.3643 54.0908H47.1314C47.0585 53.7362 46.9309 53.4246 46.7486 53.1561C46.5696 52.8877 46.3509 52.6623 46.0923 52.48C45.8371 52.2944 45.5537 52.1552 45.2422 52.0624C44.9306 51.9696 44.6058 51.9232 44.2678 51.9232C43.6513 51.9232 43.0928 52.079 42.5923 52.3905C42.0952 52.7021 41.6991 53.1611 41.4041 53.7676C41.1125 54.3742 40.9666 55.1183 40.9666 55.9999C40.9666 56.8815 41.1125 57.6256 41.4041 58.2321C41.6991 58.8387 42.0952 59.2977 42.5923 59.6093C43.0928 59.9208 43.6513 60.0766 44.2678 60.0766C44.6058 60.0766 44.9306 60.0302 45.2422 59.9374C45.5537 59.8446 45.8371 59.707 46.0923 59.5247C46.3509 59.3391 46.5696 59.1121 46.7486 58.8436C46.9309 58.5719 47.0585 58.2603 47.1314 57.909H48.3643C48.2715 58.4293 48.1025 58.895 47.8572 59.306C47.612 59.717 47.3071 60.0667 46.9425 60.355C46.5779 60.64 46.1686 60.8571 45.7145 61.0063C45.2637 61.1554 44.7815 61.23 44.2678 61.23C43.3994 61.23 42.6271 61.0179 41.951 60.5936C41.2749 60.1694 40.7429 59.5662 40.3551 58.784C39.9673 58.0018 39.7734 57.0738 39.7734 55.9999C39.7734 54.926 39.9673 53.998 40.3551 53.2158C40.7429 52.4336 41.2749 51.8304 41.951 51.4061C42.6271 50.9819 43.3994 50.7698 44.2678 50.7698C44.7815 50.7698 45.2637 50.8443 45.7145 50.9935C46.1686 51.1426 46.5779 51.3614 46.9425 51.6497C47.3071 51.9348 47.612 52.2828 47.8572 52.6938C48.1025 53.1015 48.2715 53.5671 48.3643 54.0908Z" fill="#525252"/>
<path d="M78.3904 59.2812V52.7188H79.5041V59.2812H78.3904ZM75.666 56.5568V55.4432H82.2285V56.5568H75.666Z" fill="#525252"/>
<rect x="88.7285" y="40.5" width="31" height="31" rx="5.5" stroke="#E4E4E4"/>
<path d="M100.689 61.091V50.9092H104.249C104.958 50.9092 105.543 51.0318 106.004 51.2771C106.465 51.519 106.808 51.8455 107.033 52.2565C107.259 52.6642 107.371 53.1166 107.371 53.6137C107.371 54.0512 107.293 54.4125 107.138 54.6975C106.985 54.9826 106.783 55.2079 106.531 55.3737C106.282 55.5394 106.012 55.662 105.721 55.7416V55.841C106.032 55.8609 106.345 55.9703 106.66 56.1691C106.975 56.368 107.239 56.653 107.451 57.0242C107.663 57.3954 107.769 57.8495 107.769 58.3865C107.769 58.8969 107.653 59.3559 107.421 59.7636C107.189 60.1713 106.823 60.4944 106.322 60.733C105.822 60.9717 105.171 61.091 104.368 61.091H100.689ZM101.922 59.9972H104.368C105.174 59.9972 105.746 59.8415 106.084 59.5299C106.425 59.2151 106.596 58.8339 106.596 58.3865C106.596 58.0418 106.508 57.7236 106.332 57.4319C106.157 57.1369 105.906 56.9016 105.581 56.7259C105.257 56.547 104.872 56.4575 104.428 56.4575H101.922V59.9972ZM101.922 55.3836H104.209C104.581 55.3836 104.915 55.3107 105.214 55.1649C105.515 55.019 105.754 54.8135 105.93 54.5484C106.108 54.2832 106.198 53.9717 106.198 53.6137C106.198 53.1663 106.042 52.7868 105.731 52.4752C105.419 52.1604 104.925 52.0029 104.249 52.0029H101.922V55.3836Z" fill="#525252"/>
</svg>
