<svg width="202" height="50" viewBox="0 0 202 50" fill="none" xmlns="http://www.w3.org/2000/svg">
<g filter="url(#filter0_d_443_9677)">
<rect x="3" y="2" width="196" height="44" rx="12" fill="#FCFCFC" shape-rendering="crispEdges"/>
<rect x="11" y="8" width="39" height="32" rx="8" fill="#E4E4E4"/>
<path d="M19 24C19 22.6193 20.1193 21.5 21.5 21.5H39.5C40.8807 21.5 42 22.6193 42 24C42 25.3807 40.8807 26.5 39.5 26.5H21.5C20.1193 26.5 19 25.3807 19 24Z" fill="#747474"/>
<path d="M66 24C66 22.6193 67.1193 21.5 68.5 21.5H86.5C87.8807 21.5 89 22.6193 89 24C89 25.3807 87.8807 26.5 86.5 26.5H68.5C67.1193 26.5 66 25.3807 66 24Z" fill="#747474"/>
<path d="M113 24C113 22.6193 114.119 21.5 115.5 21.5H133.5C134.881 21.5 136 22.6193 136 24C136 25.3807 134.881 26.5 133.5 26.5H115.5C114.119 26.5 113 25.3807 113 24Z" fill="#747474"/>
<path d="M160 24C160 22.6193 161.119 21.5 162.5 21.5H180.5C181.881 21.5 183 22.6193 183 24C183 25.3807 181.881 26.5 180.5 26.5H162.5C161.119 26.5 160 25.3807 160 24Z" fill="#747474"/>
</g>
<defs>
<filter id="filter0_d_443_9677" x="0" y="0" width="202" height="50" filterUnits="userSpaceOnUse" color-interpolation-filters="sRGB">
<feFlood flood-opacity="0" result="BackgroundImageFix"/>
<feColorMatrix in="SourceAlpha" type="matrix" values="0 0 0 0 0 0 0 0 0 0 0 0 0 0 0 0 0 0 127 0" result="hardAlpha"/>
<feOffset dy="1"/>
<feGaussianBlur stdDeviation="1.5"/>
<feComposite in2="hardAlpha" operator="out"/>
<feColorMatrix type="matrix" values="0 0 0 0 0 0 0 0 0 0 0 0 0 0 0 0 0 0 0.05 0"/>
<feBlend mode="normal" in2="BackgroundImageFix" result="effect1_dropShadow_443_9677"/>
<feBlend mode="normal" in="SourceGraphic" in2="effect1_dropShadow_443_9677" result="shape"/>
</filter>
</defs>
</svg>
