<svg width="222" height="142" viewBox="0 0 222 142" fill="none" xmlns="http://www.w3.org/2000/svg">
<g filter="url(#filter0_d_434_9623)">
<mask id="path-1-inside-1_434_9623" fill="white">
<path d="M3 10C3 5.58172 6.58172 2 11 2H211C215.418 2 219 5.58172 219 10V38H3V10Z"/>
</mask>
<path d="M3 10C3 5.58172 6.58172 2 11 2H211C215.418 2 219 5.58172 219 10V38H3V10Z" fill="#FCFCFC"/>
<path d="M3 2H219H3ZM219 38.5H3V37.5H219V38.5ZM3 38V2V38ZM219 2V38V2Z" fill="#E4E4E4" mask="url(#path-1-inside-1_434_9623)"/>
<path d="M51 20C51 18.6193 52.1193 17.5 53.5 17.5H72.5C73.8807 17.5 75 18.6193 75 20C75 21.3807 73.8807 22.5 72.5 22.5H53.5C52.1193 22.5 51 21.3807 51 20Z" fill="#747474"/>
<path d="M83 20C83 18.6193 84.1193 17.5 85.5 17.5H104.5C105.881 17.5 107 18.6193 107 20C107 21.3807 105.881 22.5 104.5 22.5H85.5C84.1193 22.5 83 21.3807 83 20Z" fill="#E4E4E4"/>
<path d="M115 20C115 18.6193 116.119 17.5 117.5 17.5H136.5C137.881 17.5 139 18.6193 139 20C139 21.3807 137.881 22.5 136.5 22.5H117.5C116.119 22.5 115 21.3807 115 20Z" fill="#E4E4E4"/>
<path d="M147 20C147 18.6193 148.119 17.5 149.5 17.5H168.5C169.881 17.5 171 18.6193 171 20C171 21.3807 169.881 22.5 168.5 22.5H149.5C148.119 22.5 147 21.3807 147 20Z" fill="#E4E4E4"/>
<path d="M3 38H219V130C219 134.418 215.418 138 211 138H11C6.58172 138 3 134.418 3 130V38Z" fill="#FCFCFC" fill-opacity="0.5"/>
</g>
<defs>
<filter id="filter0_d_434_9623" x="0" y="0" width="222" height="142" filterUnits="userSpaceOnUse" color-interpolation-filters="sRGB">
<feFlood flood-opacity="0" result="BackgroundImageFix"/>
<feColorMatrix in="SourceAlpha" type="matrix" values="0 0 0 0 0 0 0 0 0 0 0 0 0 0 0 0 0 0 127 0" result="hardAlpha"/>
<feOffset dy="1"/>
<feGaussianBlur stdDeviation="1.5"/>
<feComposite in2="hardAlpha" operator="out"/>
<feColorMatrix type="matrix" values="0 0 0 0 0 0 0 0 0 0 0 0 0 0 0 0 0 0 0.05 0"/>
<feBlend mode="normal" in2="BackgroundImageFix" result="effect1_dropShadow_434_9623"/>
<feBlend mode="normal" in="SourceGraphic" in2="effect1_dropShadow_434_9623" result="shape"/>
</filter>
</defs>
</svg>
