<svg width="230" height="42" viewBox="0 0 230 42" fill="none" xmlns="http://www.w3.org/2000/svg">
<g filter="url(#filter0_d_403_10464)">
<rect x="3" y="2" width="224" height="36" rx="8" fill="#FCFCFC" shape-rendering="crispEdges"/>
<path d="M26.8632 14.3632C27.2147 14.0117 27.7852 14.0117 28.1367 14.3632C28.4881 14.7147 28.4881 15.2852 28.1367 15.6367L23.7734 19.9999L28.1367 24.3632C28.4881 24.7147 28.4881 25.2852 28.1367 25.6367C27.7852 25.9881 27.2147 25.9881 26.8632 25.6367L21.8632 20.6367C21.5117 20.2852 21.5117 19.7147 21.8632 19.3632L26.8632 14.3632Z" fill="#747474"/>
<path d="M47 20C47 18.6193 48.1193 17.5 49.5 17.5H84.5C85.8807 17.5 87 18.6193 87 20C87 21.3807 85.8807 22.5 84.5 22.5H49.5C48.1193 22.5 47 21.3807 47 20Z" fill="#E4E4E4"/>
<path d="M95 20C95 18.6193 96.1193 17.5 97.5 17.5H132.5C133.881 17.5 135 18.6193 135 20C135 21.3807 133.881 22.5 132.5 22.5H97.5C96.1193 22.5 95 21.3807 95 20Z" fill="#E4E4E4"/>
<path d="M143 20C143 18.6193 144.119 17.5 145.5 17.5H180.5C181.881 17.5 183 18.6193 183 20C183 21.3807 181.881 22.5 180.5 22.5H145.5C144.119 22.5 143 21.3807 143 20Z" fill="#E4E4E4"/>
<path d="M201.863 14.3632C202.215 14.0117 202.785 14.0117 203.137 14.3632L208.137 19.3632C208.488 19.7147 208.488 20.2852 208.137 20.6367L203.137 25.6367C202.785 25.9881 202.215 25.9881 201.863 25.6367C201.512 25.2852 201.512 24.7147 201.863 24.3632L206.226 19.9999L201.863 15.6367C201.512 15.2852 201.512 14.7147 201.863 14.3632Z" fill="#747474"/>
</g>
<defs>
<filter id="filter0_d_403_10464" x="0" y="0" width="230" height="42" filterUnits="userSpaceOnUse" color-interpolation-filters="sRGB">
<feFlood flood-opacity="0" result="BackgroundImageFix"/>
<feColorMatrix in="SourceAlpha" type="matrix" values="0 0 0 0 0 0 0 0 0 0 0 0 0 0 0 0 0 0 127 0" result="hardAlpha"/>
<feOffset dy="1"/>
<feGaussianBlur stdDeviation="1.5"/>
<feComposite in2="hardAlpha" operator="out"/>
<feColorMatrix type="matrix" values="0 0 0 0 0 0 0 0 0 0 0 0 0 0 0 0 0 0 0.05 0"/>
<feBlend mode="normal" in2="BackgroundImageFix" result="effect1_dropShadow_403_10464"/>
<feBlend mode="normal" in="SourceGraphic" in2="effect1_dropShadow_403_10464" result="shape"/>
</filter>
</defs>
</svg>
