<svg width="216" height="36" viewBox="0 0 216 36" fill="none" xmlns="http://www.w3.org/2000/svg">
<g clip-path="url(#clip0_434_9598)">
<g filter="url(#filter0_d_434_9598)">
<mask id="path-3-inside-1_434_9598" fill="white">
<path d="M0 8C0 3.58172 3.58172 0 8 0H66V36H8C3.58172 36 0 32.4183 0 28V8Z"/>
</mask>
<path d="M0 8C0 3.58172 3.58172 0 8 0H66V36H8C3.58172 36 0 32.4183 0 28V8Z" fill="#FCFCFC" shape-rendering="crispEdges"/>
<path d="M0 0H66H0ZM66 36H0H66ZM0 36V0V36ZM66.5 0V36H65.5V0H66.5Z" fill="#E4E4E4" mask="url(#path-3-inside-1_434_9598)"/>
<path d="M12 13C12 11.3431 13.3431 10 15 10H33C34.6569 10 36 11.3431 36 13V23C36 24.6569 34.6569 26 33 26H15C13.3431 26 12 24.6569 12 23V13Z" fill="#D4D4D4"/>
<path d="M52.8027 19.4697C53.0956 19.1769 53.5704 19.1768 53.8632 19.4697C54.1559 19.7625 54.1559 20.2374 53.8632 20.5302L50.5292 23.8632C50.2363 24.1561 49.7616 24.1561 49.4687 23.8632L46.1357 20.5302C45.8428 20.2373 45.8428 19.7626 46.1357 19.4697C46.4286 19.1768 46.9033 19.1768 47.1962 19.4697L49.999 22.2724L52.8027 19.4697Z" fill="#747474"/>
<path d="M49.4686 12.1363C49.7615 11.8435 50.2363 11.8436 50.5292 12.1363L53.8631 15.4693C54.1559 15.7621 54.1557 16.237 53.8631 16.5299C53.5703 16.8228 53.0955 16.8228 52.8026 16.5299L49.9989 13.7262L47.1962 16.5299C46.9033 16.8228 46.4285 16.8228 46.1356 16.5299C45.8429 16.237 45.8428 15.7622 46.1356 15.4693L49.4686 12.1363Z" fill="#747474"/>
</g>
<g filter="url(#filter1_d_434_9598)">
<rect width="150" height="36" transform="translate(66)" fill="#FCFCFC"/>
<path d="M78 18C78 16.6193 79.1193 15.5 80.5 15.5H159.5C160.881 15.5 162 16.6193 162 18C162 19.3807 160.881 20.5 159.5 20.5H80.5C79.1193 20.5 78 19.3807 78 18Z" fill="#E4E4E4"/>
</g>
</g>
<rect x="0.25" y="0.25" width="215.5" height="35.5" rx="7.75" stroke="#E4E4E4" stroke-width="0.5"/>
<defs>
<filter id="filter0_d_434_9598" x="-3" y="-2" width="72" height="42" filterUnits="userSpaceOnUse" color-interpolation-filters="sRGB">
<feFlood flood-opacity="0" result="BackgroundImageFix"/>
<feColorMatrix in="SourceAlpha" type="matrix" values="0 0 0 0 0 0 0 0 0 0 0 0 0 0 0 0 0 0 127 0" result="hardAlpha"/>
<feOffset dy="1"/>
<feGaussianBlur stdDeviation="1.5"/>
<feComposite in2="hardAlpha" operator="out"/>
<feColorMatrix type="matrix" values="0 0 0 0 0 0 0 0 0 0 0 0 0 0 0 0 0 0 0.05 0"/>
<feBlend mode="normal" in2="BackgroundImageFix" result="effect1_dropShadow_434_9598"/>
<feBlend mode="normal" in="SourceGraphic" in2="effect1_dropShadow_434_9598" result="shape"/>
</filter>
<filter id="filter1_d_434_9598" x="63" y="-2" width="156" height="42" filterUnits="userSpaceOnUse" color-interpolation-filters="sRGB">
<feFlood flood-opacity="0" result="BackgroundImageFix"/>
<feColorMatrix in="SourceAlpha" type="matrix" values="0 0 0 0 0 0 0 0 0 0 0 0 0 0 0 0 0 0 127 0" result="hardAlpha"/>
<feOffset dy="1"/>
<feGaussianBlur stdDeviation="1.5"/>
<feComposite in2="hardAlpha" operator="out"/>
<feColorMatrix type="matrix" values="0 0 0 0 0 0 0 0 0 0 0 0 0 0 0 0 0 0 0.05 0"/>
<feBlend mode="normal" in2="BackgroundImageFix" result="effect1_dropShadow_434_9598"/>
<feBlend mode="normal" in="SourceGraphic" in2="effect1_dropShadow_434_9598" result="shape"/>
</filter>
<clipPath id="clip0_434_9598">
<rect width="216" height="36" rx="8" fill="white"/>
</clipPath>
</defs>
</svg>
