<svg width="116" height="104" viewBox="0 0 116 104" fill="none" xmlns="http://www.w3.org/2000/svg">
<g filter="url(#filter0_d_434_9747)">
<path d="M58.6377 47L49.1113 38H11C6.58172 38 3 34.4183 3 30V10C3 5.58172 6.58172 2 11 2H105C109.418 2 113 5.58172 113 10V30C113 34.4183 109.418 38 105 38H68.1641L58.6377 47Z" fill="#FCFCFC"/>
</g>
<path d="M34 20.5C34 19.1193 35.1193 18 36.5 18H79.5C80.8807 18 82 19.1193 82 20.5C82 21.8807 80.8807 23 79.5 23H36.5C35.1193 23 34 21.8807 34 20.5Z" fill="#D4D4D4"/>
<g filter="url(#filter1_d_434_9747)">
<rect x="14" y="55" width="88" height="37" rx="8" fill="#747474" shape-rendering="crispEdges"/>
<path d="M38 73.5C38 72.1193 39.1193 71 40.5 71H75.5C76.8807 71 78 72.1193 78 73.5C78 74.8807 76.8807 76 75.5 76H40.5C39.1193 76 38 74.8807 38 73.5Z" fill="#D4D4D4"/>
</g>
<g filter="url(#filter2_d_434_9747)">
<path d="M93.2708 96.2799C92.9908 95.9199 92.6408 95.1899 92.0308 94.2799C91.6808 93.7799 90.8208 92.8299 90.5608 92.3399C90.3734 92.0422 90.319 91.6796 90.4108 91.3399C90.5678 90.6941 91.1804 90.2657 91.8408 90.3399C92.3516 90.4425 92.8211 90.6929 93.1908 91.0599C93.449 91.3031 93.6865 91.5673 93.9008 91.8499C94.0608 92.0499 94.1008 92.1299 94.2808 92.3599C94.4608 92.5899 94.5808 92.8199 94.4908 92.4799C94.4208 91.9799 94.3008 91.1399 94.1308 90.3899C94.0008 89.8199 93.9708 89.7299 93.8508 89.2999C93.7308 88.8699 93.6608 88.5099 93.5308 88.0199C93.412 87.5385 93.3186 87.0512 93.2508 86.5599C93.1248 85.9316 93.2165 85.2791 93.5108 84.7099C93.8602 84.3813 94.3728 84.2946 94.8108 84.4899C95.2514 84.8153 95.58 85.2696 95.7508 85.7899C96.0129 86.4303 96.1878 87.103 96.2708 87.7899C96.4308 88.7899 96.7408 90.2499 96.7508 90.5499C96.7508 90.1799 96.6808 89.3999 96.7508 89.0499C96.8202 88.6851 97.0738 88.3822 97.4208 88.2499C97.7187 88.1586 98.0337 88.138 98.3408 88.1899C98.6509 88.2547 98.9255 88.4331 99.1108 88.6899C99.3425 89.2733 99.4711 89.8925 99.4908 90.5199C99.5176 89.9705 99.6117 89.4265 99.7708 88.8999C99.938 88.6645 100.182 88.4947 100.461 88.4199C100.791 88.3595 101.13 88.3595 101.461 88.4199C101.732 88.5106 101.969 88.6814 102.141 88.9099C102.353 89.4403 102.481 90.0003 102.521 90.5699C102.521 90.7099 102.591 90.1799 102.811 89.8299C102.925 89.4905 103.212 89.2379 103.563 89.1672C103.914 89.0965 104.276 89.2185 104.513 89.4872C104.75 89.7559 104.825 90.1305 104.711 90.4699C104.711 91.1199 104.711 91.0899 104.711 91.5299C104.711 91.9699 104.711 92.3599 104.711 92.7299C104.674 93.3151 104.594 93.8967 104.471 94.4699C104.297 94.977 104.055 95.4581 103.751 95.8999C103.265 96.4399 102.864 97.0501 102.561 97.7099C102.486 98.0377 102.452 98.3737 102.461 98.7099C102.46 99.0206 102.5 99.3299 102.581 99.6299C102.172 99.6731 101.76 99.6731 101.351 99.6299C100.961 99.5699 100.481 98.7899 100.351 98.5499C100.287 98.4211 100.155 98.3396 100.011 98.3396C99.8668 98.3396 99.7352 98.4211 99.6708 98.5499C99.4508 98.9299 98.9608 99.6199 98.6208 99.6599C97.9508 99.7399 96.5708 99.6599 95.4808 99.6599C95.4808 99.6599 95.6608 98.6599 95.2508 98.2999C94.8408 97.9399 94.4208 97.5199 94.1108 97.2399L93.2708 96.2799Z" fill="white"/>
<path d="M104.336 90.4698C104.336 90.4293 104.342 90.3891 104.355 90.3507C104.427 90.1383 104.379 89.9036 104.231 89.7355C104.083 89.5673 103.856 89.491 103.637 89.5353C103.417 89.5796 103.237 89.7371 103.166 89.9493C103.156 89.9773 103.143 90.0044 103.128 90.0294C103.048 90.1569 102.987 90.3343 102.944 90.4864C102.934 90.5225 102.925 90.5557 102.917 90.5851C102.91 90.6117 102.902 90.6422 102.896 90.6642C102.893 90.6747 102.888 90.6924 102.882 90.7101C102.879 90.7183 102.873 90.7354 102.863 90.755C102.862 90.7564 102.829 90.8324 102.751 90.8917C102.702 90.9289 102.59 90.9918 102.442 90.9591C102.303 90.9283 102.231 90.8335 102.206 90.7931C102.16 90.72 102.152 90.6478 102.151 90.6446C102.148 90.6265 102.148 90.6094 102.147 90.5958L102.146 90.5968C102.11 90.0855 101.998 89.5825 101.813 89.1046C101.695 88.9596 101.541 88.8489 101.365 88.7853C101.093 88.7389 100.816 88.7386 100.545 88.7862C100.373 88.8352 100.223 88.937 100.111 89.0753C99.9727 89.5517 99.8892 90.0425 99.865 90.5382C99.8552 90.7392 99.6884 90.8964 99.4871 90.8946C99.286 90.8927 99.1223 90.7324 99.116 90.5313C99.0981 89.9638 98.9835 89.4037 98.7791 88.8741C98.6511 88.7142 98.4722 88.6025 98.2713 88.5587C98.0284 88.5187 97.7796 88.5344 97.5438 88.6046C97.3237 88.6926 97.1633 88.8869 97.1189 89.1202L97.118 89.1231C97.0928 89.2489 97.0904 89.4885 97.0994 89.7813C97.1075 90.0454 97.1258 90.3593 97.1258 90.5499C97.1258 90.7546 96.9613 90.9215 96.7566 90.9249C96.5521 90.9282 96.3826 90.767 96.3758 90.5626C96.3743 90.5178 96.3581 90.3966 96.324 90.1954C96.2917 90.0044 96.2475 89.765 96.1981 89.5011C96.0999 88.9768 95.9812 88.3557 95.9002 87.8497C95.8994 87.845 95.8988 87.8398 95.8982 87.8351C95.8192 87.1815 95.6525 86.5411 95.4031 85.9317C95.3999 85.9237 95.397 85.9155 95.3943 85.9073C95.2521 85.4744 94.9819 85.0956 94.6209 84.8185C94.3481 84.7123 94.0409 84.7609 93.8143 84.9444C93.6136 85.3607 93.5338 85.824 93.5857 86.2813L93.618 86.4864L93.6219 86.5089C93.6875 86.985 93.7784 87.4573 93.8934 87.9239L94.0594 88.5958C94.1081 88.8007 94.1539 88.992 94.2117 89.1993C94.2718 89.4147 94.3099 89.5468 94.3494 89.6974L94.4959 90.3067C94.6675 91.064 94.7889 91.9066 94.8592 92.4083C94.8687 92.4453 94.8766 92.4798 94.8826 92.5108C94.8881 92.5394 94.8992 92.5978 94.8953 92.6603C94.8938 92.6847 94.8877 92.7712 94.8289 92.8585C94.7945 92.9095 94.7398 92.9639 94.6609 92.9972C94.5831 93.03 94.5089 93.0314 94.4529 93.0226C94.3561 93.0072 94.2914 92.9583 94.2732 92.9444C94.2465 92.924 94.2257 92.9034 94.2137 92.8907C94.1724 92.8468 94.1271 92.7829 94.0984 92.7433C94.0619 92.6928 94.0249 92.6416 93.9852 92.5909C93.89 92.4693 93.8311 92.3861 93.7781 92.3116C93.7267 92.2394 93.6814 92.1756 93.6082 92.0841L93.6014 92.0763V92.0753C93.3998 91.8097 93.1761 91.5617 92.9334 91.3331L92.9266 91.3263C92.6126 91.0146 92.2149 90.8011 91.782 90.711C91.3157 90.6669 90.8862 90.9719 90.7752 91.4288L90.7732 91.4376H90.7723C90.7159 91.6463 90.7383 91.8676 90.8328 92.0597L90.8777 92.1407L90.8924 92.1642C91.0021 92.371 91.2556 92.7018 91.5535 93.0714C91.8357 93.4213 92.153 93.8008 92.3377 94.0646L92.3426 94.0714C92.6546 94.5369 92.8994 94.9562 93.0984 95.298C93.301 95.6458 93.4426 95.8887 93.5623 96.044L94.3777 96.9767C94.5336 97.1181 94.7154 97.2916 94.9012 97.4679C95.0959 97.6526 95.2987 97.8438 95.4979 98.0187C95.6745 98.1738 95.7683 98.3793 95.8201 98.5626C95.8726 98.7483 95.8908 98.9418 95.8943 99.1075C95.8957 99.1718 95.8926 99.2338 95.8904 99.2921C96.3292 99.2981 96.7926 99.3081 97.2147 99.3155C97.7845 99.3256 98.2709 99.3236 98.576 99.2872H98.577C98.5593 99.2893 98.5872 99.2893 98.6658 99.2276C98.7364 99.1723 98.8188 99.0904 98.9061 98.9884C98.993 98.8867 99.0776 98.7742 99.1531 98.6651L99.3465 98.3624C99.4778 98.1183 99.7322 97.965 100.011 97.9649C100.292 97.9649 100.55 98.122 100.679 98.3712C100.737 98.4778 100.879 98.7132 101.047 98.9239C101.131 99.0293 101.214 99.1186 101.289 99.1817C101.353 99.2352 101.391 99.2531 101.403 99.2579C101.644 99.2828 101.886 99.2895 102.128 99.2823C102.1 99.0927 102.085 98.9012 102.086 98.7091C102.077 98.345 102.114 97.9811 102.195 97.6261C102.201 97.6012 102.209 97.577 102.22 97.5538C102.534 96.8701 102.948 96.2366 103.449 95.6749C103.726 95.2701 103.947 94.8305 104.108 94.3673C104.224 93.8227 104.301 93.2706 104.336 92.7149V90.4698ZM105.086 92.7296C105.086 92.7373 105.085 92.7454 105.085 92.753C105.047 93.3569 104.965 93.9574 104.838 94.5489C104.835 94.5634 104.83 94.5779 104.825 94.5919C104.64 95.1311 104.382 95.6426 104.059 96.1124C104.05 96.1258 104.04 96.1384 104.029 96.1505C103.579 96.6516 103.205 97.2169 102.92 97.8272C102.857 98.1138 102.828 98.4069 102.836 98.7003V98.711C102.835 98.9883 102.871 99.2646 102.943 99.5323C102.972 99.6383 102.952 99.7514 102.889 99.8419C102.827 99.9324 102.729 99.9915 102.62 100.003C102.185 100.049 101.746 100.049 101.311 100.003C101.306 100.002 101.3 100.002 101.294 100.001C101.096 99.9707 100.929 99.8589 100.807 99.7569C100.679 99.6495 100.561 99.5177 100.46 99.3907C100.258 99.1366 100.094 98.8621 100.021 98.7286L100.014 98.7179V98.7169C100.014 98.7156 100.012 98.7149 100.011 98.7149C100.009 98.715 100.007 98.7162 100.007 98.7179C100.003 98.7248 99.9988 98.7317 99.9949 98.7384C99.8763 98.9432 99.6859 99.2306 99.4754 99.4767C99.3703 99.5994 99.2524 99.7214 99.1287 99.8185C99.0419 99.8866 98.9294 99.96 98.7996 100.002L98.6648 100.032C98.3 100.076 97.7617 100.074 97.202 100.065C96.6285 100.054 96.0212 100.035 95.4803 100.035C95.3694 100.035 95.2643 99.9856 95.1932 99.9005C95.122 99.8154 95.0916 99.7031 95.1111 99.5938C95.1113 99.5929 95.1117 99.5906 95.1121 99.588C95.113 99.5826 95.1153 99.5734 95.117 99.5616C95.1205 99.538 95.1251 99.5028 95.1297 99.4591C95.139 99.3703 95.147 99.2504 95.1443 99.1231C95.1416 98.994 95.1275 98.8697 95.0984 98.7667C95.0688 98.6618 95.032 98.6072 95.0037 98.5821C94.7929 98.397 94.5799 98.1971 94.3846 98.0118C94.187 97.8244 94.0096 97.6545 93.8592 97.5187C93.8485 97.509 93.8385 97.4983 93.8289 97.4874L92.9881 96.5274C92.9833 96.522 92.9789 96.5156 92.9744 96.5099C92.8151 96.305 92.6422 96.005 92.45 95.6749C92.2524 95.3357 92.0194 94.9362 91.7234 94.4942C91.5581 94.2581 91.2695 93.9141 90.9695 93.5421C90.693 93.1992 90.3984 92.8201 90.2439 92.5392C90.0008 92.1528 89.9296 91.6829 90.0486 91.2423H90.0496C90.2419 90.47 90.9416 89.9421 91.7244 89.9571L91.8826 89.9669L91.9148 89.9728C92.4942 90.0892 93.0264 90.3724 93.4471 90.7872H93.4481C93.6158 90.9453 93.7739 91.113 93.9246 91.2872C93.877 91.017 93.8247 90.7385 93.7645 90.4728V90.4718C93.6369 89.9126 93.6087 89.8293 93.4891 89.4005C93.427 89.1781 93.3786 88.9745 93.3299 88.7696C93.2809 88.5636 93.2313 88.3558 93.1678 88.1163L93.1668 88.1095C93.0449 87.6155 92.9482 87.1155 92.8787 86.6114V86.6105C92.7428 85.9059 92.8478 85.176 93.1775 84.5382L93.2117 84.4845C93.2245 84.4676 93.2382 84.4512 93.2537 84.4366C93.6845 84.0315 94.3039 83.9061 94.8543 84.1036L94.9637 84.1476L95.033 84.1886C95.5289 84.5547 95.9 85.0641 96.0975 85.6476C96.3704 86.3145 96.5536 87.0153 96.6414 87.7306L96.7361 88.2774C96.886 88.1132 97.0724 87.9813 97.2869 87.8995C97.2946 87.8966 97.3025 87.8941 97.3104 87.8917C97.6199 87.7967 97.9455 87.7657 98.2664 87.8009L98.4031 87.8204L98.4178 87.8233C98.7689 87.8969 99.0849 88.0826 99.3191 88.3507L99.4148 88.4708L99.4588 88.5519C99.471 88.5825 99.4813 88.6138 99.493 88.6446C99.7094 88.358 100.015 88.1511 100.363 88.0577C100.373 88.0551 100.383 88.0527 100.393 88.0509C100.675 87.9995 100.961 87.9871 101.245 88.0128L101.528 88.0509L101.58 88.0646C101.923 88.1793 102.223 88.3956 102.44 88.6847C102.46 88.7111 102.477 88.7399 102.489 88.7706C102.559 88.9469 102.62 89.1269 102.673 89.3087C102.872 89.0505 103.159 88.8663 103.489 88.7999C103.971 88.7029 104.468 88.8703 104.794 89.2394C105.102 89.5891 105.209 90.0687 105.086 90.5147V92.7296Z" fill="black"/>
<path d="M101.75 96.8259V93.3741C101.75 93.1675 101.582 93 101.375 93C101.168 93 101 93.1675 101 93.3741V96.8259C101 97.0325 101.168 97.2 101.375 97.2C101.582 97.2 101.75 97.0325 101.75 96.8259Z" fill="black"/>
<path d="M99.77 96.8246L99.75 93.3711C99.7488 93.1649 99.5799 92.9988 99.3728 93C99.1657 93.0012 98.9988 93.1693 99 93.3754L99.02 96.8289C99.0212 97.0351 99.1901 97.2012 99.3972 97.2C99.6043 97.1988 99.7712 97.0307 99.77 96.8246Z" fill="black"/>
<path d="M97 93.379L97.02 96.8254C97.0212 97.0335 97.1901 97.2012 97.3972 97.2C97.6043 97.1988 97.7712 97.0291 97.77 96.821L97.75 93.3746C97.7488 93.1665 97.5799 92.9988 97.3728 93C97.1657 93.0012 96.9988 93.1709 97 93.379Z" fill="black"/>
</g>
<defs>
<filter id="filter0_d_434_9747" x="0" y="0" width="116" height="51" filterUnits="userSpaceOnUse" color-interpolation-filters="sRGB">
<feFlood flood-opacity="0" result="BackgroundImageFix"/>
<feColorMatrix in="SourceAlpha" type="matrix" values="0 0 0 0 0 0 0 0 0 0 0 0 0 0 0 0 0 0 127 0" result="hardAlpha"/>
<feOffset dy="1"/>
<feGaussianBlur stdDeviation="1.5"/>
<feComposite in2="hardAlpha" operator="out"/>
<feColorMatrix type="matrix" values="0 0 0 0 0 0 0 0 0 0 0 0 0 0 0 0 0 0 0.05 0"/>
<feBlend mode="normal" in2="BackgroundImageFix" result="effect1_dropShadow_434_9747"/>
<feBlend mode="normal" in="SourceGraphic" in2="effect1_dropShadow_434_9747" result="shape"/>
</filter>
<filter id="filter1_d_434_9747" x="11" y="53" width="94" height="43" filterUnits="userSpaceOnUse" color-interpolation-filters="sRGB">
<feFlood flood-opacity="0" result="BackgroundImageFix"/>
<feColorMatrix in="SourceAlpha" type="matrix" values="0 0 0 0 0 0 0 0 0 0 0 0 0 0 0 0 0 0 127 0" result="hardAlpha"/>
<feOffset dy="1"/>
<feGaussianBlur stdDeviation="1.5"/>
<feComposite in2="hardAlpha" operator="out"/>
<feColorMatrix type="matrix" values="0 0 0 0 0 0 0 0 0 0 0 0 0 0 0 0 0 0 0.05 0"/>
<feBlend mode="normal" in2="BackgroundImageFix" result="effect1_dropShadow_434_9747"/>
<feBlend mode="normal" in="SourceGraphic" in2="effect1_dropShadow_434_9747" result="shape"/>
</filter>
<filter id="filter2_d_434_9747" x="89.1922" y="84.0117" width="16.7426" height="17.8586" filterUnits="userSpaceOnUse" color-interpolation-filters="sRGB">
<feFlood flood-opacity="0" result="BackgroundImageFix"/>
<feColorMatrix in="SourceAlpha" type="matrix" values="0 0 0 0 0 0 0 0 0 0 0 0 0 0 0 0 0 0 127 0" result="hardAlpha"/>
<feOffset dy="1"/>
<feGaussianBlur stdDeviation="0.4"/>
<feColorMatrix type="matrix" values="0 0 0 0 0 0 0 0 0 0 0 0 0 0 0 0 0 0 0.5 0"/>
<feBlend mode="normal" in2="BackgroundImageFix" result="effect1_dropShadow_434_9747"/>
<feBlend mode="normal" in="SourceGraphic" in2="effect1_dropShadow_434_9747" result="shape"/>
</filter>
</defs>
</svg>
