<svg width="206" height="100" viewBox="0 0 206 100" fill="none" xmlns="http://www.w3.org/2000/svg">
<g filter="url(#filter0_d_434_9568)">
<rect x="3" y="2" width="200" height="94" rx="12" fill="#FCFCFC" shape-rendering="crispEdges"/>
<path d="M86.8008 96H86.001V2H86.8008V96Z" fill="#D4D4D4"/>
<path d="M203 48.2002V49H86V48.2002H203Z" fill="#D4D4D4"/>
<g filter="url(#filter1_d_434_9568)">
<path d="M79.41 27L83 23.41V26H89V23.42L92.58 27L89 30.59V28H83V30.59L79.41 27ZM78 27L84 33V29H88V33L94 27L88 21V25H84V21L78 27Z" fill="white"/>
<path d="M86.5002 27.9999H89.0202V30.5899L92.5802 26.9999L89.0202 23.4199V26.0199H86.5002H83.0002V23.4199L79.4102 26.9999L83.0002 30.5899V27.9999H86.5002Z" fill="black"/>
</g>
<g filter="url(#filter2_d_434_9568)">
<path d="M151 41.41L154.59 45H152V51H154.59L151 54.59L147.41 51H150V45H147.41L151 41.41ZM151 40L145 46H149V50H145L151 56L157 50H153V46H157L151 40Z" fill="white"/>
<path d="M152 47.4999V44.9799H154.59L151 41.4099L147.41 44.9799H150V47.4999V50.9999H147.41L151 54.5899L154.59 50.9999H152V47.4999Z" fill="black"/>
</g>
</g>
<defs>
<filter id="filter0_d_434_9568" x="0" y="0" width="206" height="100" filterUnits="userSpaceOnUse" color-interpolation-filters="sRGB">
<feFlood flood-opacity="0" result="BackgroundImageFix"/>
<feColorMatrix in="SourceAlpha" type="matrix" values="0 0 0 0 0 0 0 0 0 0 0 0 0 0 0 0 0 0 127 0" result="hardAlpha"/>
<feOffset dy="1"/>
<feGaussianBlur stdDeviation="1.5"/>
<feComposite in2="hardAlpha" operator="out"/>
<feColorMatrix type="matrix" values="0 0 0 0 0 0 0 0 0 0 0 0 0 0 0 0 0 0 0.05 0"/>
<feBlend mode="normal" in2="BackgroundImageFix" result="effect1_dropShadow_434_9568"/>
<feBlend mode="normal" in="SourceGraphic" in2="effect1_dropShadow_434_9568" result="shape"/>
</filter>
<filter id="filter1_d_434_9568" x="76.2" y="20.2" width="19.6" height="15.6" filterUnits="userSpaceOnUse" color-interpolation-filters="sRGB">
<feFlood flood-opacity="0" result="BackgroundImageFix"/>
<feColorMatrix in="SourceAlpha" type="matrix" values="0 0 0 0 0 0 0 0 0 0 0 0 0 0 0 0 0 0 127 0" result="hardAlpha"/>
<feOffset dy="1"/>
<feGaussianBlur stdDeviation="0.9"/>
<feColorMatrix type="matrix" values="0 0 0 0 0 0 0 0 0 0 0 0 0 0 0 0 0 0 0.65 0"/>
<feBlend mode="normal" in2="BackgroundImageFix" result="effect1_dropShadow_434_9568"/>
<feBlend mode="normal" in="SourceGraphic" in2="effect1_dropShadow_434_9568" result="shape"/>
</filter>
<filter id="filter2_d_434_9568" x="143.2" y="39.2" width="15.6" height="19.6" filterUnits="userSpaceOnUse" color-interpolation-filters="sRGB">
<feFlood flood-opacity="0" result="BackgroundImageFix"/>
<feColorMatrix in="SourceAlpha" type="matrix" values="0 0 0 0 0 0 0 0 0 0 0 0 0 0 0 0 0 0 127 0" result="hardAlpha"/>
<feOffset dy="1"/>
<feGaussianBlur stdDeviation="0.9"/>
<feColorMatrix type="matrix" values="0 0 0 0 0 0 0 0 0 0 0 0 0 0 0 0 0 0 0.65 0"/>
<feBlend mode="normal" in2="BackgroundImageFix" result="effect1_dropShadow_434_9568"/>
<feBlend mode="normal" in="SourceGraphic" in2="effect1_dropShadow_434_9568" result="shape"/>
</filter>
</defs>
</svg>
