<svg width="226" height="42" viewBox="0 0 226 42" fill="none" xmlns="http://www.w3.org/2000/svg">
<g filter="url(#filter0_d_403_10517)">
<rect x="3" y="2" width="220" height="36" rx="8" fill="#FCFCFC" shape-rendering="crispEdges"/>
<path d="M15 20C15 18.6193 15.6229 17.5 16.3913 17.5H77.6087C78.3771 17.5 79 18.6193 79 20C79 21.3807 78.3771 22.5 77.6087 22.5H16.3913C15.6229 22.5 15 21.3807 15 20Z" fill="#E4E4E4"/>
<path d="M206.363 17.3632C206.715 17.0117 207.285 17.0117 207.637 17.3632C207.988 17.7147 207.988 18.2852 207.637 18.6367L203.637 22.6367C203.285 22.9881 202.715 22.9881 202.363 22.6367L198.363 18.6367C198.012 18.2852 198.012 17.7147 198.363 17.3632C198.715 17.0117 199.285 17.0117 199.637 17.3632L203 20.7265L206.363 17.3632Z" fill="#747474"/>
</g>
<defs>
<filter id="filter0_d_403_10517" x="0" y="0" width="226" height="42" filterUnits="userSpaceOnUse" color-interpolation-filters="sRGB">
<feFlood flood-opacity="0" result="BackgroundImageFix"/>
<feColorMatrix in="SourceAlpha" type="matrix" values="0 0 0 0 0 0 0 0 0 0 0 0 0 0 0 0 0 0 127 0" result="hardAlpha"/>
<feOffset dy="1"/>
<feGaussianBlur stdDeviation="1.5"/>
<feComposite in2="hardAlpha" operator="out"/>
<feColorMatrix type="matrix" values="0 0 0 0 0 0 0 0 0 0 0 0 0 0 0 0 0 0 0.05 0"/>
<feBlend mode="normal" in2="BackgroundImageFix" result="effect1_dropShadow_403_10517"/>
<feBlend mode="normal" in="SourceGraphic" in2="effect1_dropShadow_403_10517" result="shape"/>
</filter>
</defs>
</svg>
