<svg width="156" height="93" viewBox="0 0 156 93" fill="none" xmlns="http://www.w3.org/2000/svg">
<path d="M0 2.5C0 1.11929 1.11929 0 2.5 0H71.5C72.8807 0 74 1.11929 74 2.5C74 3.88071 72.8807 5 71.5 5H2.5C1.11929 5 0 3.88071 0 2.5Z" fill="#A4A4A4"/>
<path d="M156 17V17.5H0V17H156Z" fill="#747474"/>
<path d="M0 32C0 30.6193 1.11929 29.5 2.5 29.5H153.5C154.881 29.5 156 30.6193 156 32C156 33.3807 154.881 34.5 153.5 34.5H2.5C1.11929 34.5 0 33.3807 0 32Z" fill="#E4E4E4"/>
<path d="M0 45C0 43.6193 1.11929 42.5 2.5 42.5H153.5C154.881 42.5 156 43.6193 156 45C156 46.3807 154.881 47.5 153.5 47.5H2.5C1.11929 47.5 0 46.3807 0 45Z" fill="#E4E4E4"/>
<path d="M0 58C0 56.6193 1.11929 55.5 2.5 55.5H39.5C40.8807 55.5 42 56.6193 42 58C42 59.3807 40.8807 60.5 39.5 60.5H2.5C1.11929 60.5 0 59.3807 0 58Z" fill="#E4E4E4"/>
<path d="M156 72.5V73H0V72.5H156Z" fill="#747474"/>
<path d="M0 89C0 87.6193 1.11929 86.5 2.5 86.5H21.5C22.8807 86.5 24 87.6193 24 89C24 90.3807 22.8807 91.5 21.5 91.5H2.5C1.11929 91.5 0 90.3807 0 89Z" fill="#A4A4A4"/>
<path d="M32 85H32.5V93H32V85Z" fill="#747474"/>
<path d="M40.5 89C40.5 87.6193 41.6193 86.5 43 86.5H62C63.3807 86.5 64.5 87.6193 64.5 89C64.5 90.3807 63.3807 91.5 62 91.5H43C41.6193 91.5 40.5 90.3807 40.5 89Z" fill="#A4A4A4"/>
<path d="M72.5 85H73V93H72.5V85Z" fill="#747474"/>
<path d="M81 89C81 87.6193 82.1193 86.5 83.5 86.5H102.5C103.881 86.5 105 87.6193 105 89C105 90.3807 103.881 91.5 102.5 91.5H83.5C82.1193 91.5 81 90.3807 81 89Z" fill="#A4A4A4"/>
</svg>
