<svg width="103" height="230" viewBox="0 0 103 230" fill="none" xmlns="http://www.w3.org/2000/svg">
<g filter="url(#filter0_d_432_9513)">
<rect width="100" height="230" transform="translate(3)" fill="#FCFCFC"/>
<path d="M11 14.5C11 13.1193 12.1193 12 13.5 12H51.5C52.8807 12 54 13.1193 54 14.5C54 15.8807 52.8807 17 51.5 17H13.5C12.1193 17 11 15.8807 11 14.5Z" fill="#D4D4D4"/>
<path d="M11 27.5C11 26.1193 12.1193 25 13.5 25H92.5C93.8807 25 95 26.1193 95 27.5C95 28.8807 93.8807 30 92.5 30H13.5C12.1193 30 11 28.8807 11 27.5Z" fill="#E4E4E4"/>
<path d="M11 40.5C11 39.1193 12.1193 38 13.5 38H92.5C93.8807 38 95 39.1193 95 40.5C95 41.8807 93.8807 43 92.5 43H13.5C12.1193 43 11 41.8807 11 40.5Z" fill="#E4E4E4"/>
</g>
<defs>
<filter id="filter0_d_432_9513" x="0" y="-2" width="106" height="236" filterUnits="userSpaceOnUse" color-interpolation-filters="sRGB">
<feFlood flood-opacity="0" result="BackgroundImageFix"/>
<feColorMatrix in="SourceAlpha" type="matrix" values="0 0 0 0 0 0 0 0 0 0 0 0 0 0 0 0 0 0 127 0" result="hardAlpha"/>
<feOffset dy="1"/>
<feGaussianBlur stdDeviation="1.5"/>
<feComposite in2="hardAlpha" operator="out"/>
<feColorMatrix type="matrix" values="0 0 0 0 0 0 0 0 0 0 0 0 0 0 0 0 0 0 0.05 0"/>
<feBlend mode="normal" in2="BackgroundImageFix" result="effect1_dropShadow_432_9513"/>
<feBlend mode="normal" in="SourceGraphic" in2="effect1_dropShadow_432_9513" result="shape"/>
</filter>
</defs>
</svg>
