<svg width="103" height="230" viewBox="0 0 103 230" fill="none" xmlns="http://www.w3.org/2000/svg">
<g filter="url(#filter0_d_434_9520)">
<rect width="100" height="230" fill="#FCFCFC"/>
<path d="M8 14.5C8 13.1193 9.11929 12 10.5 12H48.5C49.8807 12 51 13.1193 51 14.5C51 15.8807 49.8807 17 48.5 17H10.5C9.11929 17 8 15.8807 8 14.5Z" fill="#D4D4D4"/>
<path d="M8 27.5C8 26.1193 9.11929 25 10.5 25H89.5C90.8807 25 92 26.1193 92 27.5C92 28.8807 90.8807 30 89.5 30H10.5C9.11929 30 8 28.8807 8 27.5Z" fill="#E4E4E4"/>
<path d="M8 40.5C8 39.1193 9.11929 38 10.5 38H89.5C90.8807 38 92 39.1193 92 40.5C92 41.8807 90.8807 43 89.5 43H10.5C9.11929 43 8 41.8807 8 40.5Z" fill="#E4E4E4"/>
</g>
<defs>
<filter id="filter0_d_434_9520" x="-3" y="-2" width="106" height="236" filterUnits="userSpaceOnUse" color-interpolation-filters="sRGB">
<feFlood flood-opacity="0" result="BackgroundImageFix"/>
<feColorMatrix in="SourceAlpha" type="matrix" values="0 0 0 0 0 0 0 0 0 0 0 0 0 0 0 0 0 0 127 0" result="hardAlpha"/>
<feOffset dy="1"/>
<feGaussianBlur stdDeviation="1.5"/>
<feComposite in2="hardAlpha" operator="out"/>
<feColorMatrix type="matrix" values="0 0 0 0 0 0 0 0 0 0 0 0 0 0 0 0 0 0 0.05 0"/>
<feBlend mode="normal" in2="BackgroundImageFix" result="effect1_dropShadow_434_9520"/>
<feBlend mode="normal" in="SourceGraphic" in2="effect1_dropShadow_434_9520" result="shape"/>
</filter>
</defs>
</svg>
