<svg width="168" height="120" viewBox="0 0 168 120" fill="none" xmlns="http://www.w3.org/2000/svg">
<path d="M0 6C0 2.68629 2.68629 0 6 0H52C55.3137 0 58 2.68629 58 6V50C58 53.3137 55.3137 56 52 56H6C2.68629 56 0 53.3137 0 50V6Z" fill="#E4E4E4" fill-opacity="0.5"/>
<path d="M66 6C66 2.68629 68.6863 0 72 0H127C130.314 0 133 2.68629 133 6V18C133 21.3137 130.314 24 127 24H72C68.6863 24 66 21.3137 66 18V6Z" fill="#E4E4E4" fill-opacity="0.5"/>
<path d="M66 38C66 34.6863 68.6863 32 72 32H162C165.314 32 168 34.6863 168 38V50C168 53.3137 165.314 56 162 56H72C68.6863 56 66 53.3137 66 50V38Z" fill="#E4E4E4" fill-opacity="0.5"/>
<path d="M0 70C0 66.6863 2.68629 64 6 64H162C165.314 64 168 66.6863 168 70V114C168 117.314 165.314 120 162 120H6C2.68629 120 0 117.314 0 114V70Z" fill="#E4E4E4" fill-opacity="0.5"/>
</svg>
