<svg width="200" height="20" viewBox="0 0 200 20" fill="none" xmlns="http://www.w3.org/2000/svg">
<path d="M0 11C0 8.79086 1.79086 7 4 7H196C198.209 7 200 8.79086 200 11C200 13.2091 198.209 15 196 15H4C1.79086 15 0 13.2091 0 11Z" fill="#E4E4E4"/>
<path d="M0 11C0 8.79086 1.79086 7 4 7H101V15H4C1.79086 15 0 13.2091 0 11Z" fill="#525252"/>
<path d="M104 10C104 13.3137 101.314 16 98 16C94.6863 16 92 13.3137 92 10C92 6.68629 94.6863 4 98 4C101.314 4 104 6.68629 104 10Z" fill="#FCFCFC"/>
<path d="M104 10C104 6.68629 101.314 4 98 4C94.6863 4 92 6.68629 92 10C92 13.3137 94.6863 16 98 16C101.314 16 104 13.3137 104 10ZM105 10C105 13.866 101.866 17 98 17C94.134 17 91 13.866 91 10C91 6.13401 94.134 3 98 3C101.866 3 105 6.13401 105 10Z" fill="#525252"/>
</svg>
