<svg width="186" height="42" viewBox="0 0 186 42" fill="none" xmlns="http://www.w3.org/2000/svg">
<g filter="url(#filter0_d_432_9410)">
<rect x="3" y="2" width="180" height="36" rx="8" fill="#FCFCFC" shape-rendering="crispEdges"/>
<path d="M15 13.5C15 12.1193 16.1193 11 17.5 11H86.5C87.8807 11 89 12.1193 89 13.5C89 14.8807 87.8807 16 86.5 16H17.5C16.1193 16 15 14.8807 15 13.5Z" fill="#D4D4D4"/>
<path d="M15 26.5C15 25.1193 16.1193 24 17.5 24H124.5C125.881 24 127 25.1193 127 26.5C127 27.8807 125.881 29 124.5 29H17.5C16.1193 29 15 27.8807 15 26.5Z" fill="#E4E4E4"/>
</g>
<defs>
<filter id="filter0_d_432_9410" x="0" y="0" width="186" height="42" filterUnits="userSpaceOnUse" color-interpolation-filters="sRGB">
<feFlood flood-opacity="0" result="BackgroundImageFix"/>
<feColorMatrix in="SourceAlpha" type="matrix" values="0 0 0 0 0 0 0 0 0 0 0 0 0 0 0 0 0 0 127 0" result="hardAlpha"/>
<feOffset dy="1"/>
<feGaussianBlur stdDeviation="1.5"/>
<feComposite in2="hardAlpha" operator="out"/>
<feColorMatrix type="matrix" values="0 0 0 0 0 0 0 0 0 0 0 0 0 0 0 0 0 0 0.05 0"/>
<feBlend mode="normal" in2="BackgroundImageFix" result="effect1_dropShadow_432_9410"/>
<feBlend mode="normal" in="SourceGraphic" in2="effect1_dropShadow_432_9410" result="shape"/>
</filter>
</defs>
</svg>
