<svg width="60" height="60" viewBox="0 0 60 60" fill="none" xmlns="http://www.w3.org/2000/svg">
<path d="M60 30C60 46.5685 46.5685 60 30 60C13.4315 60 0 46.5685 0 30C0 13.4315 13.4315 0 30 0C46.5685 0 60 13.4315 60 30ZM7.5 30C7.5 42.4264 17.5736 52.5 30 52.5C42.4264 52.5 52.5 42.4264 52.5 30C52.5 17.5736 42.4264 7.5 30 7.5C17.5736 7.5 7.5 17.5736 7.5 30Z" fill="#E4E4E4"/>
<path d="M22.973 55.2918C22.4186 57.2873 23.5865 59.3794 25.6356 59.6808C30.6004 60.411 35.6907 59.8866 40.4331 58.1277C46.3527 55.9321 51.4287 51.9249 54.9384 46.6767C58.4481 41.4285 60.2125 35.2068 59.9804 28.8974C59.7484 22.5881 57.5317 16.5128 53.646 11.5365C49.7603 6.56028 44.4037 2.9368 38.3388 1.18202C32.274 -0.572764 25.8101 -0.369395 19.8675 1.76317C13.925 3.89574 8.80673 7.84878 5.24153 13.0594C2.38525 17.234 0.642462 22.0452 0.147164 27.039C-0.0572472 29.1 1.68932 30.7403 3.75968 30.6862C5.83004 30.632 7.43239 28.8992 7.72249 26.8485C8.20504 23.4375 9.46715 20.1653 11.4313 17.2946C14.1052 13.3866 17.9439 10.4218 22.4008 8.82238C26.8577 7.22295 31.7057 7.07043 36.2543 8.38651C40.8029 9.7026 44.8204 12.4202 47.7347 16.1524C50.649 19.8846 52.3115 24.4411 52.4855 29.1731C52.6595 33.9051 51.3362 38.5714 48.704 42.5075C46.0717 46.4437 42.2647 49.4491 37.825 51.0957C34.5638 52.3053 31.0832 52.7365 27.657 52.3776C25.5972 52.1619 23.5275 53.2963 22.973 55.2918Z" fill="#525252"/>
</svg>
