<svg width="226" height="42" viewBox="0 0 226 42" fill="none" xmlns="http://www.w3.org/2000/svg">
<g filter="url(#filter0_d_528_7017)">
<rect x="3" y="2" width="220" height="36" rx="8" fill="#FCFCFC" shape-rendering="crispEdges"/>
<g filter="url(#filter1_d_528_7017)">
<rect x="15" y="10" width="80" height="20" rx="6" fill="#D4D4D4" shape-rendering="crispEdges"/>
<path d="M23 20C23 18.8954 24.1193 18 25.5 18H60.5C61.8807 18 63 18.8954 63 20C63 21.1046 61.8807 22 60.5 22H25.5C24.1193 22 23 21.1046 23 20Z" fill="#747474"/>
<path d="M83.5219 16.5224C83.7855 16.2588 84.2134 16.2588 84.477 16.5224C84.7406 16.786 84.7406 17.2139 84.477 17.4775L78.477 23.4775C78.2134 23.7411 77.7855 23.7411 77.5219 23.4775C77.2583 23.2139 77.2583 22.786 77.5219 22.5224L83.5219 16.5224Z" fill="#747474"/>
<path d="M77.6023 16.6023C77.8219 16.3826 78.178 16.3826 78.3977 16.6023L84.3977 22.6023C84.6173 22.8219 84.6173 23.178 84.3977 23.3977C84.178 23.6173 83.8219 23.6173 83.6023 23.3977L77.6023 17.3977C77.3826 17.178 77.3826 16.8219 77.6023 16.6023Z" fill="#747474"/>
</g>
</g>
<defs>
<filter id="filter0_d_528_7017" x="0" y="0" width="226" height="42" filterUnits="userSpaceOnUse" color-interpolation-filters="sRGB">
<feFlood flood-opacity="0" result="BackgroundImageFix"/>
<feColorMatrix in="SourceAlpha" type="matrix" values="0 0 0 0 0 0 0 0 0 0 0 0 0 0 0 0 0 0 127 0" result="hardAlpha"/>
<feOffset dy="1"/>
<feGaussianBlur stdDeviation="1.5"/>
<feComposite in2="hardAlpha" operator="out"/>
<feColorMatrix type="matrix" values="0 0 0 0 0 0 0 0 0 0 0 0 0 0 0 0 0 0 0.05 0"/>
<feBlend mode="normal" in2="BackgroundImageFix" result="effect1_dropShadow_528_7017"/>
<feBlend mode="normal" in="SourceGraphic" in2="effect1_dropShadow_528_7017" result="shape"/>
</filter>
<filter id="filter1_d_528_7017" x="12" y="8" width="86" height="26" filterUnits="userSpaceOnUse" color-interpolation-filters="sRGB">
<feFlood flood-opacity="0" result="BackgroundImageFix"/>
<feColorMatrix in="SourceAlpha" type="matrix" values="0 0 0 0 0 0 0 0 0 0 0 0 0 0 0 0 0 0 127 0" result="hardAlpha"/>
<feOffset dy="1"/>
<feGaussianBlur stdDeviation="1.5"/>
<feComposite in2="hardAlpha" operator="out"/>
<feColorMatrix type="matrix" values="0 0 0 0 0 0 0 0 0 0 0 0 0 0 0 0 0 0 0.05 0"/>
<feBlend mode="normal" in2="BackgroundImageFix" result="effect1_dropShadow_528_7017"/>
<feBlend mode="normal" in="SourceGraphic" in2="effect1_dropShadow_528_7017" result="shape"/>
</filter>
</defs>
</svg>