<svg width="226" height="82" viewBox="0 0 226 82" fill="none" xmlns="http://www.w3.org/2000/svg">
<g filter="url(#filter0_d_403_9290)">
<rect x="3" y="2" width="220" height="76" rx="8" fill="#FCFCFC" shape-rendering="crispEdges"/>
<path d="M218.354 65.3535L210.354 73.3535L209.646 72.6465L217.646 64.6465L218.354 65.3535ZM218.354 69.9248L214.925 73.3535L214.218 72.6465L217.646 69.2178L218.354 69.9248Z" fill="#D4D4D4"/>
<path d="M11 16.5C11 15.1193 11.8954 14 13 14H155C156.105 14 157 15.1193 157 16.5C157 17.8807 156.105 19 155 19H13C11.8954 19 11 17.8807 11 16.5Z" fill="#E4E4E4"/>
<path d="M11 29.5C11 28.1193 11.8954 27 13 27H101C102.105 27 103 28.1193 103 29.5C103 30.8807 102.105 32 101 32H13C11.8954 32 11 30.8807 11 29.5Z" fill="#E4E4E4"/>
</g>
<defs>
<filter id="filter0_d_403_9290" x="0" y="0" width="226" height="82" filterUnits="userSpaceOnUse" color-interpolation-filters="sRGB">
<feFlood flood-opacity="0" result="BackgroundImageFix"/>
<feColorMatrix in="SourceAlpha" type="matrix" values="0 0 0 0 0 0 0 0 0 0 0 0 0 0 0 0 0 0 127 0" result="hardAlpha"/>
<feOffset dy="1"/>
<feGaussianBlur stdDeviation="1.5"/>
<feComposite in2="hardAlpha" operator="out"/>
<feColorMatrix type="matrix" values="0 0 0 0 0 0 0 0 0 0 0 0 0 0 0 0 0 0 0.05 0"/>
<feBlend mode="normal" in2="BackgroundImageFix" result="effect1_dropShadow_403_9290"/>
<feBlend mode="normal" in="SourceGraphic" in2="effect1_dropShadow_403_9290" result="shape"/>
</filter>
</defs>
</svg>
