<svg width="192" height="120" viewBox="0 0 192 120" fill="none" xmlns="http://www.w3.org/2000/svg">
<rect x="88" width="16" height="16" rx="8" fill="#525252"/>
<path d="M100 8C100 10.2091 98.2091 12 96 12C93.7909 12 92 10.2091 92 8C92 5.79086 93.7909 4 96 4C98.2091 4 100 5.79086 100 8Z" fill="#FCFCFC"/>
<path d="M112 2.5C112 1.11929 113.119 0 114.5 0H157.5C158.881 0 160 1.11929 160 2.5C160 3.88071 158.881 5 157.5 5H114.5C113.119 5 112 3.88071 112 2.5Z" fill="#D4D4D4"/>
<path d="M112 13.5C112 12.1193 112.779 11 113.739 11H190.261C191.221 11 192 12.1193 192 13.5C192 14.8807 191.221 16 190.261 16H113.739C112.779 16 112 14.8807 112 13.5Z" fill="#E4E4E4"/>
<path d="M95 25C95 24.4477 95.4477 24 96 24C96.5523 24 97 24.4477 97 25V43C97 43.5523 96.5523 44 96 44C95.4477 44 95 43.5523 95 43V25Z" fill="#E4E4E4"/>
<path d="M32 54.5C32 53.1193 33.1193 52 34.5 52H77.5C78.8807 52 80 53.1193 80 54.5C80 55.8807 78.8807 57 77.5 57H34.5C33.1193 57 32 55.8807 32 54.5Z" fill="#D4D4D4"/>
<path d="M0 65.5C0 64.1193 0.778635 63 1.73913 63H78.2609C79.2214 63 80 64.1193 80 65.5C80 66.8807 79.2214 68 78.2609 68H1.73913C0.778635 68 0 66.8807 0 65.5Z" fill="#E4E4E4"/>
<rect x="88" y="52" width="16" height="16" rx="8" fill="#525252"/>
<path d="M100 60C100 62.2091 98.2091 64 96 64C93.7909 64 92 62.2091 92 60C92 57.7909 93.7909 56 96 56C98.2091 56 100 57.7909 100 60Z" fill="#FCFCFC"/>
<path d="M95 77C95 76.4477 95.4477 76 96 76C96.5523 76 97 76.4477 97 77V95C97 95.5523 96.5523 96 96 96C95.4477 96 95 95.5523 95 95V77Z" fill="#E4E4E4"/>
<rect x="88" y="104" width="16" height="16" rx="8" fill="#525252"/>
<path d="M100 112C100 114.209 98.2091 116 96 116C93.7909 116 92 114.209 92 112C92 109.791 93.7909 108 96 108C98.2091 108 100 109.791 100 112Z" fill="#FCFCFC"/>
<path d="M112 106.5C112 105.119 113.119 104 114.5 104H157.5C158.881 104 160 105.119 160 106.5C160 107.881 158.881 109 157.5 109H114.5C113.119 109 112 107.881 112 106.5Z" fill="#D4D4D4"/>
<path d="M112 117.5C112 116.119 112.779 115 113.739 115H190.261C191.221 115 192 116.119 192 117.5C192 118.881 191.221 120 190.261 120H113.739C112.779 120 112 118.881 112 117.5Z" fill="#E4E4E4"/>
</svg>
