<svg width="116" height="50" viewBox="0 0 116 50" fill="none" xmlns="http://www.w3.org/2000/svg">
<rect x="0.5" y="0.5" width="35" height="35" rx="3.5" fill="#E4E4E4"/>
<rect x="0.5" y="0.5" width="35" height="35" rx="3.5" stroke="#E4E4E4"/>
<path d="M13 18.0002H20.5C21.3841 18.0002 22.2319 18.3514 22.857 18.9765C23.4821 19.6016 23.8333 20.4494 23.8333 21.3335C23.8333 22.2176 23.4821 23.0654 22.857 23.6905C22.2319 24.3156 21.3841 24.6668 20.5 24.6668H13.8333C13.6123 24.6668 13.4004 24.579 13.2441 24.4228C13.0878 24.2665 13 24.0545 13 23.8335V12.1668C13 11.9458 13.0878 11.7339 13.2441 11.5776C13.4004 11.4213 13.6123 11.3335 13.8333 11.3335H19.6667C20.5507 11.3335 21.3986 11.6847 22.0237 12.3098C22.6488 12.9349 23 13.7828 23 14.6668C23 15.5509 22.6488 16.3987 22.0237 17.0239C21.3986 17.649 20.5507 18.0002 19.6667 18.0002" stroke="#525252" stroke-width="2" stroke-linecap="round" stroke-linejoin="round"/>
<path d="M63.834 11.3335H56.334" stroke="#525252" stroke-width="2" stroke-linecap="round" stroke-linejoin="round"/>
<path d="M59.666 24.6665H52.166" stroke="#525252" stroke-width="2" stroke-linecap="round" stroke-linejoin="round"/>
<path d="M60.5 11.3335L55.5 24.6668" stroke="#525252" stroke-width="2" stroke-linecap="round" stroke-linejoin="round"/>
<path d="M93 11.3335V16.3335C93 17.6596 93.5268 18.9313 94.4645 19.869C95.4021 20.8067 96.6739 21.3335 98 21.3335C99.3261 21.3335 100.598 20.8067 101.536 19.869C102.473 18.9313 103 17.6596 103 16.3335V11.3335" stroke="#525252" stroke-width="2" stroke-linecap="round" stroke-linejoin="round"/>
<path d="M91.334 24.6665H104.667" stroke="#525252" stroke-width="2" stroke-linecap="round" stroke-linejoin="round"/>
<g filter="url(#filter0_d_521_10951)">
<path d="M30.2708 42.2799C29.9908 41.9199 29.6408 41.1899 29.0308 40.2799C28.6808 39.7799 27.8208 38.8299 27.5608 38.3399C27.3734 38.0422 27.319 37.6796 27.4108 37.3399C27.5678 36.6941 28.1804 36.2657 28.8408 36.3399C29.3516 36.4425 29.8211 36.6929 30.1908 37.0599C30.449 37.3031 30.6865 37.5673 30.9008 37.8499C31.0608 38.0499 31.1008 38.1299 31.2808 38.3599C31.4608 38.5899 31.5808 38.8199 31.4908 38.4799C31.4208 37.9799 31.3008 37.1399 31.1308 36.3899C31.0008 35.8199 30.9708 35.7299 30.8508 35.2999C30.7308 34.8699 30.6608 34.5099 30.5308 34.0199C30.412 33.5385 30.3186 33.0512 30.2508 32.5599C30.1248 31.9316 30.2165 31.2791 30.5108 30.7099C30.8602 30.3813 31.3728 30.2946 31.8108 30.4899C32.2514 30.8153 32.58 31.2696 32.7508 31.7899C33.0129 32.4303 33.1878 33.103 33.2708 33.7899C33.4308 34.7899 33.7408 36.2499 33.7508 36.5499C33.7508 36.1799 33.6808 35.3999 33.7508 35.0499C33.8202 34.6851 34.0738 34.3822 34.4208 34.2499C34.7187 34.1586 35.0337 34.138 35.3408 34.1899C35.6509 34.2547 35.9255 34.4331 36.1108 34.6899C36.3425 35.2733 36.4711 35.8925 36.4908 36.5199C36.5176 35.9705 36.6117 35.4265 36.7708 34.8999C36.938 34.6645 37.182 34.4947 37.4608 34.4199C37.7914 34.3595 38.1303 34.3595 38.4608 34.4199C38.7319 34.5106 38.9691 34.6814 39.1408 34.9099C39.3526 35.4403 39.4808 36.0003 39.5208 36.5699C39.5208 36.7099 39.5908 36.1799 39.8108 35.8299C39.9252 35.4905 40.2119 35.2379 40.563 35.1672C40.9141 35.0965 41.2762 35.2185 41.513 35.4872C41.7497 35.7559 41.8252 36.1305 41.7108 36.4699C41.7108 37.1199 41.7108 37.0899 41.7108 37.5299C41.7108 37.9699 41.7108 38.3599 41.7108 38.7299C41.6744 39.3151 41.5942 39.8967 41.4708 40.4699C41.2968 40.977 41.0546 41.4581 40.7508 41.8999C40.2653 42.4399 39.8641 43.0501 39.5608 43.7099C39.4856 44.0377 39.452 44.3737 39.4608 44.7099C39.4598 45.0206 39.5002 45.3299 39.5808 45.6299C39.172 45.6731 38.7597 45.6731 38.3508 45.6299C37.9608 45.5699 37.4808 44.7899 37.3508 44.5499C37.2865 44.4211 37.1549 44.3396 37.0108 44.3396C36.8668 44.3396 36.7352 44.4211 36.6708 44.5499C36.4508 44.9299 35.9608 45.6199 35.6208 45.6599C34.9508 45.7399 33.5708 45.6599 32.4808 45.6599C32.4808 45.6599 32.6608 44.6599 32.2508 44.2999C31.8408 43.9399 31.4208 43.5199 31.1108 43.2399L30.2708 42.2799Z" fill="white"/>
<path d="M41.3357 36.4698C41.3358 36.4293 41.3424 36.3891 41.3553 36.3507C41.4268 36.1383 41.3794 35.9036 41.2313 35.7355C41.0831 35.5673 40.8563 35.491 40.6365 35.5353C40.417 35.5796 40.2374 35.7371 40.1658 35.9493C40.1564 35.9773 40.1435 36.0044 40.1277 36.0294C40.0476 36.1569 39.9873 36.3343 39.9441 36.4864C39.9339 36.5225 39.9245 36.5557 39.9168 36.5851C39.9098 36.6117 39.9025 36.6422 39.8963 36.6642C39.8933 36.6747 39.888 36.6924 39.8816 36.7101C39.8787 36.7183 39.8727 36.7354 39.8631 36.755C39.8625 36.7564 39.829 36.8324 39.7508 36.8917C39.7018 36.9289 39.5899 36.9918 39.4422 36.9591C39.3031 36.9283 39.2315 36.8335 39.2059 36.7931C39.1596 36.72 39.1517 36.6478 39.1512 36.6446C39.1484 36.6265 39.1478 36.6094 39.1473 36.5958L39.1463 36.5968C39.1104 36.0855 38.9978 35.5825 38.8133 35.1046C38.695 34.9596 38.5412 34.8489 38.365 34.7853C38.0935 34.7389 37.8162 34.7386 37.5447 34.7862C37.3731 34.8352 37.2229 34.937 37.1111 35.0753C36.9727 35.5517 36.8892 36.0425 36.865 36.5382C36.8552 36.7392 36.6884 36.8964 36.4871 36.8946C36.286 36.8927 36.1223 36.7324 36.116 36.5313C36.0981 35.9638 35.9835 35.4037 35.7791 34.8741C35.6511 34.7142 35.4722 34.6025 35.2713 34.5587C35.0284 34.5187 34.7796 34.5344 34.5438 34.6046C34.3237 34.6926 34.1633 34.8869 34.1189 35.1202L34.118 35.1231C34.0928 35.2489 34.0904 35.4885 34.0994 35.7813C34.1075 36.0454 34.1258 36.3593 34.1258 36.5499C34.1258 36.7546 33.9613 36.9215 33.7566 36.9249C33.5521 36.9282 33.3826 36.767 33.3758 36.5626C33.3743 36.5178 33.3581 36.3966 33.324 36.1954C33.2917 36.0044 33.2475 35.765 33.1981 35.5011C33.0999 34.9768 32.9812 34.3557 32.9002 33.8497C32.8994 33.845 32.8988 33.8398 32.8982 33.8351C32.8192 33.1815 32.6525 32.5411 32.4031 31.9317C32.3999 31.9237 32.397 31.9155 32.3943 31.9073C32.2521 31.4744 31.9819 31.0956 31.6209 30.8185C31.3481 30.7123 31.0409 30.7609 30.8143 30.9444C30.6136 31.3607 30.5338 31.824 30.5857 32.2813L30.618 32.4864L30.6219 32.5089C30.6875 32.985 30.7784 33.4573 30.8934 33.9239L31.0594 34.5958C31.1081 34.8007 31.1539 34.992 31.2117 35.1993C31.2718 35.4147 31.3099 35.5468 31.3494 35.6974L31.4959 36.3067C31.6675 37.064 31.7889 37.9066 31.8592 38.4083C31.8687 38.4453 31.8766 38.4798 31.8826 38.5108C31.8881 38.5394 31.8992 38.5978 31.8953 38.6603C31.8938 38.6847 31.8877 38.7712 31.8289 38.8585C31.7945 38.9095 31.7398 38.9639 31.6609 38.9972C31.5831 39.03 31.5089 39.0314 31.4529 39.0226C31.3561 39.0072 31.2914 38.9583 31.2732 38.9444C31.2465 38.924 31.2257 38.9034 31.2137 38.8907C31.1724 38.8468 31.1271 38.7829 31.0984 38.7433C31.0619 38.6928 31.0249 38.6416 30.9852 38.5909C30.89 38.4693 30.8311 38.3861 30.7781 38.3116C30.7267 38.2394 30.6814 38.1756 30.6082 38.0841L30.6014 38.0763V38.0753C30.3998 37.8097 30.1761 37.5617 29.9334 37.3331L29.9266 37.3263C29.6126 37.0146 29.2149 36.8011 28.782 36.711C28.3157 36.6669 27.8862 36.9719 27.7752 37.4288L27.7732 37.4376H27.7723C27.7159 37.6463 27.7383 37.8676 27.8328 38.0597L27.8777 38.1407L27.8924 38.1642C28.0021 38.371 28.2556 38.7018 28.5535 39.0714C28.8357 39.4213 29.153 39.8008 29.3377 40.0646L29.3426 40.0714C29.6546 40.5369 29.8994 40.9562 30.0984 41.298C30.301 41.6458 30.4426 41.8887 30.5623 42.044L31.3777 42.9767C31.5336 43.1181 31.7154 43.2916 31.9012 43.4679C32.0959 43.6526 32.2987 43.8438 32.4979 44.0187C32.6745 44.1738 32.7683 44.3793 32.8201 44.5626C32.8726 44.7483 32.8908 44.9418 32.8943 45.1075C32.8957 45.1718 32.8926 45.2338 32.8904 45.2921C33.3292 45.2981 33.7926 45.3081 34.2147 45.3155C34.7845 45.3256 35.2709 45.3236 35.576 45.2872H35.577C35.5593 45.2893 35.5872 45.2893 35.6658 45.2276C35.7364 45.1723 35.8188 45.0904 35.9061 44.9884C35.993 44.8867 36.0776 44.7742 36.1531 44.6651L36.3465 44.3624C36.4778 44.1183 36.7322 43.965 37.0106 43.9649C37.2923 43.9649 37.5496 44.122 37.6795 44.3712C37.7372 44.4778 37.879 44.7132 38.0467 44.9239C38.1305 45.0293 38.2136 45.1186 38.2889 45.1817C38.3527 45.2352 38.3906 45.2531 38.4031 45.2579C38.644 45.2828 38.886 45.2895 39.1277 45.2823C39.1 45.0927 39.0851 44.9012 39.0857 44.7091C39.0771 44.345 39.1136 43.9811 39.1951 43.6261C39.2008 43.6012 39.2089 43.577 39.2195 43.5538C39.5338 42.8701 39.9485 42.2366 40.449 41.6749C40.7258 41.2701 40.9473 40.8305 41.1082 40.3673C41.2242 39.8227 41.3007 39.2706 41.3357 38.7149V36.4698ZM42.0857 38.7296C42.0857 38.7373 42.0852 38.7454 42.0848 38.753C42.0472 39.3569 41.965 39.9574 41.8377 40.5489C41.8346 40.5634 41.8298 40.5779 41.825 40.5919C41.6399 41.1311 41.3824 41.6426 41.0594 42.1124C41.0502 42.1258 41.04 42.1384 41.0291 42.1505C40.5785 42.6516 40.205 43.2169 39.9197 43.8272C39.8568 44.1138 39.828 44.4069 39.8357 44.7003V44.711C39.8349 44.9883 39.8712 45.2646 39.9432 45.5323C39.9717 45.6383 39.9515 45.7514 39.8895 45.8419C39.8274 45.9324 39.729 45.9915 39.6199 46.003C39.1849 46.049 38.7463 46.049 38.3113 46.003C38.3055 46.0024 38.2995 46.002 38.2938 46.0011C38.0962 45.9707 37.9291 45.8589 37.8074 45.7569C37.6791 45.6495 37.5608 45.5177 37.4598 45.3907C37.2576 45.1366 37.0936 44.8621 37.0213 44.7286L37.0145 44.7179V44.7169C37.0135 44.7156 37.0121 44.7149 37.0106 44.7149C37.0087 44.715 37.0075 44.7162 37.0066 44.7179C37.0032 44.7248 36.9988 44.7317 36.9949 44.7384C36.8763 44.9432 36.6859 45.2306 36.4754 45.4767C36.3703 45.5994 36.2524 45.7214 36.1287 45.8185C36.0419 45.8866 35.9294 45.96 35.7996 46.0021L35.6648 46.0323C35.3 46.0759 34.7617 46.0745 34.202 46.0646C33.6285 46.0544 33.0212 46.0353 32.4803 46.0353C32.3694 46.0351 32.2643 45.9856 32.1932 45.9005C32.122 45.8154 32.0916 45.7031 32.1111 45.5938C32.1113 45.5929 32.1117 45.5906 32.1121 45.588C32.113 45.5826 32.1153 45.5734 32.117 45.5616C32.1205 45.538 32.1251 45.5028 32.1297 45.4591C32.139 45.3703 32.147 45.2504 32.1443 45.1231C32.1416 44.994 32.1275 44.8697 32.0984 44.7667C32.0688 44.6618 32.032 44.6072 32.0037 44.5821C31.7929 44.397 31.5799 44.1971 31.3846 44.0118C31.187 43.8244 31.0096 43.6545 30.8592 43.5187C30.8485 43.509 30.8385 43.4983 30.8289 43.4874L29.9881 42.5274C29.9833 42.522 29.9789 42.5156 29.9744 42.5099C29.8151 42.305 29.6422 42.005 29.45 41.6749C29.2524 41.3357 29.0194 40.9362 28.7234 40.4942C28.5581 40.2581 28.2695 39.9141 27.9695 39.5421C27.693 39.1992 27.3984 38.8201 27.2439 38.5392C27.0008 38.1528 26.9296 37.6829 27.0486 37.2423H27.0496C27.2419 36.47 27.9416 35.9421 28.7244 35.9571L28.8826 35.9669L28.9148 35.9728C29.4942 36.0892 30.0264 36.3724 30.4471 36.7872H30.4481C30.6158 36.9453 30.7739 37.113 30.9246 37.2872C30.877 37.017 30.8247 36.7385 30.7645 36.4728V36.4718C30.6369 35.9126 30.6087 35.8293 30.4891 35.4005C30.427 35.1781 30.3786 34.9745 30.3299 34.7696C30.2809 34.5636 30.2313 34.3558 30.1678 34.1163L30.1668 34.1095C30.0449 33.6155 29.9482 33.1155 29.8787 32.6114V32.6105C29.7428 31.9059 29.8478 31.176 30.1775 30.5382L30.2117 30.4845C30.2245 30.4676 30.2382 30.4512 30.2537 30.4366C30.6845 30.0315 31.3039 29.9061 31.8543 30.1036L31.9637 30.1476L32.033 30.1886C32.5289 30.5547 32.9 31.0641 33.0975 31.6476C33.3704 32.3145 33.5536 33.0153 33.6414 33.7306L33.7361 34.2774C33.886 34.1132 34.0724 33.9813 34.2869 33.8995C34.2946 33.8966 34.3025 33.8941 34.3104 33.8917C34.6199 33.7967 34.9455 33.7657 35.2664 33.8009L35.4031 33.8204L35.4178 33.8233C35.7689 33.8969 36.0849 34.0826 36.3191 34.3507L36.4148 34.4708L36.4588 34.5519C36.471 34.5825 36.4813 34.6138 36.493 34.6446C36.7094 34.358 37.0154 34.1511 37.3631 34.0577C37.3729 34.0551 37.3834 34.0527 37.3934 34.0509C37.6746 33.9995 37.9611 33.9871 38.2449 34.0128L38.5281 34.0509L38.5799 34.0646C38.9229 34.1793 39.2229 34.3956 39.4402 34.6847C39.4601 34.7111 39.4768 34.7399 39.4891 34.7706C39.5594 34.9469 39.6197 35.1269 39.6727 35.3087C39.8724 35.0505 40.1594 34.8663 40.4891 34.7999C40.9713 34.7029 41.4685 34.8703 41.7938 35.2394C42.1019 35.5891 42.2086 36.0687 42.0857 36.5147V38.7296Z" fill="black"/>
<path d="M38.75 42.8259V39.3741C38.75 39.1675 38.5821 39 38.375 39C38.1679 39 38 39.1675 38 39.3741V42.8259C38 43.0325 38.1679 43.2 38.375 43.2C38.5821 43.2 38.75 43.0325 38.75 42.8259Z" fill="black"/>
<path d="M36.77 42.8246L36.75 39.3711C36.7488 39.1649 36.5799 38.9988 36.3728 39C36.1657 39.0012 35.9988 39.1693 36 39.3754L36.02 42.8289C36.0212 43.0351 36.1901 43.2012 36.3972 43.2C36.6043 43.1988 36.7712 43.0307 36.77 42.8246Z" fill="black"/>
<path d="M34 39.379L34.02 42.8254C34.0212 43.0335 34.1901 43.2012 34.3972 43.2C34.6043 43.1988 34.7712 43.0291 34.77 42.821L34.75 39.3746C34.7488 39.1665 34.5799 38.9988 34.3728 39C34.1657 39.0012 33.9988 39.1709 34 39.379Z" fill="black"/>
</g>
<defs>
<filter id="filter0_d_521_10951" x="26.1922" y="30.0117" width="16.7426" height="17.8586" filterUnits="userSpaceOnUse" color-interpolation-filters="sRGB">
<feFlood flood-opacity="0" result="BackgroundImageFix"/>
<feColorMatrix in="SourceAlpha" type="matrix" values="0 0 0 0 0 0 0 0 0 0 0 0 0 0 0 0 0 0 127 0" result="hardAlpha"/>
<feOffset dy="1"/>
<feGaussianBlur stdDeviation="0.4"/>
<feColorMatrix type="matrix" values="0 0 0 0 0 0 0 0 0 0 0 0 0 0 0 0 0 0 0.5 0"/>
<feBlend mode="normal" in2="BackgroundImageFix" result="effect1_dropShadow_521_10951"/>
<feBlend mode="normal" in="SourceGraphic" in2="effect1_dropShadow_521_10951" result="shape"/>
</filter>
</defs>
</svg>
