<svg width="110" height="90" viewBox="0 0 110 90" fill="none" xmlns="http://www.w3.org/2000/svg">
<path d="M102 0C106.418 0 110 3.58172 110 8V28C110 32.4183 106.418 36 102 36H65.1641L55.6377 45L46.1113 36H8C3.58172 36 3.22139e-08 32.4183 0 28V8C0 3.58172 3.58172 0 8 0H102ZM20.5 15C19.1193 15 18 16.1193 18 17.5C18 18.8807 19.1193 20 20.5 20H89.5C90.8807 20 92 18.8807 92 17.5C92 16.1193 90.8807 15 89.5 15H20.5Z" fill="#747474"/>
<rect x="43.5" y="53.5" width="23" height="23" rx="11.5" fill="#FCFCFC"/>
<rect x="43.5" y="53.5" width="23" height="23" rx="11.5" stroke="#E4E4E4"/>
<path d="M54.1333 70.5V62.6304H55.8571V70.5H54.1333ZM55 61.5135C54.727 61.5135 54.4921 61.4162 54.2952 61.2215C54.0984 61.0234 54 60.786 54 60.5093C54 60.2292 54.0984 59.9918 54.2952 59.7972C54.4921 59.5991 54.727 59.5 55 59.5C55.2762 59.5 55.5111 59.5991 55.7048 59.7972C55.9016 59.9918 56 60.2292 56 60.5093C56 60.786 55.9016 61.0234 55.7048 61.2215C55.5111 61.4162 55.2762 61.5135 55 61.5135Z" fill="#747474"/>
<g filter="url(#filter0_d_434_9729)">
<path d="M61.2708 82.2799C60.9908 81.9199 60.6408 81.1899 60.0308 80.2799C59.6808 79.7799 58.8208 78.8299 58.5608 78.3399C58.3734 78.0422 58.319 77.6796 58.4108 77.3399C58.5678 76.6941 59.1804 76.2657 59.8408 76.3399C60.3516 76.4425 60.8211 76.6929 61.1908 77.0599C61.449 77.3031 61.6865 77.5673 61.9008 77.8499C62.0608 78.0499 62.1008 78.1299 62.2808 78.3599C62.4608 78.5899 62.5808 78.8199 62.4908 78.4799C62.4208 77.9799 62.3008 77.1399 62.1308 76.3899C62.0008 75.8199 61.9708 75.7299 61.8508 75.2999C61.7308 74.8699 61.6608 74.5099 61.5308 74.0199C61.412 73.5385 61.3186 73.0512 61.2508 72.5599C61.1248 71.9316 61.2165 71.2791 61.5108 70.7099C61.8602 70.3813 62.3728 70.2946 62.8108 70.4899C63.2514 70.8153 63.58 71.2696 63.7508 71.7899C64.0129 72.4303 64.1878 73.103 64.2708 73.7899C64.4308 74.7899 64.7408 76.2499 64.7508 76.5499C64.7508 76.1799 64.6808 75.3999 64.7508 75.0499C64.8202 74.6851 65.0738 74.3822 65.4208 74.2499C65.7187 74.1586 66.0337 74.138 66.3408 74.1899C66.6509 74.2547 66.9255 74.4331 67.1108 74.6899C67.3425 75.2733 67.4711 75.8925 67.4908 76.5199C67.5176 75.9705 67.6117 75.4265 67.7708 74.8999C67.938 74.6645 68.182 74.4947 68.4608 74.4199C68.7914 74.3595 69.1303 74.3595 69.4608 74.4199C69.7319 74.5106 69.9691 74.6814 70.1408 74.9099C70.3526 75.4403 70.4808 76.0003 70.5208 76.5699C70.5208 76.7099 70.5908 76.1799 70.8108 75.8299C70.9252 75.4905 71.2119 75.2379 71.563 75.1672C71.9141 75.0965 72.2762 75.2185 72.513 75.4872C72.7497 75.7559 72.8252 76.1305 72.7108 76.4699C72.7108 77.1199 72.7108 77.0899 72.7108 77.5299C72.7108 77.9699 72.7108 78.3599 72.7108 78.7299C72.6744 79.3151 72.5942 79.8967 72.4708 80.4699C72.2968 80.977 72.0546 81.4581 71.7508 81.8999C71.2653 82.4399 70.8641 83.0501 70.5608 83.7099C70.4856 84.0377 70.452 84.3737 70.4608 84.7099C70.4598 85.0206 70.5002 85.3299 70.5808 85.6299C70.172 85.6732 69.7597 85.6732 69.3508 85.6299C68.9608 85.5699 68.4808 84.7899 68.3508 84.5499C68.2865 84.4211 68.1549 84.3396 68.0108 84.3396C67.8668 84.3396 67.7352 84.4211 67.6708 84.5499C67.4508 84.9299 66.9608 85.6199 66.6208 85.6599C65.9508 85.7399 64.5708 85.6599 63.4808 85.6599C63.4808 85.6599 63.6608 84.6599 63.2508 84.2999C62.8408 83.9399 62.4208 83.5199 62.1108 83.2399L61.2708 82.2799Z" fill="white"/>
<path d="M72.3357 76.4698C72.3358 76.4293 72.3424 76.3891 72.3553 76.3507C72.4268 76.1383 72.3794 75.9036 72.2313 75.7355C72.0831 75.5673 71.8563 75.491 71.6365 75.5353C71.417 75.5796 71.2374 75.7371 71.1658 75.9493C71.1564 75.9773 71.1435 76.0044 71.1277 76.0294C71.0476 76.1569 70.9873 76.3343 70.9441 76.4864C70.9339 76.5225 70.9245 76.5557 70.9168 76.5851C70.9098 76.6117 70.9025 76.6422 70.8963 76.6642C70.8933 76.6747 70.888 76.6924 70.8816 76.7101C70.8787 76.7183 70.8727 76.7354 70.8631 76.755C70.8625 76.7564 70.829 76.8324 70.7508 76.8917C70.7018 76.9289 70.5899 76.9918 70.4422 76.9591C70.3031 76.9283 70.2315 76.8335 70.2059 76.7931C70.1596 76.72 70.1517 76.6478 70.1512 76.6446C70.1484 76.6265 70.1478 76.6094 70.1473 76.5958L70.1463 76.5968C70.1104 76.0855 69.9978 75.5825 69.8133 75.1046C69.695 74.9596 69.5412 74.8489 69.365 74.7853C69.0935 74.7389 68.8162 74.7386 68.5447 74.7862C68.3731 74.8352 68.2229 74.937 68.1111 75.0753C67.9727 75.5517 67.8892 76.0425 67.865 76.5382C67.8552 76.7392 67.6884 76.8964 67.4871 76.8946C67.286 76.8927 67.1223 76.7324 67.116 76.5313C67.0981 75.9638 66.9835 75.4037 66.7791 74.8741C66.6511 74.7142 66.4722 74.6025 66.2713 74.5587C66.0284 74.5187 65.7796 74.5344 65.5438 74.6046C65.3237 74.6926 65.1633 74.8869 65.1189 75.1202L65.118 75.1231C65.0928 75.2489 65.0904 75.4885 65.0994 75.7813C65.1075 76.0454 65.1258 76.3593 65.1258 76.5499C65.1258 76.7546 64.9613 76.9215 64.7566 76.9249C64.5521 76.9282 64.3826 76.767 64.3758 76.5626C64.3743 76.5178 64.3581 76.3966 64.324 76.1954C64.2917 76.0044 64.2475 75.765 64.1981 75.5011C64.0999 74.9768 63.9812 74.3557 63.9002 73.8497C63.8994 73.845 63.8988 73.8398 63.8982 73.8351C63.8192 73.1814 63.6525 72.5411 63.4031 71.9317C63.3999 71.9237 63.397 71.9155 63.3943 71.9073C63.2521 71.4744 62.9819 71.0956 62.6209 70.8185C62.3481 70.7123 62.0409 70.7609 61.8143 70.9444C61.6136 71.3607 61.5338 71.824 61.5857 72.2813L61.618 72.4864L61.6219 72.5089C61.6875 72.985 61.7784 73.4573 61.8934 73.9239L62.0594 74.5958C62.1081 74.8007 62.1539 74.992 62.2117 75.1993C62.2718 75.4147 62.3099 75.5468 62.3494 75.6974L62.4959 76.3067C62.6675 77.064 62.7889 77.9066 62.8592 78.4083C62.8687 78.4453 62.8766 78.4798 62.8826 78.5108C62.8881 78.5394 62.8992 78.5978 62.8953 78.6603C62.8938 78.6847 62.8877 78.7712 62.8289 78.8585C62.7945 78.9095 62.7398 78.9639 62.6609 78.9972C62.5831 79.03 62.5089 79.0314 62.4529 79.0226C62.3561 79.0072 62.2914 78.9583 62.2732 78.9444C62.2465 78.924 62.2257 78.9034 62.2137 78.8907C62.1724 78.8468 62.1271 78.7829 62.0984 78.7433C62.0619 78.6928 62.0249 78.6416 61.9852 78.5909C61.89 78.4693 61.8311 78.3861 61.7781 78.3116C61.7267 78.2394 61.6814 78.1756 61.6082 78.0841L61.6014 78.0763V78.0753C61.3998 77.8097 61.1761 77.5617 60.9334 77.3331L60.9266 77.3263C60.6126 77.0146 60.2149 76.8011 59.782 76.711C59.3157 76.6669 58.8862 76.9719 58.7752 77.4288L58.7732 77.4376H58.7723C58.7159 77.6463 58.7383 77.8676 58.8328 78.0597L58.8777 78.1407L58.8924 78.1642C59.0021 78.371 59.2556 78.7018 59.5535 79.0714C59.8357 79.4213 60.153 79.8008 60.3377 80.0646L60.3426 80.0714C60.6546 80.5369 60.8994 80.9562 61.0984 81.298C61.301 81.6458 61.4426 81.8887 61.5623 82.044L62.3777 82.9767C62.5336 83.1181 62.7154 83.2916 62.9012 83.4679C63.0959 83.6526 63.2987 83.8438 63.4979 84.0187C63.6745 84.1738 63.7683 84.3793 63.8201 84.5626C63.8726 84.7483 63.8908 84.9418 63.8943 85.1075C63.8957 85.1718 63.8926 85.2338 63.8904 85.2921C64.3292 85.2981 64.7926 85.3081 65.2147 85.3155C65.7845 85.3256 66.2709 85.3236 66.576 85.2872H66.577C66.5593 85.2893 66.5872 85.2893 66.6658 85.2276C66.7364 85.1723 66.8188 85.0904 66.9061 84.9884C66.993 84.8867 67.0776 84.7742 67.1531 84.6651L67.3465 84.3624C67.4778 84.1183 67.7322 83.965 68.0106 83.9649C68.2923 83.9649 68.5496 84.122 68.6795 84.3712C68.7372 84.4778 68.879 84.7132 69.0467 84.9239C69.1305 85.0293 69.2136 85.1186 69.2889 85.1817C69.3527 85.2352 69.3906 85.2531 69.4031 85.2579C69.644 85.2828 69.886 85.2895 70.1277 85.2823C70.1 85.0927 70.0851 84.9012 70.0857 84.7091C70.0771 84.345 70.1136 83.9811 70.1951 83.6261C70.2008 83.6012 70.2089 83.577 70.2195 83.5538C70.5338 82.8701 70.9485 82.2366 71.449 81.6749C71.7258 81.2701 71.9473 80.8305 72.1082 80.3673C72.2242 79.8227 72.3007 79.2706 72.3357 78.7149V76.4698ZM73.0857 78.7296C73.0857 78.7373 73.0852 78.7454 73.0848 78.753C73.0472 79.3569 72.965 79.9574 72.8377 80.5489C72.8346 80.5634 72.8298 80.5779 72.825 80.5919C72.6399 81.1311 72.3824 81.6426 72.0594 82.1124C72.0502 82.1258 72.04 82.1384 72.0291 82.1505C71.5785 82.6516 71.205 83.2169 70.9197 83.8272C70.8568 84.1138 70.828 84.4069 70.8357 84.7003V84.711C70.8349 84.9883 70.8712 85.2646 70.9432 85.5323C70.9717 85.6383 70.9515 85.7514 70.8895 85.8419C70.8274 85.9324 70.729 85.9915 70.6199 86.003C70.1849 86.049 69.7463 86.049 69.3113 86.003C69.3055 86.0024 69.2995 86.002 69.2938 86.0011C69.0962 85.9707 68.9291 85.8589 68.8074 85.7569C68.6791 85.6495 68.5608 85.5177 68.4598 85.3907C68.2576 85.1366 68.0936 84.8621 68.0213 84.7286L68.0145 84.7179V84.7169C68.0135 84.7156 68.0121 84.7149 68.0106 84.7149C68.0087 84.715 68.0075 84.7162 68.0066 84.7179C68.0032 84.7248 67.9988 84.7317 67.9949 84.7384C67.8763 84.9432 67.6859 85.2306 67.4754 85.4767C67.3703 85.5994 67.2524 85.7214 67.1287 85.8185C67.0419 85.8866 66.9294 85.96 66.7996 86.0021L66.6648 86.0323C66.3 86.0759 65.7617 86.0745 65.202 86.0646C64.6285 86.0544 64.0212 86.0353 63.4803 86.0353C63.3694 86.0351 63.2643 85.9856 63.1932 85.9005C63.122 85.8154 63.0916 85.7031 63.1111 85.5938C63.1113 85.5929 63.1117 85.5906 63.1121 85.588C63.113 85.5826 63.1153 85.5734 63.117 85.5616C63.1205 85.538 63.1251 85.5028 63.1297 85.4591C63.139 85.3703 63.147 85.2504 63.1443 85.1231C63.1416 84.994 63.1275 84.8697 63.0984 84.7667C63.0688 84.6618 63.032 84.6072 63.0037 84.5821C62.7929 84.397 62.5799 84.1971 62.3846 84.0118C62.187 83.8244 62.0096 83.6545 61.8592 83.5187C61.8485 83.509 61.8385 83.4983 61.8289 83.4874L60.9881 82.5274C60.9833 82.522 60.9789 82.5156 60.9744 82.5099C60.8151 82.305 60.6422 82.005 60.45 81.6749C60.2524 81.3357 60.0194 80.9362 59.7234 80.4942C59.5581 80.2581 59.2695 79.9141 58.9695 79.5421C58.693 79.1992 58.3984 78.8201 58.2439 78.5392C58.0008 78.1528 57.9296 77.6829 58.0486 77.2423H58.0496C58.2419 76.47 58.9416 75.9421 59.7244 75.9571L59.8826 75.9669L59.9148 75.9728C60.4942 76.0892 61.0264 76.3724 61.4471 76.7872H61.4481C61.6158 76.9453 61.7739 77.113 61.9246 77.2872C61.877 77.017 61.8247 76.7385 61.7645 76.4728V76.4718C61.6369 75.9126 61.6087 75.8293 61.4891 75.4005C61.427 75.1781 61.3786 74.9745 61.3299 74.7696C61.2809 74.5636 61.2313 74.3558 61.1678 74.1163L61.1668 74.1095C61.0449 73.6155 60.9482 73.1155 60.8787 72.6114V72.6105C60.7428 71.9059 60.8478 71.176 61.1775 70.5382L61.2117 70.4845C61.2245 70.4676 61.2382 70.4512 61.2537 70.4366C61.6845 70.0315 62.3039 69.9061 62.8543 70.1036L62.9637 70.1476L63.033 70.1886C63.5289 70.5547 63.9 71.0641 64.0975 71.6476C64.3704 72.3145 64.5536 73.0153 64.6414 73.7306L64.7361 74.2774C64.886 74.1132 65.0724 73.9813 65.2869 73.8995C65.2946 73.8966 65.3025 73.8941 65.3104 73.8917C65.6199 73.7967 65.9455 73.7657 66.2664 73.8009L66.4031 73.8204L66.4178 73.8233C66.7689 73.8969 67.0849 74.0826 67.3191 74.3507L67.4148 74.4708L67.4588 74.5519C67.471 74.5825 67.4813 74.6138 67.493 74.6446C67.7094 74.358 68.0154 74.1511 68.3631 74.0577C68.3729 74.0551 68.3834 74.0527 68.3934 74.0509C68.6746 73.9995 68.9611 73.9871 69.2449 74.0128L69.5281 74.0509L69.5799 74.0646C69.9229 74.1793 70.2229 74.3956 70.4402 74.6847C70.4601 74.7111 70.4768 74.7399 70.4891 74.7706C70.5594 74.9469 70.6197 75.1269 70.6727 75.3087C70.8724 75.0505 71.1594 74.8663 71.4891 74.7999C71.9713 74.7029 72.4685 74.8703 72.7938 75.2394C73.1019 75.5891 73.2086 76.0687 73.0857 76.5147V78.7296Z" fill="black"/>
<path d="M69.75 82.8259V79.3741C69.75 79.1675 69.5821 79 69.375 79C69.1679 79 69 79.1675 69 79.3741V82.8259C69 83.0325 69.1679 83.2 69.375 83.2C69.5821 83.2 69.75 83.0325 69.75 82.8259Z" fill="black"/>
<path d="M67.77 82.8246L67.75 79.3711C67.7488 79.1649 67.5799 78.9988 67.3728 79C67.1657 79.0012 66.9988 79.1693 67 79.3754L67.02 82.8289C67.0212 83.035 67.1901 83.2012 67.3972 83.2C67.6043 83.1988 67.7712 83.0307 67.77 82.8246Z" fill="black"/>
<path d="M65 79.379L65.02 82.8254C65.0212 83.0335 65.1901 83.2012 65.3972 83.2C65.6043 83.1988 65.7712 83.0291 65.77 82.821L65.75 79.3746C65.7488 79.1665 65.5799 78.9988 65.3728 79C65.1657 79.0012 64.9988 79.1709 65 79.379Z" fill="black"/>
</g>
<defs>
<filter id="filter0_d_434_9729" x="57.1922" y="70.0117" width="16.7426" height="17.8586" filterUnits="userSpaceOnUse" color-interpolation-filters="sRGB">
<feFlood flood-opacity="0" result="BackgroundImageFix"/>
<feColorMatrix in="SourceAlpha" type="matrix" values="0 0 0 0 0 0 0 0 0 0 0 0 0 0 0 0 0 0 127 0" result="hardAlpha"/>
<feOffset dy="1"/>
<feGaussianBlur stdDeviation="0.4"/>
<feColorMatrix type="matrix" values="0 0 0 0 0 0 0 0 0 0 0 0 0 0 0 0 0 0 0.5 0"/>
<feBlend mode="normal" in2="BackgroundImageFix" result="effect1_dropShadow_434_9729"/>
<feBlend mode="normal" in="SourceGraphic" in2="effect1_dropShadow_434_9729" result="shape"/>
</filter>
</defs>
</svg>